<svg xmlns="http://www.w3.org/2000/svg" viewBox="0 0 16.56 16.7"><defs><style>.cls-1{fill:#272525;}</style></defs><title>Recurso 11</title><g id="Capa_2" data-name="Capa 2"><g id="Capa_1-2" data-name="Capa 1"><path class="cls-1" d="M3.69,16.7A.39.39,0,0,0,4,16.61H5.33a.35.35,0,0,0,.35-.35V9.75a.35.35,0,0,0-.35-.35H5V5.47a3.29,3.29,0,0,1,3.33-3,3.29,3.29,0,0,1,3.33,3V9.4h-.39a.35.35,0,0,0-.35.35v6.51a.35.35,0,0,0,.35.35H12.6a.43.43,0,0,0,.26.09,3.69,3.69,0,0,0,1.25-7.16V5.47a5.84,5.84,0,0,0-11.66,0V9.54A3.69,3.69,0,0,0,3.69,16.7ZM13.23,5.47V9.33l-.37,0a.51.51,0,0,0-.26.09h-.12V5.47a4.13,4.13,0,0,0-4.2-3.84A4.14,4.14,0,0,0,4.07,5.47V9.4H4a.45.45,0,0,0-.26-.09l-.37,0V5.47a4.92,4.92,0,0,1,5-4.6A4.91,4.91,0,0,1,13.23,5.47ZM11.57,10.1h.94v5.81h-.94Zm1.73,5.69V10.22a2.82,2.82,0,0,1,0,5.57ZM5,15.91H4V10.1H5ZM3.25,10.22v5.57a2.82,2.82,0,0,1,0-5.57Z"/></g></g></svg>