<svg xmlns="http://www.w3.org/2000/svg" viewBox="0 0 14.48 15.47"><defs><style>.cls-1{fill:#272525;}</style></defs><title>Recurso 4</title><g id="Capa_2" data-name="Capa 2"><g id="Capa_1-2" data-name="Capa 1"><path class="cls-1" d="M1.52,6.69a2.68,2.68,0,0,0-.8,1.92,2.71,2.71,0,0,0,2.72,2.71h0a2.73,2.73,0,0,0,1.92-.79A2.76,2.76,0,0,0,6,9.58H8.51A2.7,2.7,0,0,0,11,11.32h0a2.72,2.72,0,0,0,0-5.43,2.77,2.77,0,0,0-1.24.3,3.61,3.61,0,0,0-.57-.67.36.36,0,0,0-.47,0,2.58,2.58,0,0,1-2.94.11L5.07,4.44a2.73,2.73,0,0,0,2.1,1h0a2.71,2.71,0,0,0,1.92-.79A2.72,2.72,0,0,0,7.17,0,2.66,2.66,0,0,0,5.25.8a2.68,2.68,0,0,0-.5,3.14l-.91-1.4a.93.93,0,0,0-1.28-.28.92.92,0,0,0-.27,1.28L3.83,5.93a2.58,2.58,0,0,0-.39,0A2.7,2.7,0,0,0,1.52,6.69ZM5.77,1.32A1.93,1.93,0,0,1,7.17.74a2,2,0,0,1,2,2,2,2,0,0,1-.58,1.4,2,2,0,0,1-3.38-1.4A1.93,1.93,0,0,1,5.77,1.32ZM9.64,7.21A1.93,1.93,0,0,1,11,6.63a2,2,0,0,1,2,2,2,2,0,0,1-2,2h0a2,2,0,0,1-2-2A1.94,1.94,0,0,1,9.64,7.21Zm-6.85-4a.32.32,0,0,1,0-.25.34.34,0,0,1,.14-.21.36.36,0,0,1,.46.1L5.11,5.6h0l.45.71,0,0a2.4,2.4,0,0,0,.39.2,1.85,1.85,0,0,0,.33.12,3.46,3.46,0,0,0,2.62-.39,2.42,2.42,0,0,1,.27.36l-.08.07a2.72,2.72,0,0,0-.8,1.92,1.64,1.64,0,0,0,0,.23H6.14a1.69,1.69,0,0,0,0-.23A2.71,2.71,0,0,0,4.73,6.22l0-.06ZM5.42,8.61a2,2,0,0,1-2,2h0a2,2,0,0,1-2-2,2,2,0,0,1,2-2A2,2,0,0,1,5.42,8.61Z"/><path class="cls-1" d="M.11,15.36a.35.35,0,0,0,.26.11H6.51a.36.36,0,0,0,.36-.36,5.22,5.22,0,0,0-1.37-3.7.36.36,0,0,0-.47,0,2.54,2.54,0,0,1-3.08,0,.36.36,0,0,0-.47,0A5.08,5.08,0,0,0,0,15.1.36.36,0,0,0,.11,15.36Zm1.65-3.2a3.22,3.22,0,0,0,3.44,0,4.53,4.53,0,0,1,.93,2.59H.75A4.54,4.54,0,0,1,1.76,12.16Z"/><path class="cls-1" d="M12.63,11.39a2.54,2.54,0,0,1-3.08,0,.36.36,0,0,0-.47,0A5.12,5.12,0,0,0,7.6,15.1a.38.38,0,0,0,.37.37h6.14a.37.37,0,0,0,.37-.36,5.3,5.3,0,0,0-1.38-3.7A.36.36,0,0,0,12.63,11.39Zm1.1,3.35H8.35a4.54,4.54,0,0,1,1-2.58,3.22,3.22,0,0,0,3.44,0A4.53,4.53,0,0,1,13.73,14.74Z"/></g></g></svg>