<svg xmlns="http://www.w3.org/2000/svg" viewBox="0 0 9.08 9.08"><defs><style>.cls-1{fill:#272525;}</style></defs><title>Recurso 14</title><g id="Capa_2" data-name="Capa 2"><g id="Capa_1-2" data-name="Capa 1"><path class="cls-1" d="M3.69,9h0a5,5,0,0,0,.85.08,4.54,4.54,0,0,0,.85-9A4.46,4.46,0,0,0,2,.79,4.53,4.53,0,0,0,.08,3.69a4.46,4.46,0,0,0,.71,3.4A4.53,4.53,0,0,0,3.69,9ZM1.32,3.93A3.29,3.29,0,0,1,4.53,1.26a3.18,3.18,0,0,1,.62.06A3.28,3.28,0,0,1,3.93,7.76h0A3.28,3.28,0,0,1,1.32,3.93Z"/></g></g></svg>