<svg xmlns="http://www.w3.org/2000/svg" viewBox="0 0 20.85 13.84"><defs><style>.cls-1{fill:#272525;}</style></defs><title>Recurso 17</title><g id="Capa_2" data-name="Capa 2"><g id="Capa_1-2" data-name="Capa 1"><path class="cls-1" d="M20.85,11.87a6.71,6.71,0,0,0-1.76-4.73.35.35,0,0,0-.46,0,3.43,3.43,0,0,1-4.14,0,.36.36,0,0,0-.46,0,5.38,5.38,0,0,0-1.14,1.56.36.36,0,0,0-.36,0,3.39,3.39,0,0,1-4.14,0,.39.39,0,0,0-.34-.07A5,5,0,0,0,7,7.14a.36.36,0,0,0-.47,0,3.43,3.43,0,0,1-4.14,0,.36.36,0,0,0-.46,0A6.51,6.51,0,0,0,0,11.86a.42.42,0,0,0,.1.26.4.4,0,0,0,.26.1h5.8A7,7,0,0,0,6,13.47a.35.35,0,0,0,.1.26.36.36,0,0,0,.26.11h8a.36.36,0,0,0,.36-.35,8.46,8.46,0,0,0-.09-1.26h5.83A.36.36,0,0,0,20.85,11.87ZM6.32,11.5H.74A6,6,0,0,1,2.16,7.88a4.07,4.07,0,0,0,4.5,0,4.28,4.28,0,0,1,.83,1.34A6.38,6.38,0,0,0,6.32,11.5Zm.45,1.61A6,6,0,0,1,8.2,9.5a4.09,4.09,0,0,0,4.5,0A6,6,0,0,1,14,13.11Zm7.74-1.61a5.8,5.8,0,0,0-1.07-2.27,5.74,5.74,0,0,1,.86-1.35,4.07,4.07,0,0,0,4.5,0,6,6,0,0,1,1.32,3.63Z"/><path class="cls-1" d="M16.5,0a3.41,3.41,0,0,0-3.39,3A3.4,3.4,0,0,0,8,2.61a3.47,3.47,0,0,0-.25.29A3.41,3.41,0,1,0,4.36,6.83h0A3.4,3.4,0,0,0,7,5.55a3.41,3.41,0,0,0,3.37,2.89h0a3.41,3.41,0,0,0,3.39-3A3.41,3.41,0,0,0,16.5,6.83h0a3.36,3.36,0,0,0,2.41-1,3.37,3.37,0,0,0,1-2.41A3.42,3.42,0,0,0,16.5,0ZM6.26,5.32a2.66,2.66,0,0,1-1.9.79h0a2.7,2.7,0,1,1,1.9-.79Zm6,1.61a2.69,2.69,0,0,1-1.91.79h0a2.69,2.69,0,0,1-1.9-4.6,2.66,2.66,0,0,1,1.9-.79A2.7,2.7,0,0,1,13.09,5,2.66,2.66,0,0,1,12.3,6.93Zm6.1-1.61a2.66,2.66,0,0,1-1.9.79h0a2.7,2.7,0,1,1,1.9-.79Z"/></g></g></svg>