<svg xmlns="http://www.w3.org/2000/svg" viewBox="0 0 17.99 20.56"><defs><style>.cls-1{fill:#272525;}</style></defs><title>Recurso 12</title><g id="Capa_2" data-name="Capa 2"><g id="Capa_1-2" data-name="Capa 1"><path class="cls-1" d="M18,.92A.92.92,0,0,0,17.07,0H.92a.92.92,0,0,0,0,1.83,1.37,1.37,0,0,0-.05.4v8.52a1.33,1.33,0,0,0,.05.4.92.92,0,0,0-.89.92A.92.92,0,0,0,.92,13H8.17a1.1,1.1,0,0,0,0,.18v2.19a.94.94,0,0,0-.12.09L4.92,18.68a.67.67,0,0,0-.17.6,1,1,0,0,0,.31.57,1,1,0,0,0,.58.29.71.71,0,0,0,.6-.19l1.91-2V19.6a.92.92,0,1,0,1.84,0V18l2.19,2.11a.72.72,0,0,0,.62.18,1,1,0,0,0,.58-.31,1,1,0,0,0,.28-.59.72.72,0,0,0-.2-.6h0l-3.39-3.26L10,15.42V13.16A1.1,1.1,0,0,0,10,13h7.1a.91.91,0,0,0,.36-1.75,1.55,1.55,0,0,0,.07-.48V2.23a1.49,1.49,0,0,0-.07-.47A.92.92,0,0,0,18,.92ZM13.1,19.12a.25.25,0,0,1,.05.18.54.54,0,0,1-.15.29.49.49,0,0,1-.28.15.22.22,0,0,1-.18,0L9.91,17.16a.27.27,0,0,0-.28-.05.25.25,0,0,0-.16.24V19.6a.4.4,0,1,1-.8,0V17.32a.25.25,0,0,0-.16-.24l-.1,0a.27.27,0,0,0-.19.08L5.86,19.59c0,.05-.11,0-.15,0a.51.51,0,0,1-.29-.15.45.45,0,0,1-.16-.28.19.19,0,0,1,0-.16L8.4,15.8l.07,0a.26.26,0,0,0,.2-.25V13.16a.39.39,0,0,1,0-.18h.72a.58.58,0,0,1,0,.18v2.42a.25.25,0,0,0,.18.25l.06,0Zm4.37-7a.4.4,0,0,1-.4.4H.92a.4.4,0,1,1,0-.8H17.07A.4.4,0,0,1,17.47,12.07ZM1.61,10.75V2.23a.87.87,0,0,1,.1-.39H16.63a.87.87,0,0,1,.1.39v8.52a.91.91,0,0,1-.1.4H1.71A.91.91,0,0,1,1.61,10.75ZM17.07,1.32H.92a.4.4,0,0,1,0-.8H17.07a.4.4,0,0,1,0,.8Z"/><path class="cls-1" d="M14.63,3.36a.4.4,0,0,0-.55.08L11.73,6.56,8.6,5a.39.39,0,0,0-.5.14L5.93,8.38H3.6a.39.39,0,1,0,0,.77H6.14A.37.37,0,0,0,6.46,9l2.1-3.14L11.67,7.4a.4.4,0,0,0,.49-.11L14.7,3.91A.4.4,0,0,0,14.63,3.36Z"/></g></g></svg>