<svg xmlns="http://www.w3.org/2000/svg" viewBox="0 0 27.11 18.86"><defs><style>.cls-1{fill:#272525;}</style></defs><title>Recurso 26</title><g id="Capa_2" data-name="Capa 2"><g id="Capa_1-2" data-name="Capa 1"><path class="cls-1" d="M27.1,17.16v0s0,0,0,0v0l0,0,0,0L27,16.93h0l0,0,0,0,0,0-3.31-1.63V.44A.44.44,0,0,0,23.12,0H3.88a.44.44,0,0,0-.44.44V15.21L.24,16.85h0l0,0,0,0s0,0,0,0l0,.06h0l0,.06v0s0,0,0,.05v0a.13.13,0,0,0,0,.06v1.2a.44.44,0,0,0,.44.44H26.67a.44.44,0,0,0,.44-.44v-1.2A.13.13,0,0,0,27.1,17.16ZM2.26,16.8,4,15.92H23l1.78.88ZM4.32.87H22.69V15H4.32ZM26.24,18H.87v-.32H26.24Z"/><path class="cls-1" d="M20.81,1.81H6.19a.43.43,0,0,0-.43.43V12.1a.43.43,0,0,0,.43.43H20.81a.44.44,0,0,0,.44-.43V2.24A.44.44,0,0,0,20.81,1.81Zm-.44,9.85H6.63v-9H20.37Z"/><path class="cls-1" d="M13.68,12.78a.94.94,0,1,0,.94.94A.94.94,0,0,0,13.68,12.78Zm0,1.36a.42.42,0,0,1-.42-.42.41.41,0,0,1,.42-.41.41.41,0,0,1,.41.41A.41.41,0,0,1,13.68,14.14Z"/></g></g></svg>