<svg xmlns="http://www.w3.org/2000/svg" viewBox="0 0 24.8 14.41"><defs><style>.cls-1{fill:#272525;}</style></defs><title>Recurso 35</title><g id="Capa_2" data-name="Capa 2"><g id="Capa_1-2" data-name="Capa 1"><path class="cls-1" d="M3.4,7.79a1,1,0,0,0-.79,1,1,1,0,0,0,.2.61l-.42,2.48a.34.34,0,0,0,.08.29.35.35,0,0,0,.28.13H4.47a.36.36,0,0,0,.27-.12.39.39,0,0,0,.09-.29L4.47,9.28a1,1,0,0,0,.14-.51,1,1,0,0,0-.48-.85V6.57l2.26,1v5.61a1.25,1.25,0,0,0,1.25,1.25H18a1.25,1.25,0,0,0,1.25-1.25V7.21l5.38-2.33a.36.36,0,0,0,.22-.35.36.36,0,0,0-.25-.33L12.32,0a.36.36,0,0,0-.25,0C7.88,1.61,1,4.14.36,4.18A.35.35,0,0,0,0,4.47a.36.36,0,0,0,.21.41L3.4,6.26Zm-.21,3.76.37-2.23A.36.36,0,0,0,3.44,9a.25.25,0,0,1-.1-.21.27.27,0,0,1,.54,0A.25.25,0,0,1,3.81,9a.38.38,0,0,0-.08.29l.32,2.31Zm15.28,1.61a.52.52,0,0,1-.52.52H7.64a.52.52,0,0,1-.52-.52V7.87l5.14,2.23a.32.32,0,0,0,.14,0l.15,0,5.92-2.57Zm-17-8.53c2.65-.83,9-3.22,10.74-3.88L23.42,4.58l-11,4.79L5.12,6.21l6.15-.81a2.27,2.27,0,0,0,1.13.26c.85,0,1.49-.33,1.49-.78s-.64-.79-1.49-.79-1.31.26-1.45.61l-7.13.94Zm9.81.25c0-.17.44-.42,1.12-.42s1.12.25,1.12.42-.44.42-1.12.42S11.28,5.05,11.28,4.88Z"/></g></g></svg>