<svg xmlns="http://www.w3.org/2000/svg" viewBox="0 0 18.92 18.92"><title>Recurso 19</title><g id="Capa_2" data-name="Capa 2"><g id="Capa_1-2" data-name="Capa 1"><path d="M9.46,18.92a9.46,9.46,0,1,1,9.46-9.45A9.48,9.48,0,0,1,9.46,18.92ZM1.76,9.41A7.7,7.7,0,1,0,9.47,1.76,7.7,7.7,0,0,0,1.76,9.41Z"/><path d="M8.57,11.79a4.22,4.22,0,0,1,1.77-3.44,1.89,1.89,0,0,0,.77-1.09,1.63,1.63,0,0,0-.58-1.68,1.6,1.6,0,0,0-1.76-.23,1.58,1.58,0,0,0-1,1.44.92.92,0,0,1-.55.9A.89.89,0,0,1,6,6.79a3.46,3.46,0,0,1,6.88-.42,3.38,3.38,0,0,1-1.33,3.26c-.18.15-.36.29-.52.45a2.33,2.33,0,0,0-.68,1.73,1.11,1.11,0,0,1-.17.73.82.82,0,0,1-.89.35.84.84,0,0,1-.69-.7A1.8,1.8,0,0,1,8.57,11.79Z"/><path d="M9.45,15.49a.89.89,0,1,1,.89-.88A.9.9,0,0,1,9.45,15.49Z"/></g></g></svg>