<svg xmlns="http://www.w3.org/2000/svg" viewBox="0 0 16.22 17.46"><defs><style>.cls-1{fill:#272525;}</style></defs><title>Recurso 25</title><g id="Capa_2" data-name="Capa 2"><g id="Capa_1-2" data-name="Capa 1"><path class="cls-1" d="M0,13v3.82a.61.61,0,0,0,.6.61h15a.61.61,0,0,0,.6-.61V13a.61.61,0,0,0-.6-.61H14.14a.61.61,0,0,0-.6.61v1.73H2.69V13a.61.61,0,0,0-.61-.61H.6A.61.61,0,0,0,0,13Zm.73.12H2v2a.37.37,0,0,0,.36.37H13.9a.38.38,0,0,0,.37-.37v-2h1.22v3.58H.73Z"/><path class="cls-1" d="M5.79,2.55h4.64a.64.64,0,0,0,.64-.64V.64A.64.64,0,0,0,10.43,0H5.79a.64.64,0,0,0-.64.64V1.91A.64.64,0,0,0,5.79,2.55ZM5.88.73h4.46V1.82H5.88Z"/><path class="cls-1" d="M5.11,6H2.74a.92.92,0,0,0-.86.48.63.63,0,0,0,.1.69l2.69,3.14h0l2.68,3.15a1,1,0,0,0,.76.32h0a1,1,0,0,0,.76-.32l5.37-6.29a.63.63,0,0,0,.1-.69A.92.92,0,0,0,13.48,6H11V3.79a.6.6,0,0,0-.6-.61H5.72a.61.61,0,0,0-.61.61Zm.37.73a.36.36,0,0,0,.36-.36V3.91H10.3V6.39a.36.36,0,0,0,.37.36h2.81a.31.31,0,0,1,.15,0L8.32,13a.37.37,0,0,1-.21.06h0a.33.33,0,0,1-.2-.06L5.22,9.86h0L2.59,6.78a.33.33,0,0,1,.15,0Z"/></g></g></svg>