<svg xmlns="http://www.w3.org/2000/svg" viewBox="0 0 23.5 21.93"><title>Recurso 30</title><g id="Capa_2" data-name="Capa 2"><g id="Capa_1-2" data-name="Capa 1"><path d="M17.91,12.34c.25.19.5.37.73.57a4.91,4.91,0,0,1,1.54,2.19,3.69,3.69,0,0,1,0,2.39,1.15,1.15,0,0,1-1.86.4,7.59,7.59,0,0,0-1.51-1.2l0,0a.06.06,0,0,0-.1,0c-.05,0,0,.07,0,.1s.26.25.37.38a2,2,0,0,1,.52,1,1.05,1.05,0,0,1-.28.91,1.74,1.74,0,0,1-.66.44.19.19,0,0,0-.12.2,1.51,1.51,0,0,1-.13.81,1.41,1.41,0,0,1-1,.71,1,1,0,0,0-.67.43.8.8,0,0,1-.63.27,2,2,0,0,1-1.81-1,3.49,3.49,0,0,1-.43-.81s0-.09-.06-.09-.05.06-.06.09a3.44,3.44,0,0,1-.86,1.3,1.8,1.8,0,0,1-1.28.5,1,1,0,0,1-.9-.48.39.39,0,0,0-.28-.18A2,2,0,0,1,7.52,21,1.26,1.26,0,0,1,7,20c0-.11,0-.22,0-.33a.16.16,0,0,0-.12-.18,1.89,1.89,0,0,1-.66-.45A1.06,1.06,0,0,1,6,18a3,3,0,0,1,.81-1.17s.11-.05.06-.12-.1,0-.14,0a7.71,7.71,0,0,0-1.46,1.15A1.13,1.13,0,0,1,4,18.15a1.16,1.16,0,0,1-.8-1,4,4,0,0,1,.39-2.78,4.46,4.46,0,0,1,.61-.88A6.93,6.93,0,0,1,5.52,12.4l.08-.07c-.22-.09-.43-.17-.64-.27A4.77,4.77,0,0,1,4,11.51c-.09-.07-.1-.12,0-.2l.8-.93c.08-.08.08-.12,0-.17a1.38,1.38,0,0,1-.62-.5.22.22,0,0,0-.26-.1,2,2,0,0,1-.85.05,1,1,0,0,1-.77-.52.6.6,0,0,1-.08-.21c-.06-.28-.06-.27-.35-.32A2.29,2.29,0,0,1,.54,8,1.75,1.75,0,0,1,.38,5.63a2.1,2.1,0,0,1,1.45-.74A3.23,3.23,0,0,1,3,5a.26.26,0,0,0,.21,0,3.65,3.65,0,0,1,2-.82,5.23,5.23,0,0,1,2.51.24A4.84,4.84,0,0,1,9,5.07s.07.08.11.06,0-.08,0-.12A8.55,8.55,0,0,1,9.91,1.9,4,4,0,0,1,11.42.15L11.64,0a.18.18,0,0,1,.2,0,3.24,3.24,0,0,1,1.22,1,6,6,0,0,1,1,2.31,8.93,8.93,0,0,1,.24,1.7c0,.1,0,.1.11,0a4.9,4.9,0,0,1,2.22-.95,4.86,4.86,0,0,1,3,.38,2.27,2.27,0,0,1,.58.39.26.26,0,0,0,.25.06,3.13,3.13,0,0,1,1.36-.06,1.87,1.87,0,0,1,1.51,1.21,1.77,1.77,0,0,1-.72,2.09,2.55,2.55,0,0,1-1.22.42c-.1,0-.14,0-.14.14a1,1,0,0,1-.89.88,2.23,2.23,0,0,1-.89-.06c-.08,0-.13,0-.17.06a1.39,1.39,0,0,1-.64.54c-.12.06-.11.11,0,.19l.76.87c.12.15.12.16,0,.27a5,5,0,0,1-1.32.71l-.18.07ZM2.18,5.46a2,2,0,0,0-.79.12A1.2,1.2,0,0,0,.72,7.27a1.45,1.45,0,0,0,.83.67,2.57,2.57,0,0,0,1.07.14c.07,0,.12,0,.12.1s0,.34,0,.52A.31.31,0,0,0,3,9a.84.84,0,0,0,.54.08,2.76,2.76,0,0,0,.74-.18c.07,0,.12,0,.15.06a1,1,0,0,0,.24.4,1.21,1.21,0,0,0,1,.43h.36s.07,0,.08,0,0,.05,0,.07l-.21.24c-.31.36-.61.72-.92,1.07-.07.08-.05.12,0,.16A7.41,7.41,0,0,0,6,11.84a.64.64,0,0,0,.57-.07,19,19,0,0,1,3.85-1.52c.12,0,.17-.09.17-.21a9,9,0,0,0-.12-1.38A5,5,0,0,0,9.26,6.07a4.17,4.17,0,0,0-1.9-1.21A4.74,4.74,0,0,0,4.8,4.77a2.45,2.45,0,0,0-1.42.84c0,.07-.11,0-.18,0A3.22,3.22,0,0,0,2.18,5.46Zm15.4-.83a7.28,7.28,0,0,0-.9.1A4.23,4.23,0,0,0,13.6,7a6.12,6.12,0,0,0-.66,2.85c0,.44-.08.33.34.46a18.53,18.53,0,0,1,3.61,1.45.83.83,0,0,0,.72.06,6.64,6.64,0,0,0,.95-.41c.17-.09.16-.09,0-.23l-.37-.42-.73-.84s-.05,0,0-.08.05,0,.08,0h.31a1.3,1.3,0,0,0,1.08-.5A1.12,1.12,0,0,0,19.1,9c0-.07.06-.09.14-.06a3.41,3.41,0,0,0,.57.16,1.34,1.34,0,0,0,.66,0,.33.33,0,0,0,.26-.33c0-.19,0-.36,0-.54s0-.12.11-.1a1.89,1.89,0,0,0,.53,0,1.84,1.84,0,0,0,1.2-.53,1.17,1.17,0,0,0,0-1.62,1.48,1.48,0,0,0-1-.45,3.24,3.24,0,0,0-1.27.18c-.08,0-.14,0-.2,0A1.75,1.75,0,0,0,19.42,5,4.42,4.42,0,0,0,17.58,4.63Zm2.21,11.68a3.44,3.44,0,0,0-.54-1.84,5.21,5.21,0,0,0-1.31-1.38A9.93,9.93,0,0,0,16.06,12a23.72,23.72,0,0,0-3.92-1.39,1.28,1.28,0,0,0-.82,0c-.21.07-.43.12-.65.18a21.78,21.78,0,0,0-2.61.91,12.21,12.21,0,0,0-2,1A7,7,0,0,0,4.61,14a3.46,3.46,0,0,0-.81,3.11.6.6,0,0,0,.42.51.57.57,0,0,0,.62-.19,8,8,0,0,1,1.52-1.2A.14.14,0,0,0,6.43,16a.81.81,0,0,1,.19-.77,2.14,2.14,0,0,1,.81-.54c.06,0,.11-.05.09-.14a.78.78,0,0,1,.55-1,2.18,2.18,0,0,1,.8-.11c.13,0,.19,0,.16-.17A.94.94,0,0,1,9,13a1,1,0,0,1,.46-.85,1.09,1.09,0,0,1,.73-.1,4,4,0,0,1,1.42.54c.06,0,.11.06.18,0s.31-.17.47-.25a2.86,2.86,0,0,1,1.28-.33.87.87,0,0,1,.85.68,1.78,1.78,0,0,1,0,.61c0,.11,0,.14.14.14a2.3,2.3,0,0,1,.86.12.78.78,0,0,1,.52,1,.13.13,0,0,0,.08.16,2.34,2.34,0,0,1,.68.4.9.9,0,0,1,.33.92.12.12,0,0,0,.07.16,7.93,7.93,0,0,1,1.54,1.23.57.57,0,0,0,.59.17.6.6,0,0,0,.42-.46A4,4,0,0,0,19.79,16.31Zm-5.46-2.23a3.65,3.65,0,0,1,.31.45,2.32,2.32,0,0,1,.27,1.92,1.71,1.71,0,0,1-2.15,1.23,2.19,2.19,0,0,1-.61-.31A1.6,1.6,0,0,1,11.8,17c0-.07-.06-.07-.11,0a1.7,1.7,0,0,1-.78.67,1.66,1.66,0,0,1-1.84-.36,2.18,2.18,0,0,1-.4-2.37,3.27,3.27,0,0,1,.43-.72s.08-.09,0-.09a2,2,0,0,0-.83.08c-.17.06-.21.16-.16.33a1.35,1.35,0,0,0,.22.43c.06.1,0,.15-.08.17a3.31,3.31,0,0,0-.61.19,1.35,1.35,0,0,0-.55.36A.25.25,0,0,0,7,16a1.18,1.18,0,0,0,.28.31l.41.29c.11.07.11.1,0,.17l-.19.14a3.26,3.26,0,0,0-1,1.08.57.57,0,0,0,.23.82,2.86,2.86,0,0,0,.69.31c.25.08.24.08.15.33a.8.8,0,0,0,.51,1.18,2.66,2.66,0,0,0,.74.12c.11,0,.17,0,.18.16a.46.46,0,0,0,.47.44,1.14,1.14,0,0,0,.78-.25,2.71,2.71,0,0,0,.84-1.19,8.28,8.28,0,0,0,.24-.81.34.34,0,0,1,.35-.28.35.35,0,0,1,.35.27l0,.15a4,4,0,0,0,.62,1.42,1.63,1.63,0,0,0,.91.67.55.55,0,0,0,.77-.46c0-.11.09-.11.17-.11a2.21,2.21,0,0,0,1-.22.69.69,0,0,0,.39-.64,1.21,1.21,0,0,0-.1-.5c-.08-.2-.08-.2.12-.26a3,3,0,0,0,.71-.31.58.58,0,0,0,.24-.86,3.28,3.28,0,0,0-1.06-1.13c-.21-.15-.21-.15,0-.29a2,2,0,0,0,.62-.57.24.24,0,0,0,0-.32.91.91,0,0,0-.21-.18,2.54,2.54,0,0,0-.93-.38c-.17,0-.18,0-.09-.21a2.25,2.25,0,0,0,.19-.38c.05-.18,0-.27-.15-.34A2.06,2.06,0,0,0,14.33,14.08Zm-.54-8.52c0-.26,0-.52,0-.77a7.83,7.83,0,0,0-.64-2.57A3.59,3.59,0,0,0,11.87.7a.18.18,0,0,0-.24,0,3.38,3.38,0,0,0-.77.74,4.31,4.31,0,0,0-.58,1.05,9.07,9.07,0,0,0-.57,3.13.31.31,0,0,0,.09.19,5,5,0,0,1,.87,1.46,7.25,7.25,0,0,1,.47,2.6c0,.17,0,.18.16.13a1.17,1.17,0,0,1,.9,0h0c.11,0,.15,0,.15-.11a7.08,7.08,0,0,1,.08-1.13,5.72,5.72,0,0,1,1.28-3A.33.33,0,0,0,13.79,5.56Zm.64,10.3a1.54,1.54,0,0,0-.08-.56A2.64,2.64,0,0,0,13,13.79a4.21,4.21,0,0,0-.94-.38,1,1,0,0,0-.47-.05,4,4,0,0,0-1.85,1,2,2,0,0,0-.67,1.77,1.29,1.29,0,0,0,.7,1,1.13,1.13,0,0,0,1.46-.52l.42-.69c.08-.12.09-.12.16,0,.17.28.33.56.5.83A1.11,1.11,0,0,0,13.9,17,1.38,1.38,0,0,0,14.43,15.86Zm-1.91-2.92c.25.1.46.18.66.28a4.6,4.6,0,0,1,.6.37c.05,0,.07,0,.08,0a2,2,0,0,0,0-.6.34.34,0,0,0-.37-.3A2.34,2.34,0,0,0,12.52,12.94Zm-1.56,0a2.85,2.85,0,0,0-.92-.27c-.28,0-.41.11-.44.39a2.48,2.48,0,0,0,0,.47c0,.09,0,.11.13.05a4.58,4.58,0,0,1,1-.55A.31.31,0,0,0,11,12.92Z"/><path d="M12,5.37v3c0,.17,0,.17-.17.17h-.26c-.12,0-.16,0-.16-.16V2.4c0-.17,0-.19.19-.19H12c.07,0,.09,0,.09.1V5.37Z"/></g></g></svg>