<svg xmlns="http://www.w3.org/2000/svg" viewBox="0 0 21.74 21.07"><defs><style>.cls-1{fill:#272525;}</style></defs><title>Recurso 32</title><g id="Capa_2" data-name="Capa 2"><g id="Capa_1-2" data-name="Capa 1"><path class="cls-1" d="M.4,17.37l.06.08a.44.44,0,0,0,.25.13.43.43,0,0,0,.36-.11l.85-.8a.18.18,0,0,0,.05.07l2.17,2.31.06.05-.84.8a.43.43,0,0,0-.14.35.48.48,0,0,0,.19.32,3,3,0,0,0,3.68-.3L12,15.66a3,3,0,0,0,.76-3.14A3,3,0,0,0,15.92,12l4.9-4.61a3,3,0,0,0,.52-3.64A.42.42,0,0,0,21,3.49a.44.44,0,0,0-.36.11l-1,.95-.06-.06L17.44,2.18l-.07-.05,1-1a.43.43,0,0,0,.14-.35A.42.42,0,0,0,18.33.5a3,3,0,0,0-3.67.3L9.76,5.41A3,3,0,0,0,9,8.55a3,3,0,0,0-3.18.56L.92,13.72A3,3,0,0,0,.4,17.37Zm6-7.62a2.09,2.09,0,0,1,2.95.09l2.12,2.24A2.09,2.09,0,0,1,11.39,15l-4.9,4.61a2.1,2.1,0,0,1-2.08.46l1.08-1,.56-.53,2.54-2.4.56-.53.88-.82c.8-.76.35-2.41-.35-3.15s-2.32-1.3-3.13-.54l-.87.82-.56.53-2.55,2.4L2,15.39l-1.08,1a2.12,2.12,0,0,1,.59-2.05Zm8.84-8.32A2.1,2.1,0,0,1,17.33,1L16.09,2.14l-.57.53L13.15,4.91l-.56.53-.87.82c-.81.75-.35,2.41.35,3.15s2.32,1.3,3.12.54l.87-.82.56-.53L19,6.36l.56-.53,1.25-1.17a2.09,2.09,0,0,1-.58,2.05l-4.9,4.61a2.09,2.09,0,0,1-2.95-.09L10.26,9A2.1,2.1,0,0,1,10.35,6ZM16.8,2.78,19,5.08a.09.09,0,0,1,0,.12l-.56.53a.11.11,0,0,1-.13,0L16.12,3.42a.08.08,0,0,1,0-.12l.56-.53A.08.08,0,0,1,16.8,2.78ZM15.47,8.5a.08.08,0,0,1-.12,0l-2.17-2.3a.09.09,0,0,1,0-.12l.56-.53a.11.11,0,0,1,.13,0L16,7.85A.08.08,0,0,1,16,8Zm-3-1.78.06.07,2.16,2.3.07.05-.18.18c-.35.33-1.45,0-1.9-.51S12,7.22,12.31,6.89Zm4.18.53L14.5,5l-.07-.06,1-.94.05.07,2.17,2.3.07.06-1,.94ZM4.77,18.45,2.6,16.15a.09.09,0,0,1,0-.12l.57-.53a.09.09,0,0,1,.12,0l2.17,2.3a.09.09,0,0,1,0,.13l-.56.52A.08.08,0,0,1,4.77,18.45Zm1.5-5.88a.09.09,0,0,1,.13,0l2.16,2.3a.08.08,0,0,1,0,.12L8,15.53a.09.09,0,0,1-.12,0L5.71,13.22a.09.09,0,0,1,0-.12Zm3,1.78-.05-.07L7,12,7,11.92l.19-.17c.35-.33,1.44,0,1.89.5s.74,1.6.39,1.93Zm-4.17-.53,2.16,2.3.07.06-1.17,1.1,0-.07-2.17-2.3-.07-.06L5,13.75Z"/></g></g></svg>