<svg xmlns="http://www.w3.org/2000/svg" viewBox="0 0 20.4 20.51"><title>Recurso 20</title><g id="Capa_2" data-name="Capa 2"><g id="Capa_1-2" data-name="Capa 1"><path d="M0,20.51c.06-.23.09-.39.14-.55.23-.69.41-1.4.7-2.06.69-1.56,1.09-3.08,0-4.62a10.06,10.06,0,1,1,11.3,6.58A10.18,10.18,0,0,1,5.86,19,1.39,1.39,0,0,0,5,19C3.32,19.44,1.7,20,0,20.51Zm2.35-2.35c1-.33,1.9-.57,2.74-.87a1.16,1.16,0,0,1,1.07.09,8.34,8.34,0,0,0,5.89.94,8.58,8.58,0,0,0,6.74-9.11A8.5,8.5,0,1,0,3.16,14.58a1.1,1.1,0,0,1,.09.82C3,16.28,2.69,17.13,2.35,18.16Z"/><path d="M13,15.09c-.82-.3-1.67-.54-2.45-.91a9.75,9.75,0,0,1-5.15-6,2.6,2.6,0,0,1,.52-2.42,1.28,1.28,0,0,1,1.45-.57.92.92,0,0,1,.55.41c.23.46.32,1,.57,1.43a1.07,1.07,0,0,1-.28,1.48c-.49.41-.42.79-.1,1.28a7.57,7.57,0,0,0,3,2.72.72.72,0,0,0,1-.21c.9-1,.91-1,2.12-.37l.46.24a1.14,1.14,0,0,1,.25,2A3.3,3.3,0,0,1,13,15.09Z"/></g></g></svg>