<svg xmlns="http://www.w3.org/2000/svg" viewBox="0 0 21.84 12.45"><defs><style>.cls-1{fill:#272525;}</style></defs><title>Recurso 33</title><g id="Capa_2" data-name="Capa 2"><g id="Capa_1-2" data-name="Capa 1"><path class="cls-1" d="M7.79,8.54a3.87,3.87,0,0,0,0-.48,1,1,0,0,1,.85-.49A1,1,0,0,1,9.43,8a3.12,3.12,0,0,0,0,.54A3.9,3.9,0,1,0,16.6,6.51l5.1-5.1A.57.57,0,0,0,21.65.6a.57.57,0,0,0-.81,0l-5,5a3.86,3.86,0,0,0-2.51-.93,3.91,3.91,0,0,0-3.6,2.39,1.84,1.84,0,0,0-1.08-.36,1.8,1.8,0,0,0-1.11.38A3.89,3.89,0,0,0,5.07,4.83L8.9,1A.6.6,0,0,0,8.85.19.65.65,0,0,0,8.44,0,.49.49,0,0,0,8,.15L3.52,4.66A3.9,3.9,0,1,0,7.79,8.54ZM21.05.77A.2.2,0,0,1,21.2.71a.3.3,0,0,1,.23.1.29.29,0,0,1,.05.39L16.43,6.26a3.67,3.67,0,0,0-.4-.47Zm-7.76,4.5A3.29,3.29,0,1,1,10,8.56,3.29,3.29,0,0,1,13.29,5.27ZM8.61,7a1.5,1.5,0,0,1,1,.35c0,.09-.05.19-.08.28a1.26,1.26,0,0,0-1.81,0,2.45,2.45,0,0,0-.08-.29A1.54,1.54,0,0,1,8.61,7ZM8.25.36A.2.2,0,0,1,8.4.3h0a.36.36,0,0,1,.21.11.28.28,0,0,1,0,.38l-3.94,4A3.33,3.33,0,0,0,4,4.65ZM3.9,11.83A3.29,3.29,0,1,1,7.19,8.54,3.29,3.29,0,0,1,3.9,11.83Z"/><path class="cls-1" d="M3.72,5.85A2.39,2.39,0,0,0,1.29,8.09a.42.42,0,0,0,.39.45h0a.43.43,0,0,0,.45-.39,1.75,1.75,0,0,1,.05-.33A1.49,1.49,0,0,1,3.36,6.75a2.14,2.14,0,0,1,.38-.06.42.42,0,0,0,.41-.43A.42.42,0,0,0,3.72,5.85Z"/><path class="cls-1" d="M13.49,5.85a2.4,2.4,0,0,0-2.44,2.24.43.43,0,0,0,.39.45h0a.42.42,0,0,0,.45-.39A1.75,1.75,0,0,1,12,7.82a1.47,1.47,0,0,1,1.18-1.07,2.14,2.14,0,0,1,.38-.06.42.42,0,1,0,0-.84Z"/></g></g></svg>