<svg xmlns="http://www.w3.org/2000/svg" viewBox="0 0 18.23 18.23"><defs><style>.cls-1{fill:#272525;}</style></defs><title>Recurso 15</title><g id="Capa_2" data-name="Capa 2"><g id="Capa_1-2" data-name="Capa 1"><path class="cls-1" d="M1.28,5.53a.61.61,0,0,0-.47.1A.66.66,0,0,0,.54,6L0,8.82a.63.63,0,0,0,.5.74l1.08.21A7.3,7.3,0,0,0,2,11.5L1,12.12A.63.63,0,0,0,.88,13l1.59,2.35a.64.64,0,0,0,.41.27.61.61,0,0,0,.47-.1l.91-.62a7.31,7.31,0,0,0,1.48,1l-.21,1.07a.62.62,0,0,0,.5.74l2.79.54h.12a.63.63,0,0,0,.62-.52l.21-1.07a8.44,8.44,0,0,0,1.73-.36l.62.9a.62.62,0,0,0,.4.27.59.59,0,0,0,.47-.1l2.35-1.6a.62.62,0,0,0,.17-.87L14.89,14a7.6,7.6,0,0,0,1-1.48l1.07.21a.63.63,0,0,0,.74-.51l.53-2.79a.61.61,0,0,0-.09-.47.68.68,0,0,0-.41-.27l-1.07-.2a8.44,8.44,0,0,0-.36-1.73l.9-.62a.63.63,0,0,0,.17-.88l-1.6-2.35a.63.63,0,0,0-.87-.16L14,3.33a7.55,7.55,0,0,0-1.48-1l.21-1.08a.64.64,0,0,0-.51-.74L9.4,0a.64.64,0,0,0-.74.5l-.2,1.08A7.3,7.3,0,0,0,6.73,2L6.11,1a.61.61,0,0,0-.4-.26.63.63,0,0,0-.48.1L2.88,2.47a.63.63,0,0,0-.26.41.61.61,0,0,0,.1.47l.61.91a7.26,7.26,0,0,0-1,1.48Zm2,1.16A6.24,6.24,0,0,1,4.59,4.75.63.63,0,0,0,4.66,4l-.55-.8,1.31-.89.54.8a.63.63,0,0,0,.76.23A6.2,6.2,0,0,1,9,2.83a.64.64,0,0,0,.61-.52l.18-.94,1.55.3-.18.94a.63.63,0,0,0,.37.7,6.17,6.17,0,0,1,2,1.28.63.63,0,0,0,.79.07l.79-.54L16,5.42,15.16,6a.62.62,0,0,0-.23.76A6.2,6.2,0,0,1,15.4,9a.63.63,0,0,0,.51.61l.95.18-.3,1.55-.94-.18a.62.62,0,0,0-.7.38,6.08,6.08,0,0,1-1.28,1.93.64.64,0,0,0-.07.8l.54.79-1.3.89-.54-.79a.63.63,0,0,0-.77-.23,6.15,6.15,0,0,1-2.27.47.62.62,0,0,0-.61.51l-.18.95-1.55-.3.18-.94a.63.63,0,0,0-.38-.71,6.21,6.21,0,0,1-1.94-1.27A.62.62,0,0,0,4,13.57l-.8.54-.89-1.3.8-.54a.64.64,0,0,0,.23-.77,6.15,6.15,0,0,1-.47-2.27.63.63,0,0,0-.52-.61l-.94-.18.3-1.55.94.18A.62.62,0,0,0,3.31,6.69Z"/></g></g></svg>