<svg xmlns="http://www.w3.org/2000/svg" viewBox="0 0 18.33 26.74"><defs><style>.cls-1{fill:#272525;}</style></defs><title>Recurso 7</title><g id="Capa_2" data-name="Capa 2"><g id="Capa_1-2" data-name="Capa 1"><path class="cls-1" d="M9.52,3.21a1.15,1.15,0,1,0,1.14,1.14A1.14,1.14,0,0,0,9.52,3.21Zm0,1.56a.42.42,0,0,1-.42-.42.41.41,0,0,1,.42-.41.41.41,0,0,1,.41.41A.41.41,0,0,1,9.52,4.77Z"/><path class="cls-1" d="M14.28,2a2,2,0,1,0-2,2A2,2,0,0,0,14.28,2Zm-2,1.24A1.24,1.24,0,1,1,13.55,2,1.25,1.25,0,0,1,12.31,3.21Z"/><path class="cls-1" d="M10.88,5.33A1.34,1.34,0,1,0,12.22,4,1.34,1.34,0,0,0,10.88,5.33Zm1.95,0a.61.61,0,1,1-.61-.61A.6.6,0,0,1,12.83,5.33Z"/><path class="cls-1" d="M.22,25.93a1.58,1.58,0,0,0,1.39.81H16.93a1.37,1.37,0,0,0,1.21-.7,1.4,1.4,0,0,0,0-1.4l-4.63-8a.35.35,0,0,0-.1-.11.36.36,0,0,0-.11-.22L11.17,12.6V9.5a1.27,1.27,0,0,0-.44-2.45H7.45A1.27,1.27,0,0,0,7,9.5v3.1L4.87,16.29a.32.32,0,0,0-.1.21.52.52,0,0,0-.1.11L.22,24.32A1.6,1.6,0,0,0,.22,25.93ZM6.91,8.31a.54.54,0,0,1,.54-.53h3.28a.54.54,0,0,1,0,1.07H7.45A.54.54,0,0,1,6.91,8.31Zm.78,4.57a.41.41,0,0,0,0-.19V9.58h2.71v3.11a.41.41,0,0,0,.05.19l2.06,3.56H5.63ZM.85,24.69,5.2,17.16H13L17.51,25a.68.68,0,0,1-.58,1H1.61a.89.89,0,0,1-.76-.44A.87.87,0,0,1,.85,24.69Z"/></g></g></svg>