<svg xmlns="http://www.w3.org/2000/svg" viewBox="0 0 28.43 32.14"><title>Recurso 22</title><g id="Capa_2" data-name="Capa 2"><g id="Capa_1-2" data-name="Capa 1"><path d="M28.43,7.15a31.46,31.46,0,0,1-2.85,14.24A23.07,23.07,0,0,1,14.76,32a1.34,1.34,0,0,1-1.38-.17A23.17,23.17,0,0,1,1,16.13,45.27,45.27,0,0,1,0,4,1,1,0,0,1,1,2.86Q7.36,1.48,13.75.06a2.12,2.12,0,0,1,1,0q6.44,1.44,12.87,2.84a.92.92,0,0,1,.84,1C28.42,5,28.43,6.07,28.43,7.15Zm-2.26-.39c0-2,.25-1.69-1.79-2.16-3.16-.73-6.34-1.4-9.5-2.11a2.57,2.57,0,0,0-1.17,0c-3.48.78-7,1.56-10.46,2.31A1,1,0,0,0,2.3,6a41.82,41.82,0,0,0,1,9.46,20.46,20.46,0,0,0,10.18,13.8,1.21,1.21,0,0,0,1.35.13,20.48,20.48,0,0,0,8.48-8.64C25.46,16.35,26.06,11.67,26.17,6.76Z"/><path d="M14.3,16q0,5.35,0,10.71c0,.34.19.8-.2,1s-.66-.19-1-.36c-5.3-3-7.94-7.69-8.93-13.51a36,36,0,0,1-.42-6.56,1.08,1.08,0,0,1,1-1.22c2.85-.61,5.7-1.23,8.54-1.88.78-.18,1.06,0,1.05.83,0,3.67,0,7.34,0,11Z"/></g></g></svg>