<svg xmlns="http://www.w3.org/2000/svg" viewBox="0 0 20.72 20.77"><defs><style>.cls-1{fill:#272525;}</style></defs><title>Recurso 34</title><g id="Capa_2" data-name="Capa 2"><g id="Capa_1-2" data-name="Capa 1"><path class="cls-1" d="M20.65,13.7a.39.39,0,0,0-.32-.16,4.23,4.23,0,0,1-2.61-1.15L17.17,12a5.18,5.18,0,0,0-3.09-1.08l-1.44,0H9.71a1.17,1.17,0,0,0,0,2.33h2.72a.77.77,0,0,1,.62.76.79.79,0,0,1-.36.66l-1,.27c-.35.08-.7.17-1,.27l-.07,0L7.87,16H7.65L3.38,13.18l-.77-.56,0,0-.12-.07-.25-.1-.2,0a1.23,1.23,0,0,0-.51,0,1.62,1.62,0,0,0-1,2.77l0,0a1.59,1.59,0,0,0,.37.27l7.07,5.13.11.05,0,0h0a1.68,1.68,0,0,0,.61.11,1.55,1.55,0,0,0,.37,0h.05c4.48-1.14,7.69-1.95,9.28-2.34h.05l.14-.06A8.27,8.27,0,0,1,20.33,18a.4.4,0,0,0,.39-.39V14A.41.41,0,0,0,20.65,13.7Zm-.71,3.57a10.88,10.88,0,0,0-1.53.3h-.05l-.13.05C16.63,18,13.42,18.83,9,20h0a1,1,0,0,1-.56,0L1.3,14.81l-.05,0L1,14.63H1A.88.88,0,0,1,.78,14a.85.85,0,0,1,.79-.85h0a.75.75,0,0,1,.26,0l.1,0,.12.05.07,0h0l.76.55H3l4.34,2.81a.33.33,0,0,0,.12.05,1.76,1.76,0,0,0,.53,0H8L10.76,16l.09,0q.49-.15,1-.27l1.07-.28.08,0a1.55,1.55,0,0,0-.49-2.89H9.71a.39.39,0,1,1,0-.77h2.94l1.43,0a4.44,4.44,0,0,1,2.65.93l.53.39a5.42,5.42,0,0,0,2.68,1.28v3Z"/><path class="cls-1" d="M13.36.4v0A.4.4,0,0,0,13,0h0A6.57,6.57,0,0,0,6.86,4.09a5.34,5.34,0,0,0-1.49-2.9l-.09-.08,0,0a.4.4,0,0,0-.53,0l0,0a5.36,5.36,0,0,0-.21,7.34h0L2.14,10.81l.41.4L4.91,8.85h0a5.35,5.35,0,0,0,7.34-.2v0a.4.4,0,0,0,0-.54v0A5.38,5.38,0,0,0,9.12,6.56,6.55,6.55,0,0,0,13.36.4Zm-1.93,8a4.56,4.56,0,0,1-6-.09l-.06,0,0,0L5.3,8.15,5.24,8.1,5.13,8l-.06-.07a4.58,4.58,0,0,1-.08-6,4.55,4.55,0,0,1,.36,5.64.39.39,0,0,0,.54.54A4.56,4.56,0,0,1,11.43,8.37ZM7.16,6.2a5.31,5.31,0,0,1,.08-.67h0A5.79,5.79,0,0,1,12.57.79,5.78,5.78,0,0,1,7.16,6.2Z"/></g></g></svg>