<svg xmlns="http://www.w3.org/2000/svg" viewBox="0 0 14.43 17.61"><defs><style>.cls-1{fill:#272525;}</style></defs><title>Recurso 16</title><g id="Capa_2" data-name="Capa 2"><g id="Capa_1-2" data-name="Capa 1"><path class="cls-1" d="M4.65,13.2H6.32A.23.23,0,0,0,6.54,13c.06-.39.14-.77.23-1.15a.23.23,0,0,0-.22-.29H5a.23.23,0,0,0-.22.17c-.12.38-.23.76-.32,1.15s.37.4.44.12.2-.77.32-1.15L5,12.05H6.55l-.22-.29c-.09.38-.17.76-.23,1.15l.22-.17H4.65A.23.23,0,0,0,4.65,13.2Z"/><path class="cls-1" d="M6.5,9.18a8.15,8.15,0,0,1-.83-.1c-.32,0-.4,0-.62.26a.23.23,0,0,0,0,.27c.08.12.51.66.47.73a.23.23,0,0,0,.2.35h1a.23.23,0,0,0,.2-.12c.2-.39.41-.77.64-1.14a.24.24,0,0,0-.2-.35,2.85,2.85,0,0,0-.87.11c-.28.08-.16.53.12.44A1.1,1.1,0,0,1,7,9.54h.36L7.12,9.2a10.68,10.68,0,0,0-.64,1.14l.19-.11h-1l.2.34c.19-.43-.25-.84-.48-1.19l0,.28c.11-.15-.06-.1.13-.12h.35a2.69,2.69,0,0,0,.64.1C6.79,9.61,6.8,9.16,6.5,9.18Z"/><path class="cls-1" d="M4.32,15.73H6.21a.23.23,0,0,0,.23-.23q0-.57,0-1.14a.23.23,0,0,0-.23-.23H4.47a.24.24,0,0,0-.23.17q-.09.6-.15,1.2c0,.3.43.29.46,0s.08-.72.14-1.08l-.22.17H6.21L6,14.36c0,.38,0,.76,0,1.14l.23-.22H4.32A.23.23,0,0,0,4.32,15.73Z"/><path class="cls-1" d="M.27,2c.28,0,.54,0,.79,0h0l.19,0-.39.3a.28.28,0,0,0-.05.39.28.28,0,0,0,.39,0L2,2.16q.38.07.72.18l-.91.52a.28.28,0,0,0-.1.38A.28.28,0,0,0,2,3.37a.31.31,0,0,0,.13,0l1.32-.77.46.21-1.55,1a.26.26,0,0,0-.08.37.26.26,0,0,0,.23.13.42.42,0,0,0,.15,0L4.44,3.09a5.33,5.33,0,0,1,.46.32L2.55,4.69a.29.29,0,0,0-.11.38.28.28,0,0,0,.24.14.28.28,0,0,0,.13,0L5.34,3.8l.29.3a.28.28,0,0,0,.09.1l.08.1L4,5.2a.28.28,0,0,0,.12.52.31.31,0,0,0,.13,0l1.91-.94a.83.83,0,0,1,.08.12v0a1.65,1.65,0,0,0-1.33.93l-.06,0a.26.26,0,0,0-.38.06.27.27,0,0,0,0,.38l.23.17v.14a1,1,0,0,0,0,.25l-1.26-.9a.27.27,0,0,0-.38.06.28.28,0,0,0,.06.39L4.92,7.59a2.34,2.34,0,0,0-.35.29L3,6.89A.28.28,0,0,0,2.65,7a.29.29,0,0,0,.08.38l1.43.91L4,8.43H4a.25.25,0,0,0-.12.11L2.65,8a.28.28,0,0,0-.37.13.29.29,0,0,0,.14.37L3.58,9c-.1.15-.19.31-.28.47l-.83-.33a.27.27,0,1,0-.2.5l.79.33c-.06.12-.11.25-.17.39l-.73-.11a.27.27,0,0,0-.31.23.27.27,0,0,0,.23.31l.64.09-.12.42L2,11.39a.28.28,0,0,0,0,.55H2l.46-.06-.06.35a.27.27,0,0,0,.23.31h0A.27.27,0,0,0,3,12.31c0-.23.08-.45.13-.67,0,0,0,0,0-.06s0-.06,0-.09l.19.32a.27.27,0,0,0,.23.14.23.23,0,0,0,.14,0,.27.27,0,0,0,.1-.37l-.45-.78c.07-.19.14-.37.22-.55l.33.82a.27.27,0,0,0,.25.17l.1,0,.08,0a23.41,23.41,0,0,0-.85,6,.46.46,0,0,0,.46.46H6.67A.46.46,0,0,0,7,17.45a.45.45,0,0,0,.1-.37A15.24,15.24,0,0,1,8.05,9.4a1.71,1.71,0,0,0,.54-.22.28.28,0,0,0,.19.16h.06a.27.27,0,0,0,.27-.21l.28-1.22a1.43,1.43,0,0,0,.34-.14l.1.07L9.23,10a.27.27,0,0,0,.19.34h.07a.27.27,0,0,0,.26-.2l.56-2,.24.22L10,10a.27.27,0,0,0,.17.35l.09,0a.28.28,0,0,0,.26-.18L11,8.86l.16.21-.35,1.14a.28.28,0,0,0,.18.34H11a.28.28,0,0,0,.27-.19l.2-.68c.07.13.13.26.19.39l-.33.72a.28.28,0,0,0,.13.36l.12,0a.28.28,0,0,0,.25-.16L12,10.8a.14.14,0,0,0,0,.06c.06.19.11.38.16.58a.27.27,0,0,0,.26.21h.07a.28.28,0,0,0,.2-.33c0-.09,0-.18-.07-.27l.37,0h0a.28.28,0,0,0,.27-.26.27.27,0,0,0-.26-.29l-.57,0-.12-.31.53-.13a.26.26,0,0,0,.2-.32.28.28,0,0,0-.33-.21l-.62.15L12,9.38l.65-.33a.28.28,0,0,0-.25-.49l-.68.35-.25-.35,1-.53a.27.27,0,0,0,.11-.37.28.28,0,0,0-.37-.11l-1,.58A.2.2,0,0,0,11,8.05h0L10.85,8,12,7a.27.27,0,1,0-.33-.43l-1.27,1a2,2,0,0,0-.25-.18l.12-.16,1.27-1.09a.27.27,0,1,0-.36-.41l-.63.54A1.66,1.66,0,0,0,8.92,4.68a1.09,1.09,0,0,0-.26,0l.07-.15a.34.34,0,0,0,.06-.12l.06-.11,1.86.75.1,0a.27.27,0,0,0,.25-.17.28.28,0,0,0-.15-.36L9.15,3.86l.06-.09a.39.39,0,0,0,.08-.1,2.17,2.17,0,0,1,.24-.29L12,4.5a.2.2,0,0,0,.11,0,.27.27,0,0,0,.25-.16A.28.28,0,0,0,12.22,4L9.94,3a4.08,4.08,0,0,1,.39-.31l1.75,1a.33.33,0,0,0,.13,0,.28.28,0,0,0,.24-.15.27.27,0,0,0-.1-.37l-1.5-.83.38-.2,1.28.62a.27.27,0,0,0,.12,0,.28.28,0,0,0,.25-.16.26.26,0,0,0-.13-.36l-.85-.42c.19-.07.4-.14.62-.2l.79.53a.3.3,0,0,0,.15,0,.27.27,0,0,0,.23-.12.28.28,0,0,0-.07-.38l-.36-.24a8.39,8.39,0,0,1,.91-.11.28.28,0,0,0,.25-.3.26.26,0,0,0-.29-.25l-.4,0,.1-.5A.27.27,0,0,0,13.3.22l-.14.69-.47.1,0-.69a.28.28,0,1,0-.55,0l.06.79-.44.15L11.42.44a.27.27,0,0,0-.35-.18.28.28,0,0,0-.17.35l.3.9c-.19.09-.37.18-.54.28L10.19.52A.27.27,0,0,0,9.84.36a.27.27,0,0,0-.16.35l.5,1.35a.24.24,0,0,0-.13.11,0,0,0,0,0,0,0l-.19.15L9,.77A.28.28,0,0,0,8.61.66.26.26,0,0,0,8.5,1l.93,1.69c-.13.13-.25.25-.36.38L7.87,1.15a.29.29,0,0,0-.38-.09.3.3,0,0,0-.13.2l0,0A.27.27,0,0,0,7,1.35L5.8,3.52a5.33,5.33,0,0,0-.42-.4l.86-1.87A.28.28,0,0,0,6.11.89.29.29,0,0,0,5.74,1L4.93,2.78,4.7,2.62s0,0,0,0a.36.36,0,0,0-.16-.11L5,1A.28.28,0,0,0,4.78.66a.27.27,0,0,0-.34.19L4,2.25A5,5,0,0,0,3.41,2l.26-1A.28.28,0,0,0,3.13.85l-.24,1-.51-.14V.82A.28.28,0,0,0,2.11.54h0a.29.29,0,0,0-.28.28v.75L1.3,1.5,1.1.77A.27.27,0,0,0,.57.91l.15.55-.44,0h0A.28.28,0,0,0,0,1.72.27.27,0,0,0,.27,2Zm8,2.41c-.08.16-.14.31-.2.44L8,4.74l0-.11a.28.28,0,0,0-.11-.37.29.29,0,0,0-.24,0L7.52,4a.26.26,0,0,0-.24-.13l.28-.51ZM7,9.5c-.12.35-.25.73-.36,1.15s-.2.76-.29,1.17-.14.75-.19,1.15-.1.91-.12,1.39,0,.75,0,1.14,0,.79.09,1.19H4.38c0-.28,0-.69.08-1.19,0-.34.07-.73.12-1.14s.13-.91.22-1.39.17-.76.27-1.15a12.14,12.14,0,0,1,.36-1.17,1.55,1.55,0,0,1,.08-.23l.08.21v0a.28.28,0,0,0,.25.15h.09a.29.29,0,0,0,.15-.14.28.28,0,0,0,0-.22l-.28-.74.09-.19c.06-.13.13-.25.2-.38l.1.31a.43.43,0,0,0,0,.07.29.29,0,0,0,.22.12l.09,0a.28.28,0,0,0,.14-.1.26.26,0,0,0,0-.24l-.05-.17a1.52,1.52,0,0,0,.41.24C7.07,9.38,7.05,9.44,7,9.5ZM6.37,5.8a.74.74,0,0,1,.69.47,1.68,1.68,0,0,0-.91,1A.73.73,0,0,1,6.37,5.8Zm-1,2.08A1.64,1.64,0,0,0,5.71,8c-.11.17-.22.33-.32.51L5.2,8Zm-.66.54.29.77c-.07.14-.14.28-.2.42l-.4-.86Zm2.94.11a.74.74,0,1,1,.73-.74A.74.74,0,0,1,7.7,8.53Zm2-2.2a.75.75,0,0,1-.51.7,1.69,1.69,0,0,0-1-.81.72.72,0,0,1,.72-.62A.74.74,0,0,1,9.66,6.33Zm-2.61-2h0l.27.43-.17.32A1.48,1.48,0,0,0,6.87,5a1.09,1.09,0,0,0-.08-.15Zm-2.67,6.5L3.87,9.57l.21-.33.5,1.07c-.07.18-.13.36-.19.54A0,0,0,0,0,4.38,10.82ZM7.43,1.6l0-.07,1.26,2a2.61,2.61,0,0,0-.2.3L7.66,2.55a.27.27,0,0,0-.38-.08.27.27,0,0,0-.08.38l0,0-.78,1.4L6.2,4Z"/></g></g></svg>