<svg xmlns="http://www.w3.org/2000/svg" viewBox="0 0 14.6 17.74"><defs><style>.cls-1{fill:#272525;}</style></defs><title>Recurso 29</title><g id="Capa_2" data-name="Capa 2"><g id="Capa_1-2" data-name="Capa 1"><path class="cls-1" d="M10.67,17.65h0a.32.32,0,0,0,.23-.09l3.55-3.34a.35.35,0,0,0,.1-.24.42.42,0,0,0,0-.2V1.4A1.4,1.4,0,0,0,13.2,0H1.4A1.4,1.4,0,0,0,0,1.4V16.34a1.4,1.4,0,0,0,1.4,1.4h9A.37.37,0,0,0,10.67,17.65ZM11,16.56V15.27a1,1,0,0,1,1-1h1.42ZM10,17H1.4a.63.63,0,0,1-.62-.63V1.4A.62.62,0,0,1,1.4.78H13.2a.63.63,0,0,1,.63.62v12H12a2,2,0,0,0-2,2Z"/><path class="cls-1" d="M3,5.16h8.56A.39.39,0,0,0,12,4.78v-.7a.4.4,0,0,0-.39-.39H3a.39.39,0,0,0-.38.39v.7A.38.38,0,0,0,3,5.16Zm.08-1h8.4V4.7H3.1Z"/><path class="cls-1" d="M3,7.6h8.56A.39.39,0,0,0,12,7.21V6.52a.39.39,0,0,0-.39-.39H3a.38.38,0,0,0-.38.39v.69A.38.38,0,0,0,3,7.6Zm.08-1h8.4v.54H3.1Z"/><path class="cls-1" d="M12,9.65V9a.4.4,0,0,0-.39-.39H3A.39.39,0,0,0,2.64,9v.7A.39.39,0,0,0,3,10h8.56A.4.4,0,0,0,12,9.65Zm-.47-.08H3.1V9h8.4Z"/></g></g></svg>