<svg xmlns="http://www.w3.org/2000/svg" viewBox="0 0 21.48 14.25"><defs><style>.cls-1{fill:#272525;}</style></defs><title>Recurso 23</title><g id="Capa_2" data-name="Capa 2"><g id="Capa_1-2" data-name="Capa 1"><path class="cls-1" d="M6.22,13.88a.38.38,0,0,0,.37.37h8.23a.37.37,0,0,0,.37-.36,6.56,6.56,0,0,0-.09-1.3h6a.37.37,0,0,0,.37-.36c0-.13.08-3.14-1.81-4.87a.38.38,0,0,0-.48,0,3.54,3.54,0,0,1-4.26,0,.37.37,0,0,0-.48,0A5.41,5.41,0,0,0,13.28,9a.36.36,0,0,0-.37.05A3.5,3.5,0,0,1,8.64,9a.4.4,0,0,0-.35-.07A4.94,4.94,0,0,0,7.17,7.36a.38.38,0,0,0-.48,0,3.56,3.56,0,0,1-4.27,0,.37.37,0,0,0-.48,0A6.75,6.75,0,0,0,0,12.22a.36.36,0,0,0,.11.26.36.36,0,0,0,.26.11h6A8.45,8.45,0,0,0,6.22,13.88Zm8.51-5.76a4.21,4.21,0,0,0,4.64,0,6.17,6.17,0,0,1,1.36,3.74H15a6.15,6.15,0,0,0-1.1-2.34A5.59,5.59,0,0,1,14.73,8.12ZM8.44,9.78a4.22,4.22,0,0,0,4.65,0,6.23,6.23,0,0,1,1.35,3.74H7A6.34,6.34,0,0,1,8.44,9.78ZM.76,11.85A6.31,6.31,0,0,1,2.22,8.12a4.22,4.22,0,0,0,4.65,0,4.52,4.52,0,0,1,.85,1.38,6.75,6.75,0,0,0-1.21,2.36Z"/><path class="cls-1" d="M1,3.52A3.53,3.53,0,0,0,4.49,7h0A3.53,3.53,0,0,0,7,6l.25-.29a3.53,3.53,0,0,0,3.48,3h0a3.49,3.49,0,0,0,3.48-3.06A3.52,3.52,0,0,0,17,7h0a3.52,3.52,0,1,0-2.49-6,3.47,3.47,0,0,0-1,2,3.51,3.51,0,0,0-5.29-.37C8.13,2.79,8,2.88,8,3a3.52,3.52,0,0,0-7,.54ZM15,1.56a2.75,2.75,0,0,1,2-.82,2.78,2.78,0,0,1,2,4.74,2.75,2.75,0,0,1-2,.82h0a2.78,2.78,0,0,1-2-4.74ZM8.75,3.22a2.73,2.73,0,0,1,2-.82,2.78,2.78,0,0,1,2.77,2.78A2.78,2.78,0,0,1,10.71,8h0A2.79,2.79,0,0,1,7.93,5.18,2.73,2.73,0,0,1,8.75,3.22ZM4.49.74A2.78,2.78,0,0,1,7.26,3.52,2.78,2.78,0,0,1,4.49,6.3h0A2.79,2.79,0,0,1,1.71,3.52a2.73,2.73,0,0,1,.82-2A2.73,2.73,0,0,1,4.49.74Z"/></g></g></svg>