<svg xmlns="http://www.w3.org/2000/svg" viewBox="0 0 52.12 45.07"><title>Recurso 5</title><g id="Capa_2" data-name="Capa 2"><g id="Capa_1-2" data-name="Capa 1"><path d="M48,27.77s-.06,0-.07.08c-.08.48-.18.52-.56.25l-.55-.35c-.07.46-.21.53-.61.29-.16-.1-.27-.16-.46,0s-.54,0-.65.33a.8.8,0,0,0-.73.28c-.14.12-.37,0-.52-.07s0-.26,0-.39A.18.18,0,0,0,44,28c-.12-.05-.12.05-.15.11-.18.32-.35.34-.59.07s-.29-.35-.46-.51a.91.91,0,0,1-.09.79c-.08.09-.14.24-.29.19s-.16-.19-.13-.34,0-.39-.27-.44a.84.84,0,0,1-.06.39.24.24,0,0,1-.28.15c-.52-.08-1,.2-1.52.16-.12,0-.19.12-.26.2s-.22.19-.31,0-.29-.22-.49-.14A.81.81,0,0,1,38,28.09c-.08-.22-.14-.45-.41-.15-.07.08-.19.06-.3.06-.4,0-.5.1-.42.5a.84.84,0,0,0,.21.35.32.32,0,0,1,0,.4c-.09.14-.22.1-.35.06a.75.75,0,0,1-.45-.44c0-.09-.11-.18-.21-.15s0,.14,0,.21a.33.33,0,0,1-.2.32.32.32,0,0,1-.35-.05.54.54,0,0,0-.87.15c-.06.09-.11.2-.18.29a.55.55,0,0,1-.71.21.33.33,0,0,0-.48.3c0,.26-.16.37-.41.31s-.21-.14-.35-.11c0,.12.14.07.21.1a.29.29,0,0,1,.19.26.26.26,0,0,1-.16.25.25.25,0,0,1-.3-.08c-.11-.11-.18-.25-.38-.3,0,.19,0,.38-.22.47s0,.12,0,.2a2.26,2.26,0,0,1,0,.37c0,.12-.11.16-.22.17s-.16-.07-.18-.17,0-.28-.16-.27-.21.15-.27.26a.13.13,0,0,0,0,.06c0,.16,0,.36-.22.34s-.25-.21-.24-.4,0-.22-.14-.25-.18.07-.24.15a.35.35,0,0,0-.05.08c-.29.69-.83.51-1.2.07-.17-.19-.26-.2-.46-.09a3.16,3.16,0,0,1-1.09.61.08.08,0,0,0-.07.09c0,.34-.22.42-.57.52.26,0,.39.11.42.28a.34.34,0,0,1-.07.32c-.09.09-.18.06-.28,0s-.19,0-.16.12,0,.21-.12.19c-.31,0-.48.21-.68.38s-.21.21-.33,0-.21,0-.28,0a3.24,3.24,0,0,0-.38.36c-.26.26-.29.25-.44-.07,0,.26-.09.41-.41.46s-.27-.1-.25-.29-.07-.13-.15-.07a.41.41,0,0,1-.48.07s-.35-.11-.18.18a.24.24,0,0,1-.07.29c-.08.09-.17,0-.24,0s-.19,0-.29,0c-.33.2-.33.19-.59-.09a.4.4,0,0,1-.25.39.24.24,0,0,1-.26,0c-.09-.09,0-.17,0-.25s.12-.13.05-.22a.11.11,0,0,0-.08,0c-.08,0-.06.12-.07.19s0,.31-.22.32-.25-.12-.23-.3,0-.09-.09-.1a.11.11,0,0,0-.13.06c-.07.1-.06.32-.22.29a1.22,1.22,0,0,1-.5-.27c-.21-.19-.31-.21-.47,0s-.12.15-.23.11-.1-.12-.08-.21a.34.34,0,0,0-.11-.36c-.11,0-.24.08-.34.16-.32.24-.49.17-.53-.22l-.26.07c-.12,0-.18.13-.06.23s.11.26,0,.37a.19.19,0,0,0-.09.15.46.46,0,0,1-.25.54c-.11.06-.06.23-.06.35,0,2.7,0,5.41,0,8.11v.34c0,.33-.12.42-.45.34s-.74-.2-1.1-.31c-.17,0-.32-.07-.45.1a.55.55,0,0,1-.47.17,2.06,2.06,0,0,0-.92.1c-.19.08-.33-.07-.46-.19a.25.25,0,0,0-.42,0c-.29.28-.52.27-.77-.06s-.47-.51-.88-.32c-.18.08-.25-.1-.32-.22a1,1,0,0,0-.64-.57.58.58,0,0,0-.67.24c-.05.08-.11.15-.15.23s-.2.35-.45.28a.51.51,0,0,1-.42-.5,2.81,2.81,0,0,0-.06-.65c-.16-.52-.47-.66-1-.42S7,43,6.66,42.69a.54.54,0,0,0-.55-.17c-.54.1-.79-.33-1-.68a3.66,3.66,0,0,1-.4-1.29,3.92,3.92,0,0,0-.48-1.2A1.66,1.66,0,0,1,4,38.1a3.35,3.35,0,0,0-.46-2.21,2.18,2.18,0,0,1-.23-1c0-.5,0-1,0-1.51a1.17,1.17,0,0,0-.19-.57A.65.65,0,0,1,3,32a4.5,4.5,0,0,1,.72-.85,1.45,1.45,0,0,0,.52-1.44,1.79,1.79,0,0,0-1.46-1.67.94.94,0,0,1-.63-.37,2.14,2.14,0,0,0-1.65-.89c-.18,0-.4,0-.49-.15s.13-.24.19-.38A3.42,3.42,0,0,1,1.47,25a.37.37,0,0,1,.37-.05.56.56,0,0,0,.77-.47,1.39,1.39,0,0,1,.47-.87c.2-.17.15-.42.24-.63s.47-.56.64-.9a2.07,2.07,0,0,0,.26-.9c0-.67,0-1.34.07-2a1,1,0,0,1,.22-.66A7.61,7.61,0,0,1,6.23,16.7s.1-.09.15-.09c.29,0,.31-.18.34-.42s.25-.38.38-.56A5.37,5.37,0,0,1,7.74,15a.35.35,0,0,1,.51,0,2.32,2.32,0,0,0-.17-.56c-.08-.2-.1-.38.21-.37.14,0,.2-.11.24-.21.18-.48.58-.82.77-1.29a.4.4,0,0,1,.48-.25,1.67,1.67,0,0,1,.75.12c.19.11.53-.1.68-.37a.64.64,0,0,1,.49-.41c.12,0,.13-.12.18-.19.29-.47.48-.48.93-.3.08,0,.11,0,.15-.05a1.74,1.74,0,0,0,.14-.27.43.43,0,0,1,.54-.32c.07,0,.17,0,.21,0a1.15,1.15,0,0,1,.85-.37.09.09,0,0,0,.06-.06c.1-.42.41-.3.66-.23s.29,0,.21-.22a.6.6,0,0,1,0-.42c.06-.14,0-.2-.13-.27s-.26-.15-.24-.3a3.32,3.32,0,0,0-.16-1A.65.65,0,0,0,15,7.39a.47.47,0,0,1,.07-.69,1.29,1.29,0,0,1,.58-.33c.11,0,.21,0,.24-.16.22-.79.6-.93,1.23-.42a1.15,1.15,0,0,0,.07-.47c-.06-.2.07-.26.17-.35a.28.28,0,0,1,.37,0A.42.42,0,0,0,18,5.1c.24,0,.22.19.25.32s.13.33-.06.47c-.37.27-.4.43-.12.77a.69.69,0,0,1,.16.47.71.71,0,0,0,.15.5,1,1,0,0,1,.17.52,1.1,1.1,0,0,0,0,.18,1.25,1.25,0,0,0,1.12.31,1.78,1.78,0,0,1,1.44-.43c.36.06.7.21,1.07.27.18,0,.35.1.53.13a.8.8,0,0,1,.61.41A1.15,1.15,0,0,0,24,9.4c.18.08.15-.11.16-.18.09-.59.19-1.18.26-1.77,0-.39.13-.76.19-1.13.19-1,.34-2.07.5-3.11l.09-.52s0-.1.1-.1.1.07.1.13a1.48,1.48,0,0,1,0,.21.48.48,0,0,0,.33.54c.53.19.68.65.84,1.1a1.92,1.92,0,0,0,.56,1,2.18,2.18,0,0,1,.25.28,2.61,2.61,0,0,0,1.11.86s.05,0,.05,0c0,.31.4.36.4.66,0,.08.06.09.11.13s.17.14-.06.3a2.45,2.45,0,0,1,.83.7c.11.1.17.14.26,0,.21-.29.47-.25.74-.12s.31.12.45,0a.07.07,0,0,1,.05,0c.41.1.46-.31.66-.49s.17-.14.27-.06.56.19.82.33a.2.2,0,0,0,.23,0,.53.53,0,0,1,.14-.12c.38-.28.47-.25.63.21a1.07,1.07,0,0,1,.54-.27l.06,0c.09-.34.47-.35.65-.6A1.41,1.41,0,0,1,35.65,7a1.41,1.41,0,0,0,.46-.3.29.29,0,0,1,.32-.07,2.11,2.11,0,0,0,.79,0,1.76,1.76,0,0,1,1.32.4,1.15,1.15,0,0,0,.79.31A.66.66,0,0,0,40,7a1.64,1.64,0,0,1,.55-.56s.07,0,.07-.06c.11-.42.55-.54.78-.85s.53-.45.66-.8c.05-.14.25-.15.39-.1a1.26,1.26,0,0,0,1.13-.11,4.32,4.32,0,0,0,1.25-.69,2.46,2.46,0,0,1,1.07-.56A8,8,0,0,1,47,2.79a.75.75,0,0,0,.24-.14c.26-.2.49-.45.88-.39a.52.52,0,0,0,.47-.21,1.31,1.31,0,0,1,1.14-.56A2.05,2.05,0,0,0,51,.8c.27-.27.63-.42.85-.74.09-.12.19,0,.21.08a1.32,1.32,0,0,1,0,.28v27c0,.13,0,.34-.11.39s-.44.18-.64,0-.13-.05-.21,0a.22.22,0,0,1-.37,0c-.22-.34-.41-.12-.56,0s-.37.29-.67.07a.13.13,0,0,0-.19,0c-.21.13-.32,0-.39-.18l0-.15c0-.11,0-.3-.18-.27s0,.18,0,.27a.58.58,0,0,1-.15.36c-.08.09-.16.18-.29.15s-.14-.13-.15-.24S48.09,27.78,48,27.77ZM20.21,10.58a.93.93,0,0,0,.79.15,6,6,0,0,1,1.19-.05c.41,0,.78-.13,1.18-.1a.88.88,0,0,0,.83-.28,5.38,5.38,0,0,0-1.5,0l0,0a3.09,3.09,0,0,1-.79.22,4.52,4.52,0,0,1-1.68,0c-.36-.46-.81-.83-1.13-1.32C19,9.13,18.89,9,18.68,9s-.14,0-.19-.12a1.51,1.51,0,0,1-.36-1.07,1.76,1.76,0,0,0-.27-1.17c-.07-.08-.14-.12-.17,0-.07.31-.33.6,0,.93a.44.44,0,0,1,0,.68c-.17.21-.31.51,0,.76a.2.2,0,0,1,.05.26c-.24.29,0,.39.18.51a1.69,1.69,0,0,0,.36.17c.29.08.51.34.81.35a1.55,1.55,0,0,1,.68.16A1.29,1.29,0,0,0,20.21,10.58ZM51.94,21.07v-.41q0-9.94,0-19.89c0-.12.07-.29,0-.35s-.12.15-.21.21l-.05,0c-.33,0-.47.31-.69.48a2,2,0,0,1-.85.48c-.5.09-1,.07-1.36.58a.27.27,0,0,1-.15.1c-.5.17-1,.43-1.46.61a3.92,3.92,0,0,1-1.69.58c-.12,0-.2.12-.26.21a2.33,2.33,0,0,1-1,.67c-.3.15-.62.26-.92.43a.54.54,0,0,1-.41.07c-.36-.11-.64-.2-.92.27s-.87.8-1.21,1.31a.73.73,0,0,1-.09.08A1.61,1.61,0,0,0,40.2,7a.84.84,0,0,1-.85.45.66.66,0,0,0-.36.06.32.32,0,0,1-.46-.11c-.09-.15-.19-.15-.36-.11a1,1,0,0,0-.77,1c-.12.59-.23,1.17-.38,1.74a.69.69,0,0,1-.31.48c-.16.1-.1.17,0,.26l.19.14c.41.4.46.4,1,.15.07,0,.13-.13.22-.07s0,.17,0,.26-.18.33-.19.54-.24.51-.44.73-.44.27-.25.57c.05.08.06.2,0,.2-.27,0-.4.07-.25.36,0,.06,0,.13-.1.18a.3.3,0,0,0-.12.2c0,.11,0,.25-.13.28s-.08-.18-.23-.21c0,.22,0,.52-.33.47a.19.19,0,0,0-.05.1c0,.26-.23.39-.32.6s.25.1.18.23-.08.53-.21.76a.17.17,0,0,0,0,.25c.18.16.06.3,0,.42a.39.39,0,0,0-.07.52.17.17,0,0,1,0,.19c-.11.26-.48.38-.42.73,0,0,0,.05-.06.06-.41.17-.41.17-.29.57,0,.1.12.23,0,.28-.32.11-.37.35-.37.64a.13.13,0,0,1,0,.09c-.4.26-.2.51,0,.75a2.75,2.75,0,0,1,.22.26.24.24,0,0,0,.21.09c.27,0,.53,0,.8,0a1.47,1.47,0,0,1,.72.06,1,1,0,0,1,.49.74c.09.48.26.53.66.24a1.35,1.35,0,0,1,.79-.3.19.19,0,0,0,.17-.1,1.8,1.8,0,0,1,.75-.47,2.44,2.44,0,0,0,.43-.21A4.21,4.21,0,0,1,41,20.61c.18-.06.39,0,.58-.07a.12.12,0,0,1,.16.06c.14.25.29.13.45,0s.24-.27.41-.25c.39,0,.59-.33.92-.44s.64-.54,1.11-.28a.23.23,0,0,0,.18,0,.73.73,0,0,1,.67.08,1.08,1.08,0,0,0,1,.12,2.23,2.23,0,0,1,.9-.3c.26,0,.52,0,.79,0a.87.87,0,0,1,.86.34.24.24,0,0,0,.43,0,.57.57,0,0,1,.61-.1c.06,0,.11.06.19.05a.72.72,0,0,1,.71.48.54.54,0,0,0,.59.47A.47.47,0,0,1,51.94,21.07Zm-9.46,7.32a.52.52,0,0,0,.11-.59c-.05-.11-.08-.22,0-.3s.24,0,.33.07.26.32.4.47.23.21.3,0,.18-.29.37-.21.16.25.09.41-.14.17,0,.24.22.06.29-.06a.58.58,0,0,1,.48-.25c.07,0,.16,0,.15-.12s.16-.23.34-.2.21.14.29.05c.23-.29.44-.14.67,0s.31.13.29-.16a.22.22,0,0,1,.12-.25c.11,0,.17.05.23.12a4.24,4.24,0,0,0,.56.38c.06,0,.11.11.19.06s.06-.13,0-.2.06-.23.19-.28a.22.22,0,0,1,.3.14c0,.06,0,.15.14.11s.08-.11.09-.19,0-.14,0-.21a.27.27,0,0,1,.22-.29.26.26,0,0,1,.32.17,1.13,1.13,0,0,1,.08.24c0,.16.1.27.3.15a.18.18,0,0,1,.25,0c.17.25.29.17.44,0a1.31,1.31,0,0,1,.39-.32c.2-.1.28.15.39.28s.12.05.15,0c.12-.33.26-.22.41,0a.25.25,0,0,0,.33.09c.14,0,.18-.15.17-.29s0-.06,0-.09c0-1.84,0-3.69,0-5.54a1,1,0,0,0-.16-.58A.33.33,0,0,0,51.5,21a.74.74,0,0,1-.72-.51.89.89,0,0,0-1.16-.43.57.57,0,0,1-.83-.09,1,1,0,0,0-.81-.24.9.9,0,0,1-.46,0,.85.85,0,0,0-.62.1c-.39.18-.83.43-1.24.12s-.93,0-1.34-.28c-.06,0-.14,0-.2.06L43,20.41c-.08.05-.17.12-.25.11a.62.62,0,0,0-.51.23c-.18.16-.38.26-.6.06s-.18,0-.27,0c-.38-.06-.7.23-1.08.18-.06,0-.12,0-.17.07a5.54,5.54,0,0,1-.85.41,1.71,1.71,0,0,0-.72.5c0,.06-.09.13-.17.11a1.23,1.23,0,0,0-.9.32c-.4.25-.57.19-.73-.23a2.5,2.5,0,0,1-.11-.39.51.51,0,0,0-.5-.43,5,5,0,0,0-.67,0,1.13,1.13,0,0,1-1.25-.56c0-.08-.11-.21-.22-.17a.31.31,0,0,0-.26.24c0,.15-.13.23-.23.34-.25.26-.63.32-.89.58s-.7.14-1,.06c-.13,0-.2-.1-.32,0s-.3,0-.36.15-.19.19-.3.26c-.27.18-.62.18-.91.34s-.4.22-.61,0c0,0-.11,0-.14,0a1.13,1.13,0,0,1-.88.1.59.59,0,0,0-.64.62c0,.3.24.64,0,.89s.12.59,0,.87a.27.27,0,0,0,0,.13c0,.33-.18.67.05,1a.36.36,0,0,1-.06.4c-.21.24,0,.51-.06.76,0,.06.08.15.17.17s.67-.22.65-.4c0-.45.4-.73.36-1.16a.14.14,0,0,1,.15-.16c.1,0,.11.11.12.19a.33.33,0,0,0,.14.26,9.91,9.91,0,0,1,1.69,1.55s0,.06,0,.08.07.16.16.25.42.21.6.35a9,9,0,0,1,1,.84c.09.09.18.19.33,0s.29-.05.43,0,.32.19.48.28.46.14.65-.18a1.08,1.08,0,0,1,.21-.3c.4-.34.73-.49,1-.19.06.08.13.18.25.12s.07-.17,0-.28a.23.23,0,0,1,.12-.26.24.24,0,0,1,.29,0,.78.78,0,0,1,.27.3.69.69,0,0,0,.16.22c.08.06.18.14.27,0s0-.17,0-.24a.8.8,0,0,1-.2-.57c0-.38.19-.55.56-.49a.3.3,0,0,0,.35-.12c.16-.23.33-.13.46,0a1,1,0,0,1,.14.31.62.62,0,0,0,.89.42.52.52,0,0,1,.54,0c.16.14.26.18.41,0a.18.18,0,0,1,.11,0l1.49-.2c.08,0,.19,0,.21-.07s-.08-.13-.16-.14-.14,0-.15-.08.06-.13.13-.15a.77.77,0,0,1,.72,0A.54.54,0,0,1,42.48,28.39ZM19.79,34.77a.85.85,0,0,1,0-.35,2.29,2.29,0,0,0-.05-1.19c-.05-.18-.15-.28-.33-.21s-.26-.07-.36-.18a.22.22,0,0,1,0-.3.38.38,0,0,0,0-.41c-.14-.36-.54-.53-.64-.92,0-.09-.14-.07-.22,0l-4.95,1.34a.89.89,0,0,0-.37.14c-.11.12-.18.09-.24-.06s-.4-.32-.61-.48a.19.19,0,0,0-.29.13.13.13,0,0,1-.19.09,2.09,2.09,0,0,0-1-.16c-.5,0-1-.16-1.49.15a.19.19,0,0,1-.23,0c-.13-.18-.28-.1-.44-.05a2.69,2.69,0,0,1-1.05.11,1,1,0,0,0-.57.06.85.85,0,0,1-.42.11.94.94,0,0,0-.69.57,1.64,1.64,0,0,1-.26.62c-.11.23-.26.25-.48.2L4,33.66c-.49-.12-.49-.11-.5.38a1.28,1.28,0,0,0,0,.19A2.68,2.68,0,0,0,3.81,36a.65.65,0,0,1,.12.31,3.78,3.78,0,0,1,.2,1.94.56.56,0,0,0,0,.13,2.06,2.06,0,0,0,.35,1.06A6.74,6.74,0,0,1,5,41.25a1.71,1.71,0,0,0,.57.93.51.51,0,0,0,.53.16.57.57,0,0,1,.59.16c.36.36.42.36.86.16a.69.69,0,0,1,.94.26,1.41,1.41,0,0,1,.21.89.39.39,0,0,0,.24.45c.24.08.27-.14.35-.27.37-.53.63-.62,1.2-.4.26.1.36.33.5.53s.09.21.23.16a.78.78,0,0,1,1,.4c.15.21.33.3.53.06a.39.39,0,0,1,.64,0c.11.11.23.21.41.13a1.54,1.54,0,0,1,.85-.1.39.39,0,0,0,.39-.14.42.42,0,0,1,.5-.13l.89.26c.48.15.51.13.51-.37,0-2.81,0-5.63,0-8.44a2.09,2.09,0,0,1,0-.25.27.27,0,0,1,.05-.13c.34.08.17-.17.21-.31s.2-.34.07-.57.11-.2.21-.27.19-.08.28-.14.23,0,.31.13-.07.19.05.26c.15-.1.32-.19.46-.3s.3-.08.34.09.23.27.42.21A.36.36,0,0,1,19.79,34.77ZM9.28,15.86a1.87,1.87,0,0,1-1.76.64.37.37,0,0,1-.31-.2A.13.13,0,0,0,7,16.22a.15.15,0,0,0-.11.14c0,.31-.15.38-.41.4a.71.71,0,0,0-.24.13,7.88,7.88,0,0,0-1.59,1.67.82.82,0,0,0-.19.57c0,.44,0,.89,0,1.33A3.39,3.39,0,0,1,4,22.3c-.15.24-.42.39-.5.69A2,2,0,0,1,3,24a.75.75,0,0,0-.15.46.79.79,0,0,1-1,.68.32.32,0,0,0-.3,0,3.76,3.76,0,0,0-1.1,1.11c-.19.36-.19.37.21.42A1.85,1.85,0,0,1,2,27.26,1.94,1.94,0,0,0,3.17,28c1.09.26,1.91,2.34.72,3.3a3.69,3.69,0,0,0-.72.85.53.53,0,0,0,0,.53c.34.71.34.71,1.13.92l.42.11c.48.13.68,0,.77-.44a1.13,1.13,0,0,1,.46-.71c.35-.29.84-.23,1.22-.42,0,0,.1,0,.14,0a.32.32,0,0,0,.27,0c.35-.1.75,0,1.07-.21a.14.14,0,0,1,.09,0c.18.24.36.1.57,0a1.52,1.52,0,0,1,.6-.07c.33,0,.66,0,1,0s.57.13.89,0,.55.12.78.29.23.21.5.08c-.07,0-.15-.08-.21-.13a6.46,6.46,0,0,0-.71-.67c-.16-.13-.45-.22-.45-.47a3.81,3.81,0,0,0-.44-1.28c-.07-.18-.24-.3-.35-.47a4.61,4.61,0,0,0-.69-.89c-.34-.29-.42-.35-.31-.79a.7.7,0,0,0,0-.38,7,7,0,0,1-.56-1.78,1.35,1.35,0,0,0-.16-.53C9,24.5,9,24,8.75,23.57c0,0,0-.1,0-.15a2.56,2.56,0,0,0-.28-1.24.8.8,0,0,1-.17-.72,1.66,1.66,0,0,0,0-1.24.29.29,0,0,1,0-.27c.25-.37.22-.85.46-1.23s.09-.75.27-1.1c0-.07,0-.13-.08-.18a.26.26,0,0,1-.05-.29c.16-.25.16-.55.33-.79A.4.4,0,0,0,9.28,15.86Zm11,5.3a.65.65,0,0,0,.13-.42.44.44,0,0,1,.09-.35,1.27,1.27,0,0,0,.29-.62c.12-.38.4-.47.76-.28a3.6,3.6,0,0,0,.54.22.49.49,0,0,1,.23.15,1.78,1.78,0,0,0,.57.52c.11.05.26.15.19.34s0,.13.07.2a1.05,1.05,0,0,0,.84.48c.46,0,.54.41.79.61a1.74,1.74,0,0,0,.82.44,1.59,1.59,0,0,1,.39.08,1.7,1.7,0,0,0,.77.08c.38,0,.71-.19,1.11-.14a2.69,2.69,0,0,0,.85,0c.23,0,.43-.25.68,0,0,0,.12,0,.16-.05s.39-.09.44-.33c0,0,.1,0,.17,0,.26.1.42-.06.57-.22s.11-.15.21-.15a.57.57,0,0,0,.47-.2c.06-.08.18-.11.22,0,.1.28.34.2.49.15s.42,0,.57-.15a2,2,0,0,1,.55-.37c.13-.07.31-.11.32-.26,0-.35.37-.48.52-.75s.28-.34.18-.6a.17.17,0,0,1,.13-.22c.34-.13.27-.39.17-.62s0-.23.09-.27c.35-.08.27-.57.62-.64a.35.35,0,0,1,0-.06A15.11,15.11,0,0,0,35.46,16c-.18.07-.35.13-.51.21a.77.77,0,0,1-.8-.09.94.94,0,0,0-.58-.26,2.06,2.06,0,0,1-.89-.35,3.45,3.45,0,0,0-1-.52,6.78,6.78,0,0,0-1-.27A1.84,1.84,0,0,0,30,14.6c-.26,0-.62,0-.75.28-.21.49-.76.65-1,1.12,0,0-.07,0-.11,0a2.11,2.11,0,0,0-1.52.6c-.15.14-.25.23-.21.42a.35.35,0,0,1-.14.33c-.47.46-.55.44-.74-.19,0-.09,0-.21-.15-.2-.49.05-.66-.29-.84-.65s-.22-.4-.52-.06a1.92,1.92,0,0,0-.18.22,1.14,1.14,0,0,1-.61.39c-.16.07-.24-.11-.36-.18a.29.29,0,0,0-.23,0,.86.86,0,0,1-.57,0,.89.89,0,0,0-.43,0,3,3,0,0,1-1.07-.06,3.49,3.49,0,0,0-1.5-.21.54.54,0,0,1-.44-.11,2,2,0,0,0-.84-.41A16.88,16.88,0,0,1,16,15.27c.06.16.1.26.13.37s0,.25-.18.27c-.43,0-.6.3-.45.7a4.11,4.11,0,0,1,.17.53c.07.31.23.39.51.22s.31,0,.4.14a1.57,1.57,0,0,0,.38.63,5.35,5.35,0,0,1,.7.8,8.06,8.06,0,0,0,1.11,1.43c.15.12.27.23.48.15a.38.38,0,0,1,.43.08C19.86,20.78,20.12,20.9,20.25,21.16Zm5.66-3.63c.14-.17.41-.25.34-.53s.05-.34.23-.44a1.05,1.05,0,0,0,.27-.2,1.5,1.5,0,0,1,.8-.41c.2,0,.46,0,.59-.18a4.85,4.85,0,0,0,1-1,.92.92,0,0,1,.72-.36,3.75,3.75,0,0,1,1.32.23,3.2,3.2,0,0,1,1,.39c.2.13.4.28.61.39a17.52,17.52,0,0,1,1.68.7.33.33,0,0,0,.22,0,4.05,4.05,0,0,0,.81-.33s.08,0,0-.08.12-.38-.06-.54a0,0,0,0,1,0,0c.26-.26.31-.67.67-.87-.08-.1-.3,0-.26-.22s.21-.11.34-.14h.12c.29-.05.41-.2.36-.49,0-.11,0-.22.11-.26.3-.1.27-.41.25-.58s.07-.26.24-.26.2,0,.23-.08-.05-.17-.14-.21-.16-.1-.1-.21a.14.14,0,0,1,.22,0c.24.19.29.06.3-.17a.44.44,0,0,1,0-.15c0-.07.14-.12.06-.21s-.18,0-.25,0a.53.53,0,0,1-.66,0c-.17-.14-.33-.31-.51-.45a.22.22,0,0,1,0-.4.55.55,0,0,0,.31-.46c.08-.56.25-1.1.35-1.66a1.16,1.16,0,0,1,.9-1.11A.14.14,0,0,0,38.25,7c0-.06,0-.08-.1-.1-.38-.11-.76-.35-1.18-.12a.39.39,0,0,1-.21,0,1.38,1.38,0,0,0-1.26.49c-.23.21-.55.34-.71.63,0,.06-.14.08-.22.11a1,1,0,0,0-.38.19c-.21.17-.35.13-.43-.14s-.12-.18-.2-.07c-.29.41-.61.21-.93.08a1.46,1.46,0,0,0-.3-.07c-.29-.06-.41,0-.47.33s-.14.26-.3.16a.26.26,0,0,0-.36,0c-.13.12-.24.05-.37,0s-.54-.19-.76.13c-.1.15-.26.25-.39,0s-.2-.09-.28,0c-.23.36-.33.39-.65.22-.06.22-.15.41-.42.22-.06,0-.12,0-.16.06s-.09.12-.17.11c-.24,0-.33.08-.27.32s-.08.35-.33.32-.2,0-.21.12c-.05.3-.22.41-.5.48s-.36.13-.52-.1c0-.06-.17-.33-.34-.14s-.26.14-.41,0-.27-.21-.44-.1a3.6,3.6,0,0,1-1.3.45,1.83,1.83,0,0,1-.7.05.16.16,0,0,0-.2.15c0,.14.12.07.19.09.22.07.44.14.66.23s.19.17.13.22c-.23.17-.08.41-.14.6a1.69,1.69,0,0,0,.13,1.19c.06.13.13.17.26.14.34-.09.55.15.73.36s0,.38-.16.53,0,.05,0,.08a1.57,1.57,0,0,1-.78.95.74.74,0,0,0-.21.22c-.1.13,0,.49.16.62s.27,0,.35-.15a.41.41,0,0,1,.39-.14c.16,0,.09.15.13.23s.09.19.13.28c.13.28.28.53.66.49a.22.22,0,0,1,.26.17A1.18,1.18,0,0,0,25.91,17.53ZM12.58,29.92a1,1,0,0,1,.55,1c-.08.25-.14.5-.2.76a.48.48,0,0,0,.61.61c1.52-.41,3-.81,4.56-1.24.27-.08.41,0,.5.22a.6.6,0,0,0,.24.35.84.84,0,0,1,.36,1c-.07.23,0,.26.21.24a.31.31,0,0,1,.26,0,1.14,1.14,0,0,1,.28.88c-.12.34.16.55.25.82s.21.11.32.13.3.13.34.4c0-.55.09-.58.51-.43.19.06.4,0,.53.24s.13,0,.19,0a.46.46,0,0,1,.51-.09c-.1-.09-.28,0-.3-.2s.18-.13.28-.18.25-.08.32-.22.2-.12.23,0,.18.15.31.08.32-.11.38.19c0,.06,0,.15.09.13s.18,0,.13-.16-.07-.23.05-.3a.3.3,0,0,1,.36.09s.09.11.15,0a.19.19,0,0,0,0-.14c0-.15-.08-.27-.26-.2s-.17.08-.24,0c-.32-.23-.76-.32-.93-.75,0-.07-.1-.15-.16-.1-.24.15-.38,0-.56-.11a1.22,1.22,0,0,0-.55-.2.59.59,0,0,1-.6-.48,1.85,1.85,0,0,1-.11-1.23.42.42,0,0,0,0-.39.72.72,0,0,1-.08-.62c0-.15,0-.36-.18-.38-.34-.06-.53-.32-.79-.47-.48-.28-.77-.74-1.21-1a.34.34,0,0,1-.09-.12,1.38,1.38,0,0,1,.7-1.07h0c.26,0,.33-.14.34-.34a.68.68,0,0,1,.07-.32.51.51,0,0,0-.14-.64,1.55,1.55,0,0,0-.28-.24c-.26-.13-.26-.34-.22-.58s.09-.27,0-.31c-.34-.11-.58-.55-1-.3-.08.05-.15,0-.22-.06a2.76,2.76,0,0,0-1.43-.35.58.58,0,0,1-.51-.22c-.09-.11-.23-.28-.34-.24-.36.14-.48-.14-.63-.34s-.3-.2-.46,0a1.18,1.18,0,0,1-.58.34.78.78,0,0,0-.4.27,1.05,1.05,0,0,1-.34.2,2.76,2.76,0,0,1-1.21.11c-.17,0-.49-.1-.29.3,0,.06,0,.18-.06.26a1.35,1.35,0,0,0-.1.53c0,.3-.11.59-.5.64-.16,0-.19.16-.17.31a.37.37,0,0,1-.24.47c-.1,0-.16.11,0,.16a.44.44,0,0,1,.24.46.38.38,0,0,0,.37.42.3.3,0,0,1,.3.4.49.49,0,0,0,.38.6c.32.12.61.23.74.62S13,29.71,12.58,29.92Zm8.73,1.55,0,.15c.09.46.07,1,.76,1,0,0,.1.08.16.09s.41.32.58.23c.34-.19.4.08.54.24a2.1,2.1,0,0,0,.65.53c.21.1.44-.06.58.1s.31.15.5,0,.31-.24.47,0c0,0,.09,0,.11,0,.19-.23.57-.24.66-.59a.22.22,0,0,1,.31-.11c.06,0,.14.15.19,0s-.08-.09-.15-.1-.3-.23-.14-.37a3.11,3.11,0,0,0,.63-1.19c.35-.78.68-1.57,1-2.36.05-.12.16-.27-.07-.31s-.49-.21-.45-.55c0,0-.06-.11-.11-.14-.32-.21-.2-.65-.47-.88a.14.14,0,0,1,0-.09c.13-.21-.11-.44,0-.65,0-.05-.06-.11-.14-.09a.48.48,0,0,1-.52-.24c-.12-.17-.2-.13-.32,0a.64.64,0,0,1-1,0c-.34-.33-.7-.64-1.06-.95a.26.26,0,0,0-.35,0,11.19,11.19,0,0,0-1.41.76,5.07,5.07,0,0,0-1.48,1.24.17.17,0,0,1-.21.09,4,4,0,0,0-.92-.07c-.2,0-.71.52-.7.72a.22.22,0,0,0,.06.13,5.05,5.05,0,0,1,.53.6c.2.28.57.34.78.59a.81.81,0,0,0,.46.31c.4.1.52.33.41.73a.32.32,0,0,0,0,.3.61.61,0,0,1,.06.53Zm6.21-8.85a1,1,0,0,1-.38.12c-.24.06-.49,0-.72.1s-.28.16-.42-.06a.5.5,0,0,0-.38-.14c-.67.06-1-.44-1.32-.85a.69.69,0,0,0-.24-.18c-.39-.19-.91-.17-1.12-.66-.11-.25-.19-.52-.5-.61,0,0,0-.05-.06-.08a1.14,1.14,0,0,0-.48-.44c-.15-.09-.34-.1-.47-.21a.26.26,0,0,0-.43.06,4.85,4.85,0,0,0-.44,1,12.68,12.68,0,0,1-.37,1.24.31.31,0,0,1-.55.12c-.1-.1-.25-.18-.32-.1-.32.4-.76.28-1.17.35a.36.36,0,0,1-.29,0c-.09,0-.18-.1-.24,0s.05.18.13.21c.3.1.39.52.78.5.1,0,.17.12.19.22s.14.25.3.3a1.31,1.31,0,0,1,.7.49c.12.19-.07.37-.11.56-.08.4-.16.76.29,1s.42.46.27.89,0,.46.32.55.27-.05.4-.16a13.72,13.72,0,0,1,3-1.9c.08,0,.17-.1.25,0,.34.42.79.71,1.16,1.1a.51.51,0,0,0,.76,0c.26-.22.36-.21.54.05s.38.17.56.11,0-.18,0-.27,0-.23,0-.34c0-.38.21-.77-.07-1.13-.07-.1,0-.21.09-.27a.55.55,0,0,0,.17-.59A1,1,0,0,1,27.52,22.62ZM9.07,18.2c0,.1,0,.2,0,.26-.22.42-.32.88-.51,1.31a.6.6,0,0,0,0,.58,1.15,1.15,0,0,1,0,.93.86.86,0,0,0,.1.87,1.48,1.48,0,0,1,.23.78,2.89,2.89,0,0,0,.09.84,2,2,0,0,1,.21.85.32.32,0,0,0,.08.23,1.29,1.29,0,0,1,.21.76,1.87,1.87,0,0,0,.13.53,3.69,3.69,0,0,1,.46,1.3,1.42,1.42,0,0,0,.4,1,5.9,5.9,0,0,1,1.32,2.08c0,.15.16.26.11.43s.08.14.14.21.43.19.53.42c0,.07,0,.19.15.15s.11-.12.12-.2c0-.25.08-.49.13-.73a1.24,1.24,0,0,0-.09-.56c0-.12-.16-.11-.26-.14A.21.21,0,0,1,12.4,30a.25.25,0,0,1,.19-.26c.25-.07.19-.24.14-.42a1,1,0,0,0-.72-.65c-.43-.14-.46-.19-.42-.64,0-.19,0-.28-.22-.33a.54.54,0,0,1-.45-.55.41.41,0,0,0-.22-.37c-.21-.13-.2-.3,0-.37s.24-.19.22-.4a.38.38,0,0,1,.3-.46c.3,0,.34-.25.34-.42a1.88,1.88,0,0,1,.12-.59c0-.11.07-.24-.07-.3s-.21-.27-.24-.46.16-.53.31-.77.43-.28.61,0c0,.06,0,.17.14.12a.13.13,0,0,0,.06-.2c-.15-.21-.06-.41,0-.62a3,3,0,0,1,.26-.58c.08-.14.05-.19-.11-.22a.62.62,0,0,1-.48-.68.69.69,0,0,0-.56-.75c-.06,0-.13,0-.16-.08a.48.48,0,0,0-.55-.17c-.15,0-.37,0-.32-.22s-.09-.5-.12-.74,0-.21-.16-.19-.29-.1-.38.07a.55.55,0,0,1-.26.22c-.28.17-.43.1-.43-.23A.74.74,0,0,0,9.07,18.2Zm6.67-9.37a.56.56,0,0,1,.07.47c0,.16-.06.39.17.47a.51.51,0,0,1,.41.48.62.62,0,0,1-.38.62.43.43,0,0,0-.31.54.43.43,0,0,1,0,.16c0,.46,0,.53.48.55a13.74,13.74,0,0,1,1.8.19,8.42,8.42,0,0,0,1.67.25,1.21,1.21,0,0,1,.71.17,1.15,1.15,0,0,0,.76.2.52.52,0,0,1,.33,0,1.18,1.18,0,0,0,1.15,0c.07,0,.15-.07.2,0s.32.2.49.29.2.11.28,0,0-.19,0-.29-.23-.24-.16-.39c.19-.37-.08-.8.15-1.16a.07.07,0,0,0,0-.11c-.2,0-.36-.22-.58-.19s-.19,0-.24-.08a.51.51,0,0,0-.63-.25c-.43.07-.86,0-1.28.07a.94.94,0,0,1-.37,0c-.45-.14-.88-.31-1.34-.41a4.07,4.07,0,0,1-1.46-.69c-.13-.1-.18-.24-.08-.35s.05-.29-.07-.45-.29,0-.39-.05C16.62,8.77,16.18,9,15.74,8.83ZM28.59,26.1a.68.68,0,0,1-.17.51.48.48,0,0,0-.13.31c0,.43-.23.58-.56.68-.14,0-.27.16-.18.25s.28.55.52.74.39.29.19.77c-.34.77-.67,1.55-1,2.33,0,.08-.11.17,0,.25s.15,0,.23-.05a7.23,7.23,0,0,0,.84-.51c.32-.18.39-.17.6.15s.68.42.93,0a1.3,1.3,0,0,1,.1-.15.36.36,0,0,1,.4-.17.41.41,0,0,1,.28.34c0,.08,0,.17.05.26.08-.29.13-.58.48-.64s.33.17.43.37c-.28-.42.13-.69.19-1s.67-.35.88-.27.36.16.32-.07.1-.43.37-.52c-.24-.19-.44-.33-.67-.06-.1.11-.16.05-.25,0a4.47,4.47,0,0,0-1.47-1c-.18-.06-.42-.22-.45-.37a1.79,1.79,0,0,0-.52-.78,3.48,3.48,0,0,0-1.19-1A.31.31,0,0,1,28.59,26.1ZM12.23,19.52c-.08,0-.22-.07-.22.08s-.23.25,0,.43a1,1,0,0,1,.34.82.44.44,0,0,0,.34.49c.4.1.4.1.21.47,0,.06-.09.13-.09.19,0,.28-.32.52-.14.81s0,.41-.18.51-.24-.1-.3-.23-.12-.2-.26-.13a1.12,1.12,0,0,0-.35.87c0,.11.09.13.19.08a1.76,1.76,0,0,1,.94-.07,1.3,1.3,0,0,0,1.06-.36,1.15,1.15,0,0,1,.48-.27A.76.76,0,0,0,14.6,23c.37-.33.43-.32.76.06.09.09.15.28.3.22s.42.08.56.23a.75.75,0,0,0,.54.21,2.34,2.34,0,0,1,1.38.35c.05,0,.12.07.16,0s.23-.08.34,0l.58.3c.1.05.22.11.29,0s.15-.27,0-.39a1.22,1.22,0,0,0-.44-.27c-.45-.05-.48-.72-1-.65,0,0,0,0,0,0a3.07,3.07,0,0,0-1.24-1c-.64-.2-1-.85-1.57-1.08a.2.2,0,0,1-.06-.07c0-.29-.25-.27-.45-.28s-.21,0-.26-.06a1.38,1.38,0,0,0-.83-.42C13.14,19.9,12.77,19.48,12.23,19.52ZM9.58,12.57a.58.58,0,0,0-.25.34,3.48,3.48,0,0,1-.83,1.23c-.25.23-.19.37-.07.59s0,.47-.28.43a.51.51,0,0,0-.45.19c-.08.07-.13.18-.22.22a.39.39,0,0,0-.21.51c.07.25.29.3.52.29l.55-.05a.91.91,0,0,0,.77-.85c0-.28.18-.41.39-.23a.82.82,0,0,0,.81.21h0a.75.75,0,0,0,.75.08s.12,0,.13.05c.12.21.39.28.44.57s.39.32.65.34a.36.36,0,0,0,.41-.33c0-.13.13-.18.25-.2a1,1,0,0,1,.75.07c.15.1.25.1.37-.08a.48.48,0,0,1,.7-.13,1.32,1.32,0,0,1,.32.2c.17.17.28.09.38-.08s.1-.22.24-.2c.41.06.23-.16.15-.31a.78.78,0,0,0-.29-.31,4.69,4.69,0,0,1-.75-.58c-.25-.28-.56-.51-1-.25a.27.27,0,0,1-.32,0,1.12,1.12,0,0,0-.56-.13,12,12,0,0,1-2.65-.55.3.3,0,0,1-.2-.14A5.89,5.89,0,0,1,9.58,12.57Zm7.87-.17a13,13,0,0,0-1.53-.16c-.31,0-.44-.26-.4-.58a1.55,1.55,0,0,0,0-.43.35.35,0,0,1,.25-.4.67.67,0,0,0,.44-.41.36.36,0,0,0-.07-.37c-.09-.12-.19-.08-.3,0a.49.49,0,0,1-.27,0c-.25,0-.53-.19-.69.19s-.54,0-.72.23l0,0a.59.59,0,0,1-.52.21.35.35,0,0,0-.37.23,2,2,0,0,1-.18.32c-.1.15-.22.24-.4.08a.31.31,0,0,0-.47,0c-.1.16.11.21.21.31s.62.36.58.8c0,.14.13.19.24.16a1,1,0,0,1,1.1.4.22.22,0,0,0,.16.09.55.55,0,0,1,.48.23.41.41,0,0,0,.36.12,1.87,1.87,0,0,1,1.27.37,3.6,3.6,0,0,0,.69.39.69.69,0,0,0,.57.07.9.9,0,0,1,1.05.15c.49.36.85,0,.95-.37A9.75,9.75,0,0,1,20.17,13c.07-.2,0-.22-.17-.26-.44-.1-.91,0-1.34-.13A5.07,5.07,0,0,0,17.45,12.4ZM27,10.3c.1-.26.13-.57.53-.46.09,0,.09-.1.06-.19-.1-.24.15-.51.4-.55s.38-.17.59,0a.84.84,0,0,0,.06-.14c0-.19.13-.22.27-.1s.31,0,.38-.14A.49.49,0,0,0,29,8a.63.63,0,0,1-.46-.6A.78.78,0,0,0,28,6.82c-.22,0-.45,0-.68,0s-.31.12-.21.35a.79.79,0,0,1,.12.5c0,.06,0,.13-.1.14A.12.12,0,0,1,27,7.74c-.17-.43-.81-.38-.89-.89a.1.1,0,0,0-.05,0c-.25-.12-.49-.25-.75-.36s-.58,0-.61.18c-.13.79-.23,1.57-.34,2.36,0,.11,0,.18.15.15s.5,0,.6.28c0,.06.09.09.11.14.11.26.49.34.41.72.14-.25.26-.29.44-.08a.46.46,0,0,0,.38.16c.07,0,.2.09.22,0C26.73,10,26.85,10.25,27,10.3Zm-3.72,6.39c.16-.06.41-.07.37-.24a1.9,1.9,0,0,0-.18-.46c-.27-.49-.11-.66.21-.83a1.35,1.35,0,0,0,.74-.92c0-.07,0-.16.07-.2.27-.2.07-.31-.08-.42a.55.55,0,0,0-.41-.1,1.3,1.3,0,0,1-1-.22.6.6,0,0,0-.58-.08,1.07,1.07,0,0,1-.92-.1.31.31,0,0,0-.21,0,1.28,1.28,0,0,1-.64-.08c-.18-.07-.27,0-.32.16a2.82,2.82,0,0,0-.23.95.24.24,0,0,1-.05.23c-.27.23,0,.2.11.24s.15,0,.22-.08c.38-.16.42-.13.49.26a14.34,14.34,0,0,0,.3,1.45c.06.23.2.36.42.3a1.77,1.77,0,0,1,.76,0A2.12,2.12,0,0,1,23.25,16.69Zm-13,1.81c.12,0,.32-.08.38.09a2.94,2.94,0,0,1,.18.86c0,.23.08.22.22.21a.66.66,0,0,1,.48.06c.24.17.29.16.37-.13,0-.1.07-.29.16-.26.25.09.53-.07.77.13a4.43,4.43,0,0,0,1.14.54c.11.05.27.05.26-.14s-.07-.56-.41-.64a1.87,1.87,0,0,0-.66-.15.13.13,0,0,1-.16-.14c.05-.35-.21-.52-.43-.68a1.32,1.32,0,0,1-.64-1.38s0-.1,0-.11c-.24-.16-.22-.48-.4-.67s-.21-.45-.5-.36a.52.52,0,0,1-.47-.07.44.44,0,0,0-.47,0,.26.26,0,0,1-.39-.12.49.49,0,0,0-.12-.13c-.06,0-.12-.11-.2-.05s0,.12,0,.18a1.1,1.1,0,0,1,0,1,6.62,6.62,0,0,0-.24.62c0,.06-.07.13,0,.17.26.16.19.38.12.6a.36.36,0,0,0,0,.32.63.63,0,0,1,.11.35c0,.09-.05.23.09.26a.28.28,0,0,0,.28-.17C9.86,18.51,10,18.39,10.21,18.5Zm-.11-6c-.1,0-.23.07-.29.14s0,.19.1.27a1.46,1.46,0,0,0,1,.72,12.24,12.24,0,0,1,1.2.27c.53.17,1.11,0,1.62.29a.23.23,0,0,0,.18,0c.47-.3.8,0,1.06.3a5.92,5.92,0,0,0,.81.61c.07,0,.19.14.28,0s0-.18-.09-.25c-.22-.32-.22-.39.11-.61.11-.07.18-.14.16-.27a.3.3,0,0,0-.24-.26,2.24,2.24,0,0,0-.51-.07.66.66,0,0,1-.66-.22.31.31,0,0,0-.27-.13.32.32,0,0,1-.35-.19.92.92,0,0,0-.85-.31c-.35.09-.5,0-.51-.36s-.39-.47-.6-.69-.18.09-.27.1h-.12a.5.5,0,0,0-.45.27,1.26,1.26,0,0,1-.69.53c-.19.08-.35,0-.5-.15S10.14,12.48,10.1,12.47ZM18.28,7.8a1,1,0,0,0,.23.85c.06.09.1.24.24.21s.27.07.34.19c.27.45.71.77,1,1.2a.4.4,0,0,0,.24.17,3.33,3.33,0,0,0,1.88-.12,3.41,3.41,0,0,1,2.23-.07c.11,0,.27.1.36-.05s.24-.17.45-.18c-.24-.26-.26-.69-.72-.66-.12,0-.19,0-.24.13-.12.35-.12.35-.45.14l-.45-.26c-.11-.07-.23-.12-.26-.26s-.15-.19-.29-.23c-.53-.16-1.06-.27-1.59-.44a1.22,1.22,0,0,0-1.14.2,1.21,1.21,0,0,1-1.64-.14C18.33,8.31,18.42,8.06,18.28,7.8ZM14.66,19.23A2.48,2.48,0,0,0,15.71,19c.08,0,.09-.08.09-.15a4.33,4.33,0,0,0-.12-1.34.3.3,0,0,0-.41-.25c-.24.05-.5.13-.67-.16,0-.09-.18-.09-.29-.09-.43,0-.61-.25-.54-.67,0,0,0-.09,0-.11a.52.52,0,0,0-.43-.2c-.17,0-.39,0-.48.19a.55.55,0,0,1-.63.37s-.11-.06-.12,0a1.65,1.65,0,0,0-.06.8,1.19,1.19,0,0,0,.47.61,1.4,1.4,0,0,1,.59.72s0,.07.07.08A3.8,3.8,0,0,0,14.66,19.23Zm2.69-.42c0,.25-.09.44-.33.52a.37.37,0,0,0-.24.31,1.25,1.25,0,0,1-.47.75,1.33,1.33,0,0,0-.31.79c0,.18.21.31.37.37.45.18.82.61,1.38.46a.13.13,0,0,1,.11,0,.27.27,0,0,0,.31,0,.35.35,0,0,1,.33,0A.47.47,0,0,0,19,21.9c.28-.26.43-.27.7,0s.2.06.29,0a.62.62,0,0,0,0-.79c-.29-.21-.51-.62-1-.36a.15.15,0,0,1-.11,0,5.84,5.84,0,0,1-.76-.73A6.59,6.59,0,0,0,17.35,18.81Zm-1-4.92a.42.42,0,0,1-.28.51.17.17,0,0,0-.11.15,3,3,0,0,0,.53.75c.22.07.45.13.67.22.52.19,1.12.18,1.54.62a.42.42,0,0,0,.33.06,3.56,3.56,0,0,1,1.64.25c.09,0,.17.08.26,0s0-.15,0-.23c-.09-.39-.18-.79-.25-1.18s-.07-.39-.46-.28h-.09a.92.92,0,0,0-.71,0,.75.75,0,0,1-.61-.15c-.21-.14-.45-.35-.73-.2a.78.78,0,0,1-.56.05A3.14,3.14,0,0,1,16.36,13.89Zm11.5-7.22,0-.11c-.18.05-.26-.06-.34-.16A2.39,2.39,0,0,0,27,5.74a1.4,1.4,0,0,1-.61-.92,1.83,1.83,0,0,0-1.16-1.39c-.1.82-.29,1.62-.37,2.44,0,.28-.05.45.31.37a.36.36,0,0,1,.26.07,2.62,2.62,0,0,0,.6.31c.11,0,.27.13.29.22.06.39.42.33.67.51a1.09,1.09,0,0,0,0-.13s0-.06-.05-.09c-.13-.35-.06-.46.32-.46Zm-13,12.72c-.14,0-.24,0-.34,0s-.21.12-.16.24a1.32,1.32,0,0,1,.06.39c0,.21.11.38.4.36s.46,0,.51.18.27.26.41.38.2.08.24-.08a1.2,1.2,0,0,1,.41-.73.78.78,0,0,0,.28-.49.8.8,0,0,1,.32-.45.52.52,0,0,0,.08-.8,1.65,1.65,0,0,1-.55-.79c0-.12-.12-.11-.24-.08-.34.08-.39.3-.31.58s0,.61,0,.91c0,.07,0,.18-.09.18C15.48,19.19,15.16,19.45,14.81,19.39Zm.65-11.07c-.08.31,0,.37.27.38s.75,0,1.13,0,.58,0,.65-.4a.6.6,0,0,1,.09-.15.54.54,0,0,0-.19-.72c-.23-.16-.29.09-.38.21s-.18.15-.27,0a.54.54,0,0,1-.14-.24c0-.22-.16-.29-.36-.29a.39.39,0,0,1-.43-.38c0-.07,0-.16-.12-.16a.78.78,0,0,0-.55.3c-.12.13-.06.25,0,.39A5,5,0,0,1,15.46,8.32ZM16,6.58c0,.3.11.39.33.39s.47.08.47.4c0,.08.07.23.17.12s.5-.41.59-.77a1.76,1.76,0,0,1,.35-.83c.36-.38.37-.39-.08-.63l-.11-.07c-.15-.11-.23-.13-.28.11a2,2,0,0,1-.16.72.23.23,0,0,1-.23.12c-.09,0-.11-.07-.12-.15s-.17-.26-.34-.28a.35.35,0,0,0-.4.22A6.25,6.25,0,0,0,16,6.58Zm-1,10.62c.26,0,.51,0,.51-.28a1.31,1.31,0,0,0-.82-1,.33.33,0,0,0-.39.11c-.15.2-.35.38-.35.66,0,0,0,.07.08.09C14.28,17,14.73,16.88,14.94,17.2Z"/></g></g></svg>