<svg xmlns="http://www.w3.org/2000/svg" viewBox="0 0 26.44 42.34"><title>Recurso 21</title><g id="Capa_2" data-name="Capa 2"><g id="Capa_1-2" data-name="Capa 1"><path d="M26.43,13.29a15.67,15.67,0,0,1-1.3,6,102.07,102.07,0,0,1-5.45,11.36c-2,3.8-4.2,7.53-6.2,11.36-.06.12-.09.3-.25.3S13,42.16,13,42c-2.06-4-4.33-7.85-6.43-11.81A88.78,88.78,0,0,1,1,18.29a13.64,13.64,0,0,1-.95-5C.23,7.67,2.79,3.5,7.9,1.24s9.73-1.43,14,2.06a12.73,12.73,0,0,1,4.46,8.14A8.49,8.49,0,0,1,26.43,13.29ZM3,13.5a8.16,8.16,0,0,0,.24,2.19,34.87,34.87,0,0,0,2.33,6c2.25,4.82,4.82,9.46,7.45,14.07.06.11.1.27.23.28s.19-.18.26-.29c1.36-2.33,2.68-4.7,3.94-7.09a101.37,101.37,0,0,0,5.23-11,11,11,0,0,0,.56-6.83A10.28,10.28,0,0,0,3,13.5Z"/><path d="M13.24,18a4.57,4.57,0,0,1-4.6-4.53A4.6,4.6,0,1,1,13.24,18Z"/></g></g></svg>