<svg xmlns="http://www.w3.org/2000/svg" viewBox="0 0 25.42 25.43"><title>Recurso 24</title><g id="Capa_2" data-name="Capa 2"><g id="Capa_1-2" data-name="Capa 1"><path d="M12.71,25.43A12.72,12.72,0,1,1,25.42,12.74,12.69,12.69,0,0,1,12.71,25.43ZM.93,12.76A11.79,11.79,0,1,0,12.91.92,11.77,11.77,0,0,0,.93,12.76Z"/><path d="M7.34,21.15a5.49,5.49,0,0,1,.35-1.73,4.28,4.28,0,0,0,.17-.79.19.19,0,0,0-.07-.2,2.07,2.07,0,0,1-.58-.7c-.11-.2-.26-.39-.37-.59a1,1,0,0,1,0-.94c.07-.18.17-.35.25-.52a.27.27,0,0,0-.1-.37,10.87,10.87,0,0,0-2.57-1.5.47.47,0,0,1-.35-.43,1.77,1.77,0,0,0-.19-.59c0-.09-.07-.11-.17,0s-.41.13-.55-.13l-.58-1.09a3.12,3.12,0,0,0-.43-.58.39.39,0,0,1-.1-.39A9.06,9.06,0,0,1,3.94,6.4a7.41,7.41,0,0,1,.92-.85.37.37,0,0,1,.36-.07A.65.65,0,0,0,6,5.27c.33-.31.52-.3.82,0a.21.21,0,0,0,.2.09,1.46,1.46,0,0,1,.89.35c.17.11.14.36,0,.53s-.48.45-.71.68a2.14,2.14,0,0,0-.37.52c-.09.18,0,.29.15.36l.24.07a.43.43,0,0,1,.35.27c0,.08.06.24.18.18a.29.29,0,0,0,.19-.3,1.21,1.21,0,0,0-.12-.45A.32.32,0,0,1,8,7.07a1.35,1.35,0,0,1,1.29.39.35.35,0,0,0,.38.14.42.42,0,0,1,.53.27,4.19,4.19,0,0,0,.48.63,1.53,1.53,0,0,1,.44,1.11c0,.35-.1.45-.44.5h-.15c-.23,0-.37,0-.37.26,0,.12-.12.19-.24.23a3.63,3.63,0,0,0-2.21,2,.32.32,0,0,1-.6,0,.32.32,0,0,0-.3-.16,3,3,0,0,0-1,.21c-.15,0-.17.18-.18.31s0,.1.11.08L6,13a.41.41,0,0,1,.52.31,1.51,1.51,0,0,0,.51.71.88.88,0,0,0,.76.29A6.66,6.66,0,0,1,9,14.45a3.63,3.63,0,0,0,.57,0,.33.33,0,0,1,.38.3.55.55,0,0,0,.3.41,1.53,1.53,0,0,1,.8.84c0,.08.11.09.18.09a2.71,2.71,0,0,1,1.12.44l.51.26a.37.37,0,0,1,.25.51A4,4,0,0,1,12,19.27c-.47.5-1,.91-1.52,1.39a4,4,0,0,0-.75.89.42.42,0,0,1-.33.23,1,1,0,0,0-.52.31,1.22,1.22,0,0,1-1,.4.4.4,0,0,1-.4-.26A2.61,2.61,0,0,1,7.34,21.15Z"/><path d="M17.17,12.12c-.46-.33-.51-.46-.35-1a1.55,1.55,0,0,0,.05-.23c0-.28.17-.39.46-.35l.38.07a.11.11,0,0,0,.11,0s0-.07,0-.11c-.23-.31-.17-.49.19-.61a2.39,2.39,0,0,0,1.15-.66,2,2,0,0,0,.22-.34c0-.07,0-.22.15-.18s.36,0,.44.21a.56.56,0,0,0,.77.37c.23-.07.43-.18.65-.27a.39.39,0,0,0,.22-.44c0-.11,0-.21.09-.26a.29.29,0,0,1,.32,0,1.37,1.37,0,0,1,.29.38c.28.51.4,1.08.67,1.59a.26.26,0,0,1,0,.23,4.68,4.68,0,0,1-.72,1.36,1.43,1.43,0,0,1-.65.43c-.35.12-.52,0-.55-.37,0,0,0-.05,0-.09-.43.39-.77.35-1.1-.13s-.3-.39-.73-.18a4.24,4.24,0,0,0-.56.38.83.83,0,0,0,.51-.18c.24-.19.42-.15.56.13a2.75,2.75,0,0,0,.57.78,1.09,1.09,0,0,0,1.32.18c.37-.19.45-.17.66.21a8.44,8.44,0,0,0,.66.91,1.18,1.18,0,0,1,.2,1.06,12.84,12.84,0,0,1-1.78,4.29A7.4,7.4,0,0,1,19.65,21c-.13.09-.26.16-.41.07a.32.32,0,0,1-.16-.38,7,7,0,0,0-.06-2A9.41,9.41,0,0,1,18.91,17a.25.25,0,0,0-.22-.3.93.93,0,0,0-1,.16.3.3,0,0,1-.32.05,2.26,2.26,0,0,1-1.19-.84l-.66-.86a.35.35,0,0,1,0-.4A5.45,5.45,0,0,0,16,13.3c0-.23.23-.37.54-.39s.23-.06.24-.23A.56.56,0,0,1,17.17,12.12Z"/><path d="M12.29,2.06a11.19,11.19,0,0,1,4.16.8.45.45,0,0,1,.31.46,2.17,2.17,0,0,1-.4,1.44l-.11.13a.3.3,0,0,0-.15.37.38.38,0,0,1-.17.41.25.25,0,0,0-.16.23.37.37,0,0,1-.3.36c-.4.15-.79.3-1.19.47A3.3,3.3,0,0,0,13,7.64a.35.35,0,0,1-.32.13,1.17,1.17,0,0,1-1-.63,2.4,2.4,0,0,1-.22-.95.38.38,0,0,1,.14-.31c.07,0,.18-.08.12-.19s0-.37-.25-.41a.42.42,0,0,1-.36-.39c-.12-.51-.13-.51-.64-.63-.16,0-.33-.06-.5-.09a.26.26,0,0,1-.24-.28c0-.27-.16-.39-.36-.5l-.21-.1A.34.34,0,0,1,8.91,3a.35.35,0,0,1,.22-.32,5.22,5.22,0,0,1,1.51-.48A8.23,8.23,0,0,1,12.29,2.06Z"/><path d="M8.8,4.57a3.14,3.14,0,0,1,1,.35.27.27,0,0,1,.15.29.27.27,0,0,0,.22.31l.32.11a.31.31,0,0,1,.07.56.74.74,0,0,0-.25.41.89.89,0,0,1-.92.73A.39.39,0,0,1,9,7.13C9,7,8.9,6.91,8.83,6.8a.41.41,0,0,0-.34-.22c-.34-.06-.44-.28-.25-.58a.66.66,0,0,0,0-.83.32.32,0,0,1,.19-.54A1,1,0,0,1,8.8,4.57Z"/><path d="M19.29,7.86c0-.11,0-.2,0-.3s.1-.3.29-.3A.68.68,0,0,0,20.05,7a1.73,1.73,0,0,1,.52-.45.39.39,0,0,1,.52.09l.5.61a.3.3,0,0,1,0,.36,1.35,1.35,0,0,0-.19.83c0,.29,0,.33-.31.41a1.49,1.49,0,0,0-.25.13.75.75,0,0,1-.55.09.31.31,0,0,1-.26-.27c0-.16-.09-.2-.22-.23l-.3-.11C19.27,8.33,19.27,8.09,19.29,7.86Z"/><path d="M7.46,5.23,6.8,5.16A.31.31,0,0,1,6.54,5a5,5,0,0,1-.24-.75.45.45,0,0,1,.3-.61,2.84,2.84,0,0,0,.58-.34.63.63,0,0,1,.78,0A.68.68,0,0,1,8.25,4c0,.12-.07.23-.1.35a.67.67,0,0,0-.05.37.33.33,0,0,1-.27.43Z"/></g></g></svg>