<svg xmlns="http://www.w3.org/2000/svg" viewBox="0 0 23.48 22.68"><defs><style>.cls-1{fill:#272525;}</style></defs><title>Recurso 31</title><g id="Capa_2" data-name="Capa 2"><g id="Capa_1-2" data-name="Capa 1"><path class="cls-1" d="M20.68,3.72H16.36V6.46h4.32Zm-1.19.36-1,.77-1-.77Zm.83,2H16.73v-2H17l1.55,1.24,1.55-1.24h.25Z"/><path class="cls-1" d="M10.43,19.09a3,3,0,0,0,.87,1.83.32.32,0,0,0,.22.1l.09,0a.3.3,0,0,0,.22-.25,1,1,0,0,1,.95-.79h1.57a1,1,0,0,1,.9.61.29.29,0,0,0,.24.2.34.34,0,0,0,.3-.11,3,3,0,0,0,.64-2.18,3,3,0,0,0-2.69-2.69l-.31,0a3,3,0,0,0-2.24,1A3,3,0,0,0,10.43,19.09Zm3,.41a1.14,1.14,0,1,1,1.14-1.14A1.15,1.15,0,0,1,13.43,19.5Zm-1.77-2.31a2.38,2.38,0,0,1,1.77-.79h.24a2.39,2.39,0,0,1,2.13,2.13,2.43,2.43,0,0,1-.25,1.33,1.57,1.57,0,0,0-1-.53,1.51,1.51,0,1,0-2.24.05,1.62,1.62,0,0,0-.91.69,2.4,2.4,0,0,1-.37-1A2.38,2.38,0,0,1,11.66,17.19Z"/><path class="cls-1" d="M2.56,13.09a.31.31,0,0,0,.53-.22v-.28a1.91,1.91,0,0,1,1.7-1.9h3a1.91,1.91,0,0,1,1.91,1.91v.28a.31.31,0,0,0,.2.29.25.25,0,0,0,.12,0,.31.31,0,0,0,.22-.09,5.37,5.37,0,0,0,1.62-3.87,5.45,5.45,0,0,0-10.89,0A5.38,5.38,0,0,0,2.56,13.09Zm4.11-3H6.09a2.1,2.1,0,1,1,.58,0ZM6.38,4.41a4.82,4.82,0,0,1,4.81,4.81,4.76,4.76,0,0,1-.94,2.86,2.55,2.55,0,0,0-2.25-2,2.65,2.65,0,1,0-3.24,0H4.7a2.53,2.53,0,0,0-2.19,2,4.76,4.76,0,0,1-.94-2.86A4.81,4.81,0,0,1,6.38,4.41Z"/><path class="cls-1" d="M18.52,9A4.08,4.08,0,1,0,14.44,5,4.08,4.08,0,0,0,18.52,9Zm0-7.52A3.45,3.45,0,1,1,15.07,5,3.45,3.45,0,0,1,18.52,1.52Z"/><path class="cls-1" d="M0,9.22A6.38,6.38,0,0,0,9.12,15l1.25,1.38A3.9,3.9,0,0,0,13,22.66a2.61,2.61,0,0,0,.4,0,3.89,3.89,0,0,0,2.89-1.28,3.85,3.85,0,0,0,1-3,3.89,3.89,0,0,0-5.78-3l-1.11-1.24a6.36,6.36,0,0,0,2.16-6.43l1.51-.53A5,5,0,1,0,13.56,5a5.35,5.35,0,0,0,.06.79L12,6.3A6.37,6.37,0,0,0,0,9.22ZM6.38,3.48A5.77,5.77,0,0,1,11.6,6.83.3.3,0,0,0,12,7l2.1-.74a.3.3,0,0,0,.2-.36,4.2,4.2,0,0,1-.1-.93,4.32,4.32,0,1,1,.35,1.71.31.31,0,0,0-.39-.17l-2.06.72a.33.33,0,0,0-.2.39,5.56,5.56,0,0,1,.24,1.61,5.78,5.78,0,0,1-2.36,4.63.36.36,0,0,0-.13.23.31.31,0,0,0,.08.24L11.23,16a.32.32,0,0,0,.41.06,3.33,3.33,0,0,1,2.12-.53,3.27,3.27,0,0,1-.33,6.52h-.34A3.26,3.26,0,0,1,11,16.61l0,0a.33.33,0,0,0,0-.42l-1.6-1.77a.31.31,0,0,0-.23-.11.28.28,0,0,0-.15,0A5.64,5.64,0,0,1,6.38,15a5.75,5.75,0,1,1,0-11.49Z"/></g></g></svg>