<svg xmlns="http://www.w3.org/2000/svg" viewBox="0 0 19.71 15.96"><defs><style>.cls-1{fill:#272525;}</style></defs><title>Recurso 6</title><g id="Capa_2" data-name="Capa 2"><g id="Capa_1-2" data-name="Capa 1"><path class="cls-1" d="M10.93,0H.31A.33.33,0,0,0,0,.34v13a.33.33,0,0,0,.31.34H8.15v2c0,.24.28.46.47.3l.67-.54.48-.4.16-.11.08.07a5.58,5.58,0,0,0,.47.38l.72.6a.24.24,0,0,0,.36,0,.34.34,0,0,0,.12-.27v-2H19.4a.29.29,0,0,0,.21-.09h0a.32.32,0,0,0,.08-.23V.34A.33.33,0,0,0,19.4,0H10.93ZM8.15,12.94H.63V.69H8.15Zm2.9,2-1-.8a.31.31,0,0,0-.32,0l-1,.8V.69h2.27ZM11.68.69h7.41V12.94H11.68Z"/><path class="cls-1" d="M2.05,3.9H6.47a.23.23,0,0,0,0-.45H2.05A.23.23,0,0,0,2.05,3.9Z"/><path class="cls-1" d="M2.05,5.82H6.47a.23.23,0,0,0,0-.45H2.05A.23.23,0,0,0,2.05,5.82Z"/><path class="cls-1" d="M2.05,7.74H6.47a.23.23,0,0,0,0-.45H2.05A.23.23,0,0,0,2.05,7.74Z"/><path class="cls-1" d="M2.05,9.66H6.47a.23.23,0,0,0,0-.45H2.05A.23.23,0,0,0,2.05,9.66Z"/><path class="cls-1" d="M17.69,3.45H13.27a.23.23,0,0,0,0,.45h4.42A.23.23,0,0,0,17.69,3.45Z"/><path class="cls-1" d="M17.69,5.37H13.27a.23.23,0,0,0,0,.45h4.42A.23.23,0,0,0,17.69,5.37Z"/><path class="cls-1" d="M17.69,7.29H13.27a.23.23,0,0,0,0,.45h4.42A.23.23,0,0,0,17.69,7.29Z"/><path class="cls-1" d="M17.69,9.21H13.27a.23.23,0,0,0,0,.45h4.42A.23.23,0,0,0,17.69,9.21Z"/></g></g></svg>