<svg id="Grupo_415" data-name="Grupo 415" xmlns="http://www.w3.org/2000/svg" width="76.015" height="76.014" viewBox="0 0 76.015 76.014">
  <path id="Trazado_670" data-name="Trazado 670" d="M199.866,461h0a38.007,38.007,0,0,1-38.007-38.007h0a38.007,38.007,0,0,1,38.007-38.007h0a38.007,38.007,0,0,1,38.008,38.007h0A38.007,38.007,0,0,1,199.866,461Z" transform="translate(-161.859 -384.983)" fill="#c3271a"/>
  <g id="Grupo_353" data-name="Grupo 353" transform="translate(18.655 24.373)">
    <path id="Trazado_671" data-name="Trazado 671" d="M206.915,404.882a4.863,4.863,0,0,0-3.422-3.444c-3.019-.814-15.121-.814-15.121-.814s-12.1,0-15.121.814a4.863,4.863,0,0,0-3.422,3.444c-.809,3.038-.809,9.376-.809,9.376s0,6.338.809,9.376a4.863,4.863,0,0,0,3.422,3.444c3.018.814,15.121.814,15.121.814s12.1,0,15.121-.814a4.863,4.863,0,0,0,3.422-3.444c.809-3.038.809-9.376.809-9.376S207.724,407.92,206.915,404.882Z" transform="translate(-169.02 -400.624)" fill="#fff"/>
    <path id="Trazado_672" data-name="Trazado 672" d="M191.852,423.82v-11.51l10.116,5.755Z" transform="translate(-176.458 -404.431)" fill="#c3271a"/>
  </g>
</svg>
