<svg id="Grupo_412" data-name="Grupo 412" xmlns="http://www.w3.org/2000/svg" width="76.014" height="76.015" viewBox="0 0 76.014 76.015">
  <path id="Trazado_673" data-name="Trazado 673" d="M95.474,156.128h0a38.007,38.007,0,0,1-38.007-38.007h0A38.008,38.008,0,0,1,95.474,80.114h0a38.008,38.008,0,0,1,38.008,38.008h0A38.008,38.008,0,0,1,95.474,156.128Z" transform="translate(-57.467 -80.114)" fill="#29a9e1"/>
  <path id="Trazado_674" data-name="Trazado 674" d="M74.222,129.629a23.516,23.516,0,0,0,12.737,3.734c15.427,0,24.142-13.03,23.617-24.717a16.827,16.827,0,0,0,4.146-4.3,16.556,16.556,0,0,1-4.771,1.308,8.324,8.324,0,0,0,3.652-4.6,16.667,16.667,0,0,1-5.276,2.018,8.315,8.315,0,0,0-14.16,7.578,23.583,23.583,0,0,1-17.126-8.683,8.32,8.32,0,0,0,2.572,11.095,8.3,8.3,0,0,1-3.765-1.04,8.319,8.319,0,0,0,6.665,8.252,8.32,8.32,0,0,1-3.751.142,8.311,8.311,0,0,0,7.761,5.77A16.7,16.7,0,0,1,74.222,129.629Z" transform="translate(-56.465 -78.898)" fill="#fff"/>
</svg>
