<svg id="Grupo_416" data-name="Grupo 416" xmlns="http://www.w3.org/2000/svg" xmlns:xlink="http://www.w3.org/1999/xlink" width="76.014" height="76.015" viewBox="0 0 76.014 76.015">
  <defs>
    <radialGradient id="radial-gradient" cx="-0.025" cy="1.003" r="1.849" gradientTransform="translate(0)" gradientUnits="objectBoundingBox">
      <stop offset="0" stop-color="#f5ec53"/>
      <stop offset="0.241" stop-color="#e48244"/>
      <stop offset="0.397" stop-color="#d05667"/>
      <stop offset="0.489" stop-color="#c84278"/>
      <stop offset="1" stop-color="#192cfa"/>
    </radialGradient>
  </defs>
  <path id="Trazado_680" data-name="Trazado 680" d="M409.385,156.128h0a38.007,38.007,0,0,1-38.007-38.007h0a38.007,38.007,0,0,1,38.007-38.008h0a38.008,38.008,0,0,1,38.008,38.008h0A38.008,38.008,0,0,1,409.385,156.128Z" transform="translate(-371.378 -80.114)" fill="url(#radial-gradient)"/>
  <g id="Grupo_359" data-name="Grupo 359" transform="translate(17.167 17.168)">
    <path id="Trazado_681" data-name="Trazado 681" d="M408.416,100.069c5.565,0,6.224.021,8.421.121a11.531,11.531,0,0,1,3.87.719,6.906,6.906,0,0,1,3.954,3.954,11.531,11.531,0,0,1,.719,3.87c.1,2.2.121,2.856.121,8.421s-.021,6.223-.121,8.421a11.517,11.517,0,0,1-.719,3.869,6.9,6.9,0,0,1-3.954,3.955,11.511,11.511,0,0,1-3.87.717c-2.2.1-2.856.122-8.421.122s-6.223-.022-8.421-.122a11.5,11.5,0,0,1-3.869-.717,6.9,6.9,0,0,1-3.955-3.955,11.553,11.553,0,0,1-.717-3.869c-.1-2.2-.121-2.856-.121-8.421s.02-6.224.121-8.421a11.568,11.568,0,0,1,.717-3.87,6.9,6.9,0,0,1,3.955-3.954A11.518,11.518,0,0,1,400,100.19c2.2-.1,2.857-.121,8.421-.121m0-3.755c-5.659,0-6.369.024-8.592.125a15.306,15.306,0,0,0-5.058.969,10.655,10.655,0,0,0-6.095,6.095,15.284,15.284,0,0,0-.969,5.058c-.1,2.223-.126,2.932-.126,8.593s.024,6.369.126,8.592a15.291,15.291,0,0,0,.969,5.059,10.655,10.655,0,0,0,6.095,6.095,15.334,15.334,0,0,0,5.058.969c2.222.1,2.932.125,8.592.125s6.369-.024,8.593-.125a15.34,15.34,0,0,0,5.058-.969,10.655,10.655,0,0,0,6.095-6.095,15.317,15.317,0,0,0,.969-5.059c.1-2.222.125-2.932.125-8.592s-.024-6.369-.125-8.593a15.31,15.31,0,0,0-.969-5.058,10.655,10.655,0,0,0-6.095-6.095,15.312,15.312,0,0,0-5.058-.969c-2.223-.1-2.932-.125-8.593-.125" transform="translate(-387.577 -96.314)" fill="#fff"/>
    <path id="Trazado_682" data-name="Trazado 682" d="M407.845,105.88a10.7,10.7,0,1,0,10.7,10.7,10.7,10.7,0,0,0-10.7-10.7m0,17.648a6.947,6.947,0,1,1,6.947-6.947,6.946,6.946,0,0,1-6.947,6.947" transform="translate(-387.005 -95.742)" fill="#fff"/>
    <path id="Trazado_683" data-name="Trazado 683" d="M420.38,105.622a2.5,2.5,0,1,1-2.5-2.5,2.5,2.5,0,0,1,2.5,2.5" transform="translate(-385.915 -95.907)" fill="#fff"/>
  </g>
</svg>
