<svg id="Grupo_414" data-name="Grupo 414" xmlns="http://www.w3.org/2000/svg" width="76.014" height="76.015" viewBox="0 0 76.014 76.015">
  <path id="Trazado_678" data-name="Trazado 678" d="M304.352,156.128h0a38.007,38.007,0,0,1-38.007-38.007h0a38.007,38.007,0,0,1,38.007-38.008h0a38.008,38.008,0,0,1,38.008,38.008h0A38.008,38.008,0,0,1,304.352,156.128Z" transform="translate(-266.345 -80.114)" fill="#3e5c9a"/>
  <path id="Trazado_679" data-name="Trazado 679" d="M297.015,140.246h9.252V117.079h6.455l.688-7.758h-7.143V104.9c0-1.829.367-2.552,2.135-2.552h5.007V94.3H307c-6.884,0-9.988,3.033-9.988,8.836v6.185H292.2v7.854h4.812Z" transform="translate(-264.799 -79.266)" fill="#fff"/>
</svg>
