<svg id="Grupo_413" data-name="Grupo 413" xmlns="http://www.w3.org/2000/svg" width="76.014" height="76.015" viewBox="0 0 76.014 76.015">
  <path id="Trazado_675" data-name="Trazado 675" d="M200.507,156.128h0A38.007,38.007,0,0,1,162.5,118.122h0a38.007,38.007,0,0,1,38.007-38.008h0a38.008,38.008,0,0,1,38.008,38.008h0A38.008,38.008,0,0,1,200.507,156.128Z" transform="translate(-162.5 -80.114)" fill="#df4b38"/>
  <g id="Grupo_356" data-name="Grupo 356" transform="translate(11.186 21.495)">
    <path id="Trazado_676" data-name="Trazado 676" d="M204.627,115.918H189.272l.018,4.4h10.354c-1.225,5.356-5,8.639-10.076,8.639a12.047,12.047,0,1,1,8.19-20.879l3.4-2.928a16.511,16.511,0,1,0-11.588,28.273c8.757,0,15.086-6.68,15.086-15.8Z" transform="translate(-173.055 -100.397)" fill="#fff"/>
    <path id="Trazado_677" data-name="Trazado 677" d="M224.615,115.572h-6.339v-6.339h-4.044v6.339h-6.339v4.044h6.339v6.339h4.044v-6.339h6.339Z" transform="translate(-170.973 -99.869)" fill="#fff"/>
  </g>
</svg>
