<svg xmlns="http://www.w3.org/2000/svg" width="434.897" height="384.479" viewBox="0 0 434.897 384.479">
  <g id="Grupo_399" data-name="Grupo 399" transform="translate(-374.178 -440.395)">
    <g id="Grupo_398" data-name="Grupo 398">
      <g id="Grupo_324" data-name="Grupo 324" transform="translate(374.178 440.395)">
        <path id="Trazado_413" data-name="Trazado 413" d="M116.608,109.709s72.037-81.976,155.687-42.19,12.272,75.949,27.136,74.9S388.05,82.586,418.7,173.938s11.2,141.552-49.99,148.722,25.747,35.878-10.27,61.141S186.772,440.16,155.109,398.209s.248-94.538.248-94.538-39.586,67.518-73.627,31.182-34.086-129.379.378-143.983,59.711-31.756,42.822-30.537S93.444,135.405,116.608,109.709Z" transform="translate(-21.986 -40.989)" fill="#6a8185" opacity="0.2"/>
        <g id="Grupo_300" data-name="Grupo 300" transform="translate(106.716 72.928)">
          <path id="Trazado_414" data-name="Trazado 414" d="M212.628,221.792s-26.885-1.906-35.409-31.047-38.4-53.948-43.206-64.655,33.007-13.27,54.222,5.748S226.033,199.932,212.628,221.792Z" transform="translate(-133.594 -117.785)" fill="#3e2d4a"/>
          <g id="Grupo_299" data-name="Grupo 299" transform="translate(4.511 2.986)">
            <path id="Trazado_415" data-name="Trazado 415" d="M209.3,219.579c-1.049-1.1-2.118-4.82-3.736-10.457-4.312-15.025-12.339-42.99-32.421-62.2-14.042-13.432-22.688-18.983-27.47-21.275-5.187-2.486-7.063-1.78-7.082-1.772l-.183-.431c.3-.132,7.8-2.933,35.058,23.139,20.174,19.3,28.223,47.341,32.547,62.408,1.542,5.37,2.656,9.251,3.624,10.262Z" transform="translate(-138.41 -121.12)" fill="#fefada"/>
            <path id="Trazado_416" data-name="Trazado 416" d="M168.87,142.23a1.86,1.86,0,0,1-1.044-.57c-4.56-4.081-22.9-3.7-23.088-3.7l-.011-.468c.763-.017,18.715-.389,23.411,3.816.484.433.721.479.775.438.978-.663-2.736-10.8-4.522-15.673a49.906,49.906,0,0,1-1.731-5.051l.466-.052c.048.419.816,2.515,1.7,4.943,3.649,9.956,5.422,15.49,4.346,16.22A.53.53,0,0,1,168.87,142.23Z" transform="translate(-138.809 -120.973)" fill="#fefada"/>
            <path id="Trazado_417" data-name="Trazado 417" d="M187.308,163.25a2.242,2.242,0,0,1-1.109-.392c-5.695-3.449-21.025-1.281-21.179-1.259l-.066-.464c.635-.092,15.651-2.214,21.488,1.323.532.321.914.4,1.137.241,1.067-.777-.24-6.306-1.623-12.161-1.563-6.614-3.335-14.112-2.985-19.172l.467.032c-.346,4.989,1.417,12.45,2.972,19.032,1.764,7.465,2.7,11.733,1.444,12.647A.9.9,0,0,1,187.308,163.25Z" transform="translate(-140.089 -121.63)" fill="#fefada"/>
            <path id="Trazado_418" data-name="Trazado 418" d="M200.4,188.783c-.436,0-.782-.512-1.013-.915-3.414-5.977-23.578-10.582-23.781-10.628l.1-.456c.837.189,20.57,4.7,24.085,10.851.4.7.607.682.63.677.888-.21,1.248-6.6,1.6-12.788.465-8.258,1.043-18.534,3.055-24.165l.44.157c-1.989,5.567-2.565,15.806-3.028,24.034-.477,8.494-.781,12.939-1.956,13.216A.57.57,0,0,1,200.4,188.783Z" transform="translate(-140.762 -122.895)" fill="#fefada"/>
            <path id="Trazado_419" data-name="Trazado 419" d="M207.56,213.879c-2.239,0-6.8-2.8-11.991-5.983-4.808-2.95-9.781-6-13.112-6.909l.123-.452c3.4.926,8.4,3.994,13.234,6.962,5.306,3.254,10.793,6.618,12.325,5.8a.9.9,0,0,0,.408-.843c.192-5.431,8.542-24.681,8.9-25.5l.429.186c-.086.2-8.67,19.985-8.858,25.328a1.342,1.342,0,0,1-.655,1.238A1.671,1.671,0,0,1,207.56,213.879Z" transform="translate(-141.196 -125.146)" fill="#fefada"/>
          </g>
        </g>
        <g id="Grupo_302" data-name="Grupo 302" transform="translate(179.708 95.755)">
          <path id="Trazado_420" data-name="Trazado 420" d="M227.347,263.11s24.8-10.546,23.389-40.875,18.767-63.5,19.833-75.192-35.528-1.814-49.407,23.069S207.562,246.8,227.347,263.11Z" transform="translate(-211.514 -142.152)" fill="#ca9661"/>
          <g id="Grupo_301" data-name="Grupo 301" transform="translate(1.105 3.39)">
            <path id="Trazado_421" data-name="Trazado 421" d="M231.136,259.734l-.425-.2c.587-1.273.379-5.3.09-10.883-.81-15.654-2.318-44.792,10.484-69.6,17.314-33.55,25.288-33.311,25.63-33.282l-.034.467c-.065.007-8.1-.074-25.18,33.03-12.745,24.695-11.24,53.75-10.433,69.36C231.571,254.488,231.772,258.357,231.136,259.734Z" transform="translate(-213.806 -145.771)" fill="#fefada"/>
            <path id="Trazado_422" data-name="Trazado 422" d="M245.325,173.861a.523.523,0,0,1-.14-.02c-1.256-.34-1.379-6.149-1.166-16.75.052-2.586.1-4.819.006-5.232l.457-.1a50.2,50.2,0,0,1,.006,5.341c-.1,5.187-.32,15.98.82,16.289.066.013.273-.1.59-.667,3.074-5.5,20.171-10.991,20.9-11.221l.142.446c-.176.056-17.647,5.662-20.632,11C246.082,173.352,245.746,173.861,245.325,173.861Z" transform="translate(-214.67 -146.15)" fill="#fefada"/>
            <path id="Trazado_423" data-name="Trazado 423" d="M234.595,199.756a.893.893,0,0,1-.261-.039c-1.487-.457-1.988-4.8-2.748-12.43-.669-6.731-1.428-14.36-3.377-18.965l.432-.182c1.977,4.67,2.739,12.336,3.412,19.1.6,5.987,1.159,11.641,2.42,12.029.264.079.6-.121,1-.6,4.37-5.242,19.26-8.118,19.89-8.238l.088.46c-.154.029-15.355,2.964-19.619,8.079A1.746,1.746,0,0,1,234.595,199.756Z" transform="translate(-213.675 -147.186)" fill="#fefada"/>
            <path id="Trazado_424" data-name="Trazado 424" d="M229.926,228.384c-1.2,0-2.927-4.1-6.1-11.865-3.113-7.63-6.987-17.126-10.679-21.743l.365-.293c3.734,4.671,7.622,14.2,10.747,21.859,2.321,5.691,4.721,11.574,5.646,11.574h.021c.022,0,.223-.044.375-.844,1.323-6.963,18.516-17.643,19.249-18.094l.244.4c-.176.11-17.748,11.023-19.032,17.784-.1.5-.281,1.172-.789,1.222Z" transform="translate(-212.723 -148.852)" fill="#fefada"/>
            <path id="Trazado_425" data-name="Trazado 425" d="M230.532,254.65a1.3,1.3,0,0,1-.2-.016,1.34,1.34,0,0,1-1.022-.958c-1.917-4.991-16.466-20.91-16.613-21.071l.346-.317c.6.657,14.757,16.145,16.705,21.219.154.4.369.617.659.664,1.7.271,5.81-4.687,9.769-9.489,3.608-4.378,7.34-8.906,10.251-10.887l.263.388c-2.855,1.943-6.565,6.444-10.153,10.8C236.268,250.156,232.565,254.65,230.532,254.65Z" transform="translate(-212.694 -151.243)" fill="#fefada"/>
          </g>
        </g>
        <g id="Grupo_304" data-name="Grupo 304" transform="translate(0 301.331)">
          <path id="Trazado_426" data-name="Trazado 426" d="M144.176,368.746s-21.543-16.2-47.093.205S32.712,384.48,22.058,389.406s16.208,31.668,44.7,31.232S139.952,394.039,144.176,368.746Z" transform="translate(-19.674 -361.608)" fill="#ca9661"/>
          <g id="Grupo_303" data-name="Grupo 303" transform="translate(3.51 4.324)">
            <path id="Trazado_427" data-name="Trazado 427" d="M53.537,400.63c-26.974,0-29.988-5.562-30.116-5.828l.422-.205c.036.07,4.022,7.051,41.2,5.271,27.756-1.324,52.16-17.165,65.27-25.677,4.92-3.194,8.171-5.3,9.681-5.443l.043.467c-1.4.127-4.782,2.326-9.47,5.37-13.146,8.535-37.619,24.421-65.5,25.751C60.8,400.54,56.975,400.63,53.537,400.63Z" transform="translate(-23.421 -366.383)" fill="#fefada"/>
            <path id="Trazado_428" data-name="Trazado 428" d="M41.178,413.784l-.317-.346a50.353,50.353,0,0,1,4.621-2.678c4.543-2.5,14-7.719,13.694-8.862-.017-.064-.216-.175-.872-.176h-.072c-6.332,0-19.541-11.968-20.1-12.479l.316-.347c.136.124,13.634,12.358,19.784,12.358l.156,0c.5,0,1.121.067,1.243.526.333,1.257-4.635,4.272-13.92,9.393C43.445,412.42,41.489,413.5,41.178,413.784Z" transform="translate(-24.351 -367.657)" fill="#fefada"/>
            <path id="Trazado_429" data-name="Trazado 429" d="M63.535,418.567l-.375-.282c3.056-4.049,9.311-8.545,14.83-12.512,4.885-3.511,9.5-6.827,9.2-8.112-.062-.27-.4-.459-1.016-.565-6.726-1.16-16.667-12.612-17.086-13.1l.355-.306c.1.118,10.251,11.812,16.811,12.943.828.142,1.284.443,1.393.92.349,1.515-3.158,4.123-9.385,8.6C72.771,410.1,66.546,414.575,63.535,418.567Z" transform="translate(-25.934 -367.328)" fill="#fefada"/>
            <path id="Trazado_430" data-name="Trazado 430" d="M93.6,418.082l-.436-.17c2.174-5.57,8.48-13.707,13.546-20.243,3.795-4.9,7.718-9.957,7.184-10.7-.013-.019-.149-.171-.919.1-6.693,2.337-24.541-7.2-25.3-7.609l.222-.411c.184.1,18.425,9.85,24.921,7.578.482-.166,1.156-.343,1.454.071.705.979-1.982,4.534-7.194,11.258C102.038,404.469,95.755,412.575,93.6,418.082Z" transform="translate(-27.485 -367.034)" fill="#fefada"/>
            <path id="Trazado_431" data-name="Trazado 431" d="M125.781,399.907l-.446-.141c.267-.85,6.593-20.855,10.011-25.082a.9.9,0,0,0,.244-.9c-.616-1.626-6.965-2.685-13.1-3.709-5.6-.934-11.384-1.9-14.555-3.427l.2-.422c3.111,1.5,8.865,2.459,14.429,3.387,6.843,1.141,12.753,2.126,13.466,4a1.341,1.341,0,0,1-.319,1.364C132.348,379.135,125.847,399.7,125.781,399.907Z" transform="translate(-28.766 -366.223)" fill="#fefada"/>
          </g>
        </g>
        <g id="Grupo_306" data-name="Grupo 306" transform="translate(138.164 319.964)">
          <path id="Trazado_432" data-name="Trazado 432" d="M288.724,386.516s-23.021-14.017-46.847,4.8S179.33,413.056,169.207,419s19.222,29.934,47.531,26.719S286.991,412.1,288.724,386.516Z" transform="translate(-167.165 -381.498)" fill="#6e6c7b"/>
          <g id="Grupo_305" data-name="Grupo 305" transform="translate(3.645 5.004)">
            <path id="Trazado_433" data-name="Trazado 433" d="M188.138,427.745c-14.669,0-16.959-3.4-17.082-3.6l.4-.244-.2.122.2-.124c.043.067,4.692,6.617,41.515,1.225,27.494-4.027,50.235-22.175,62.452-31.925,4.585-3.659,7.614-6.077,9.1-6.362l.087.459c-1.376.263-4.532,2.782-8.9,6.268-12.251,9.778-35.055,27.977-62.676,32.022A175.166,175.166,0,0,1,188.138,427.745Z" transform="translate(-171.056 -386.84)" fill="#fefada"/>
            <path id="Trazado_434" data-name="Trazado 434" d="M190.412,442.071l-.348-.313a49.6,49.6,0,0,1,4.337-3.116c4.276-2.937,13.176-9.05,12.763-10.156-.023-.064-.238-.163-.886-.092-6.254.713-20.685-9.992-21.3-10.449l.28-.376c.148.111,14.893,11.024,20.964,10.36.5-.058,1.2-.079,1.376.393.455,1.219-4.2,4.7-12.937,10.707C192.534,440.492,190.694,441.757,190.412,442.071Z" transform="translate(-171.937 -388.783)" fill="#fefada"/>
            <path id="Trazado_435" data-name="Trazado 435" d="M213.354,444.61l-.4-.245c2.645-4.327,8.432-9.412,13.537-13.9,4.518-3.973,8.787-7.724,8.366-8.974-.087-.26-.446-.416-1.066-.462-6.806-.5-17.818-10.924-18.283-11.368l.322-.339c.113.108,11.354,10.755,17.994,11.24.838.062,1.321.316,1.477.779.495,1.474-2.741,4.41-8.5,9.474C221.72,435.282,215.963,440.343,213.354,444.61Z" transform="translate(-173.706 -388.262)" fill="#fefada"/>
            <path id="Trazado_436" data-name="Trazado 436" d="M243.009,441.23l-.451-.126c1.621-5.756,7.1-14.469,11.506-21.47,3.3-5.242,6.708-10.662,6.1-11.348-.015-.017-.165-.156-.9.187-6.431,2.985-25.129-4.773-25.921-5.1l.182-.432c.191.08,19.3,8,25.542,5.112.463-.215,1.115-.455,1.453-.072.8.906-1.529,4.705-6.059,11.906C250.073,426.86,244.611,435.54,243.009,441.23Z" transform="translate(-174.995 -387.858)" fill="#fefada"/>
            <path id="Trazado_437" data-name="Trazado 437" d="M273.258,420l-.459-.1c.184-.872,4.525-21.4,7.515-25.939a.9.9,0,0,0,.155-.923c-.773-1.558-7.2-1.992-13.406-2.412-5.661-.382-11.514-.778-14.819-1.99l.161-.439c3.242,1.188,9.061,1.581,14.689,1.962,6.923.468,12.9.873,13.794,2.672a1.342,1.342,0,0,1-.184,1.389C277.764,398.689,273.3,419.789,273.258,420Z" transform="translate(-176.19 -386.926)" fill="#fefada"/>
          </g>
        </g>
        <g id="Grupo_308" data-name="Grupo 308" transform="translate(313.337 319.964)">
          <path id="Trazado_438" data-name="Trazado 438" d="M354.165,386.516s23.021-14.017,46.848,4.8S463.561,413.056,473.682,419s-19.221,29.934-47.531,26.719S355.9,412.1,354.165,386.516Z" transform="translate(-354.165 -381.498)" fill="#3e2d4a"/>
          <g id="Grupo_307" data-name="Grupo 307" transform="translate(4.357 5.004)">
            <path id="Trazado_439" data-name="Trazado 439" d="M455.293,427.745a175.177,175.177,0,0,1-24.9-2.156c-27.622-4.045-50.426-22.245-62.679-32.022-4.367-3.486-7.522-6-8.9-6.268l.088-.459c1.49.285,4.518,2.7,9.1,6.361,12.216,9.75,34.956,27.9,62.453,31.926,36.824,5.392,41.472-1.158,41.514-1.225l.4.245C472.251,424.349,469.958,427.745,455.293,427.745Z" transform="translate(-358.816 -386.84)" fill="#fefada"/>
            <path id="Trazado_440" data-name="Trazado 440" d="M459.155,442.071c-.282-.314-2.121-1.578-4.251-3.041-8.744-6-13.4-9.489-12.94-10.708.176-.471.867-.452,1.378-.393,6.083.665,20.813-10.249,20.961-10.36l.28.376c-.61.456-15.044,11.166-21.294,10.449-.64-.071-.862.027-.885.092-.413,1.106,8.488,7.221,12.766,10.158a49.684,49.684,0,0,1,4.333,3.114Z" transform="translate(-364.072 -388.783)" fill="#fefada"/>
            <path id="Trazado_441" data-name="Trazado 441" d="M436.231,444.61c-2.609-4.266-8.367-9.328-13.448-13.793-5.761-5.064-9-8-8.5-9.474.155-.464.639-.718,1.475-.779,6.642-.485,17.882-11.132,17.994-11.24l.324.339c-.466.443-11.476,10.87-18.284,11.368-.62.046-.978.2-1.066.462-.42,1.251,3.847,5,8.366,8.974,5.106,4.487,10.893,9.572,13.538,13.9Z" transform="translate(-362.321 -388.262)" fill="#fefada"/>
            <path id="Trazado_442" data-name="Trazado 442" d="M406.243,441.23c-1.6-5.69-7.064-14.371-11.454-21.347-4.53-7.2-6.856-11-6.06-11.905.34-.383.991-.143,1.454.072,6.246,2.9,25.351-5.032,25.543-5.112l.181.432c-.793.332-19.488,8.088-25.921,5.1-.74-.344-.889-.205-.9-.187-.6.686,2.807,6.106,6.106,11.348,4.4,7,9.887,15.713,11.506,21.47Z" transform="translate(-360.698 -387.858)" fill="#fefada"/>
            <path id="Trazado_443" data-name="Trazado 443" d="M375.9,420c-.044-.213-4.508-21.312-7.447-25.777a1.342,1.342,0,0,1-.185-1.389c.894-1.8,6.871-2.2,13.794-2.672,5.628-.38,11.447-.774,14.689-1.962l.161.439c-3.306,1.211-9.159,1.607-14.819,1.99-6.211.42-12.632.854-13.405,2.412a.9.9,0,0,0,.156.923c2.988,4.54,7.331,25.067,7.515,25.939Z" transform="translate(-359.406 -386.926)" fill="#fefada"/>
          </g>
        </g>
        <g id="Grupo_310" data-name="Grupo 310" transform="translate(296.693 65.85)">
          <path id="Trazado_444" data-name="Trazado 444" d="M337.509,196.044s26.438,5.239,42.334-20.629,51.247-41.934,58.706-51-28.348-21.492-53.822-8.732S330.332,171.425,337.509,196.044Z" transform="translate(-336.396 -110.229)" fill="#6a8185"/>
          <g id="Grupo_309" data-name="Grupo 309" transform="translate(5.05 1.576)">
            <path id="Trazado_445" data-name="Trazado 445" d="M342.029,195.171l-.242-.4c1.2-.72,3.3-4.171,6.2-8.947,8.139-13.4,23.289-38.331,47.83-51.635,33.166-17.977,39.656-13.3,39.914-13.091l-.29.367c-.017-.012-1.638-1.189-7.3-.156-5.216.953-15.019,4.031-32.1,13.292-24.431,13.243-39.537,38.108-47.652,51.466C345.341,191.079,343.33,194.391,342.029,195.171Z" transform="translate(-341.787 -112.449)" fill="#fefada"/>
            <path id="Trazado_446" data-name="Trazado 446" d="M430.17,133.145c-.177-.053-17.77-5.25-23.248-2.513-.455.229-1.1.489-1.427.1-.846-.987,2.32-5.859,8.462-14.5,1.5-2.108,2.792-3.929,2.948-4.32l.435.173a49.992,49.992,0,0,1-3,4.419c-3.005,4.229-9.257,13.03-8.488,13.928.043.05.277.073.864-.219,5.633-2.82,22.859,2.264,23.589,2.482Z" transform="translate(-345.807 -111.912)" fill="#fefada"/>
            <path id="Trazado_447" data-name="Trazado 447" d="M404.286,150.607c-.142-.063-14.36-6.19-20.764-4.362-.809.231-1.349.156-1.653-.225-.972-1.214,1.055-5.084,4.722-11.821,3.234-5.94,6.9-12.673,7.879-17.576l.459.091c-.994,4.973-4.677,11.739-7.928,17.709-2.875,5.284-5.592,10.275-4.768,11.3.172.215.563.238,1.162.067,6.561-1.874,20.489,4.125,21.079,4.382Z" transform="translate(-344.306 -112.21)" fill="#fefada"/>
            <path id="Trazado_448" data-name="Trazado 448" d="M362.9,167.339a.568.568,0,0,1-.274-.069c-1.06-.577-.183-4.945,1.592-13.266,1.72-8.059,3.86-18.088,3.408-23.983l.466-.036c.459,5.962-1.69,16.028-3.415,24.116-1.293,6.058-2.629,12.321-1.829,12.757.022.011.208.092.786-.486,5.011-5.012,25.235-4.169,26.092-4.127l-.021.467c-.211-.008-20.875-.876-25.74,3.991A1.8,1.8,0,0,1,362.9,167.339Z" transform="translate(-343.076 -113.055)" fill="#fefada"/>
            <path id="Trazado_449" data-name="Trazado 449" d="M350.421,189.676a2.773,2.773,0,0,1-1.9-.507,1.34,1.34,0,0,1-.3-1.367c1.224-5.2-1.846-26.551-1.877-26.767l.463-.066c.128.882,3.116,21.65,1.87,26.941a.9.9,0,0,0,.172.919c1.26,1.194,7.44-.605,13.416-2.348,5.446-1.589,11.079-3.232,14.6-3.232v.468c-3.454,0-9.053,1.634-14.468,3.213C357.43,188.378,352.976,189.676,350.421,189.676Z" transform="translate(-342.075 -115.014)" fill="#fefada"/>
          </g>
        </g>
        <g id="Grupo_312" data-name="Grupo 312" transform="translate(8.606 160.157)">
          <path id="Trazado_450" data-name="Trazado 450" d="M116.011,309.294s-26.95.415-37.951-27.884-42.9-50.443-48.613-60.7,31.742-16.063,54.517,1.059S127.483,286.36,116.011,309.294Z" transform="translate(-28.861 -210.902)" fill="#6a8185"/>
          <g id="Grupo_311" data-name="Grupo 311" transform="translate(4.405 2.066)">
            <path id="Trazado_451" data-name="Trazado 451" d="M112.468,307.473c-1.139-1-2.525-4.619-4.622-10.1-5.59-14.6-15.993-41.769-37.655-59.177-15.147-12.173-24.24-16.959-29.2-18.831-5.382-2.031-7.19-1.164-7.207-1.156l-.22-.413c.292-.157,7.514-3.6,36.92,20.034,21.76,17.487,32.194,44.736,37.8,59.375,2,5.217,3.442,8.987,4.494,9.912Z" transform="translate(-33.564 -213.388)" fill="#fefada"/>
            <path id="Trazado_452" data-name="Trazado 452" d="M65.568,233.794a1.989,1.989,0,0,1-1.033-.481c-4.9-3.674-23.138-1.715-23.322-1.695l-.051-.466c.758-.084,18.612-2,23.653,1.785.521.391.759.416.809.37.917-.745-3.655-10.523-5.854-15.222a49.871,49.871,0,0,1-2.16-4.885l.459-.094c.083.414,1.03,2.437,2.126,4.78,4.492,9.6,6.734,14.966,5.725,15.785A.548.548,0,0,1,65.568,233.794Z" transform="translate(-34.045 -213.108)" fill="#fefada"/>
            <path id="Trazado_453" data-name="Trazado 453" d="M63.533,253.423l-.108-.456c.626-.147,15.4-3.552,21.523-.533.557.274.944.322,1.154.142.995-.866-.783-6.261-2.665-11.976-2.126-6.456-4.538-13.773-4.624-18.844l.468-.008c.085,5,2.484,12.281,4.6,18.705,2.4,7.285,3.7,11.457,2.526,12.476-.369.32-.915.3-1.667-.075C78.772,249.908,63.684,253.387,63.533,253.423Z" transform="translate(-35.452 -213.654)" fill="#fefada"/>
            <path id="Trazado_454" data-name="Trazado 454" d="M101.047,277.4c-.415,0-.785-.46-1.04-.826-3.916-5.661-24.4-8.513-24.608-8.541l.063-.465c.852.116,20.9,2.911,24.931,8.738.463.67.664.625.685.621.867-.286.675-6.687.489-12.878-.248-8.267-.557-18.555.962-24.338l.453.118c-1.5,5.718-1.194,15.969-.947,24.206.255,8.5.335,12.959-.811,13.336A.539.539,0,0,1,101.047,277.4Z" transform="translate(-36.21 -214.79)" fill="#fefada"/>
            <path id="Trazado_455" data-name="Trazado 455" d="M110.06,301.759c-2.33,0-6.963-2.319-12.2-4.94-5.044-2.525-10.259-5.134-13.657-5.754l.084-.461c3.463.631,8.709,3.256,13.783,5.8,5.566,2.786,11.323,5.669,12.778,4.715a.9.9,0,0,0,.334-.874c-.276-5.428,6.385-25.325,6.669-26.17l.444.15c-.069.206-6.917,20.656-6.645,26a1.341,1.341,0,0,1-.545,1.291A1.9,1.9,0,0,1,110.06,301.759Z" transform="translate(-36.767 -216.963)" fill="#fefada"/>
          </g>
        </g>
        <g id="Grupo_314" data-name="Grupo 314" transform="translate(319.175 214.795)">
          <path id="Trazado_456" data-name="Trazado 456" d="M361.509,355.044s26.438,5.239,42.334-20.629,51.247-41.934,58.706-51-28.348-21.492-53.822-8.732S354.332,330.425,361.509,355.044Z" transform="translate(-360.396 -269.229)" fill="#3e2d4a"/>
          <g id="Grupo_313" data-name="Grupo 313" transform="translate(5.05 1.576)">
            <path id="Trazado_457" data-name="Trazado 457" d="M366.029,354.172l-.242-.4c1.2-.72,3.3-4.17,6.2-8.946,8.139-13.4,23.289-38.333,47.83-51.636,33.168-17.979,39.654-13.3,39.914-13.091l-.29.367c-.016-.013-1.641-1.188-7.3-.155-5.216.953-15.019,4.031-32.1,13.292-24.431,13.242-39.537,38.108-47.652,51.466C369.341,350.079,367.33,353.391,366.029,354.172Z" transform="translate(-365.787 -271.449)" fill="#fefada"/>
            <path id="Trazado_458" data-name="Trazado 458" d="M454.17,292.144c-.177-.052-17.77-5.249-23.248-2.512-.454.228-1.1.487-1.427.1-.847-.988,2.32-5.86,8.464-14.507,1.5-2.107,2.79-3.926,2.946-4.318l.435.174a50,50,0,0,1-3,4.416c-3.005,4.229-9.259,13.032-8.49,13.93.044.049.277.073.864-.22,5.637-2.822,22.859,2.265,23.589,2.484Z" transform="translate(-369.807 -270.912)" fill="#fefada"/>
            <path id="Trazado_459" data-name="Trazado 459" d="M428.286,309.606c-.142-.062-14.357-6.184-20.764-4.361-.807.232-1.349.156-1.653-.224-.972-1.214,1.055-5.085,4.722-11.821,3.234-5.941,6.9-12.675,7.879-17.578l.459.092c-.994,4.973-4.677,11.74-7.928,17.71-2.876,5.284-5.592,10.274-4.768,11.3.172.215.564.236,1.162.067,6.561-1.877,20.489,4.125,21.079,4.38Z" transform="translate(-368.306 -271.21)" fill="#fefada"/>
            <path id="Trazado_460" data-name="Trazado 460" d="M386.9,326.339a.558.558,0,0,1-.274-.069c-1.06-.576-.183-4.945,1.592-13.265,1.72-8.06,3.86-18.089,3.408-23.983l.466-.037c.459,5.962-1.69,16.029-3.415,24.116-1.293,6.058-2.629,12.321-1.828,12.758.02.011.212.086.785-.487,5.011-5.011,25.236-4.168,26.092-4.128l-.021.468c-.211-.011-20.875-.876-25.74,3.992A1.8,1.8,0,0,1,386.9,326.339Z" transform="translate(-367.076 -272.055)" fill="#fefada"/>
            <path id="Trazado_461" data-name="Trazado 461" d="M374.421,348.676a2.777,2.777,0,0,1-1.9-.507,1.342,1.342,0,0,1-.3-1.368c1.224-5.2-1.846-26.55-1.877-26.765l.463-.067c.128.882,3.116,21.65,1.87,26.941a.9.9,0,0,0,.172.919c1.262,1.2,7.442-.605,13.417-2.348,5.446-1.588,11.078-3.231,14.6-3.231v.468c-3.454,0-9.053,1.633-14.467,3.212C381.431,347.378,376.977,348.676,374.421,348.676Z" transform="translate(-366.075 -274.014)" fill="#fefada"/>
          </g>
        </g>
        <g id="Grupo_315" data-name="Grupo 315" transform="translate(41.535 102.721)">
          <path id="Trazado_462" data-name="Trazado 462" d="M164.839,248.47s-3.753-44.459,24.043-49.044c23.6-3.892,42.405,6.64,51.659,30.46S170.974,255.663,164.839,248.47Z" transform="translate(-70.379 -152.69)" fill="#6a8185"/>
          <path id="Trazado_463" data-name="Trazado 463" d="M100.872,173.556s8.584,16.829,16.473,15.582,11.167-12.116,23.918-7.63,24.406,31.255,36.679,35.054-7.989,31.977-7.989,31.977-98.647,6.21-102.663-1.028,26.647-43.736,29.636-46c6.9-5.218-2.985-14.2-2.985-14.2Z" transform="translate(-64.197 -151.104)" fill="#e7bd9f"/>
          <path id="Trazado_464" data-name="Trazado 464" d="M101.969,161.187s10.608,21.4-.792,25.694c-7.842,2.955-16.521-9.2-16.6-16.25S95.542,157.848,101.969,161.187Z" transform="translate(-65.314 -150.26)" fill="#e7bd9f"/>
          <ellipse id="Elipse_24" data-name="Elipse 24" cx="0.742" cy="0.958" rx="0.742" ry="0.958" transform="translate(26.519 24.943) rotate(-20.675)" fill="#34263b"/>
          <ellipse id="Elipse_25" data-name="Elipse 25" cx="0.742" cy="0.958" rx="0.742" ry="0.958" transform="translate(33.773 22.206) rotate(-20.675)" fill="#34263b"/>
          <path id="Trazado_465" data-name="Trazado 465" d="M106.42,172.841s-.131-4.282,2.17-3.258,2.142,6.285.52,6.868S106.239,174.676,106.42,172.841Z" transform="translate(-66.694 -150.843)" fill="#e7bd9f"/>
          <path id="Trazado_466" data-name="Trazado 466" d="M99.123,170.177a2.4,2.4,0,0,1,3.162.415C103.29,171.5,97.471,171.362,99.123,170.177Z" transform="translate(-66.215 -150.865)" fill="#a0444e"/>
          <path id="Trazado_467" data-name="Trazado 467" d="M92.363,172.519A2.4,2.4,0,0,0,89.9,174.55C89.536,175.854,94.391,172.644,92.363,172.519Z" transform="translate(-65.649 -151.038)" fill="#a0444e"/>
          <path id="Trazado_468" data-name="Trazado 468" d="M88.67,179.727s-2.714-3.314-3.776-1.03,2.513,6.146,4.12,5.52S90.012,180.993,88.67,179.727Z" transform="translate(-65.321 -151.378)" fill="#e7bd9f"/>
          <path id="Trazado_469" data-name="Trazado 469" d="M84.852,165.318s4.043,8.444,1.853,12.794C86.7,178.112,74.1,174.707,84.852,165.318Z" transform="translate(-65.056 -150.583)" fill="#a0444e"/>
          <path id="Trazado_470" data-name="Trazado 470" d="M99.166,180.52a3.828,3.828,0,0,1-2.545-1.333l.373-.284a3.5,3.5,0,0,0,2.1,1.15,43.615,43.615,0,0,0-1.948-4.869l.427-.192c1.448,3.227,2.113,5.025,1.978,5.344l-.156.152A.679.679,0,0,1,99.166,180.52Z" transform="translate(-66.075 -151.195)" fill="#c87d79"/>
          <path id="Trazado_471" data-name="Trazado 471" d="M99.076,183.549a6.9,6.9,0,0,1-3.46-1.329l.279-.377c.025.019,2.473,1.813,4.1,1.046.9-.427,1.408-1.588,1.5-3.449l.467.022c-.1,2.049-.7,3.344-1.769,3.85A2.578,2.578,0,0,1,99.076,183.549Z" transform="translate(-66.012 -151.476)" fill="#c87d79"/>
          <path id="Trazado_472" data-name="Trazado 472" d="M88.68,182.9c-1.075-2.634-2.3-2.52-2.309-2.524l-.067-.464c.061-.011,1.578-.2,2.809,2.809Z" transform="translate(-65.423 -151.506)" fill="#c87d79"/>
          <path id="Trazado_473" data-name="Trazado 473" d="M108.279,175.478c-1.068-3.076.2-3.931.252-3.965l.257.392c-.01.007-1,.731-.067,3.42Z" transform="translate(-66.785 -150.975)" fill="#c87d79"/>
          <path id="Trazado_474" data-name="Trazado 474" d="M85.768,197.316a10.309,10.309,0,0,0-3.355-6.58c-3.127-2.707-6.5-6.755-4.576-5.835s4.367,2.443,4.367,2.443-3.5-3.386-2.95-3.853,5.294,1.8,5.294,1.8-4.2-2.4-2.516-3.2,13.025,9,11.145,12.509C90.874,198.894,90.983,199.109,85.768,197.316Z" transform="translate(-64.851 -151.641)" fill="#e7bd9f"/>
          <path id="Trazado_475" data-name="Trazado 475" d="M169.92,247.786s3.649-25.129,10.661-28.344,75.6,18.375,84.368,19.251,14.5,8.807,13.858,10.335-11.366,2.071-15.827,2.947S169.34,264.442,169.92,247.786Z" transform="translate(-70.71 -153.985)" fill="#6a8185"/>
          <path id="Trazado_476" data-name="Trazado 476" d="M176.769,219.131s-3.464-10.586,2.382-15.62c20.645-17.772,76.84,20.48,86.555,29.393,6.491,5.956,20.26,12.287,19.349,13.67s-14.09-5.795-18.637-5.754S173.137,235.4,176.769,219.131Z" transform="translate(-71.079 -152.704)" fill="#6a8185"/>
          <path id="Trazado_477" data-name="Trazado 477" d="M82.89,192.809s8.529-.645,9.793-.06,2.7,54.481-2.947,57.544-19.98,3.667-24.919.249S79.159,190.724,82.89,192.809Z" transform="translate(-64.013 -152.302)" fill="#c87d79"/>
          <path id="Trazado_478" data-name="Trazado 478" d="M99.39,199.772s16.568,12.065,18.581-10.291c0,0,12.263-10.435,21.589-10.5,14.973-.112,19.187,21.875,33.335,23.278,5.769.572-1.922,49.191-1.922,49.191s-87.336,1.9-91.8.625-1.714-32.825,1.282-37.143S96.8,198.923,99.39,199.772Z" transform="translate(-64.823 -151.447)" fill="#c87d79"/>
          <path id="Trazado_479" data-name="Trazado 479" d="M95.765,187.8s5.085,6.493,8.917,5.908,4.2-10.282,4.2-10.282l-1.714-2.21S107.164,192.471,95.765,187.8Z" transform="translate(-66.021 -151.589)" fill="#c87d79"/>
          <path id="Trazado_480" data-name="Trazado 480" d="M81.967,161.669s1.611-4.319,7.773-6.9,14.58-6.566,15.055-4.692-1.469,6.126-1.469,6.126,4.688-3.425,4.285-.857-1.876,8.4-11.05,11.124S77.848,169.022,81.967,161.669Z" transform="translate(-65.086 -149.588)" fill="#a0444e"/>
          <path id="Trazado_481" data-name="Trazado 481" d="M100.343,160.056s3.3,11.214,6.067,10.492c0,0,1.359-5.691-.391-8.827S100.343,160.056,100.343,160.056Z" transform="translate(-66.31 -150.229)" fill="#a0444e"/>
          <path id="Trazado_482" data-name="Trazado 482" d="M90.807,247.183l-.247-.4c4.954-3.084,4.549-41.069,4.544-41.453l.468-.006C95.591,206.9,95.983,243.961,90.807,247.183Z" transform="translate(-65.692 -153.113)" fill="#a34d5b"/>
          <path id="Trazado_483" data-name="Trazado 483" d="M111.132,205.889c-6.1,0-12.228-3.006-12.291-3.038l.208-.42c.065.032,6.546,3.208,12.728,2.977,5.805-.215,8.569-10.193,9.145-14.02l.463.069a32.617,32.617,0,0,1-2.5,8.181c-1.911,4.036-4.3,6.135-7.094,6.238C111.573,205.885,111.352,205.889,111.132,205.889Z" transform="translate(-66.215 -152.232)" fill="#a34d5b"/>
          <path id="Trazado_484" data-name="Trazado 484" d="M112.63,215.028s.437-12.274,13.907-19.194c7.853-4.034,9.43,4.255,9.9,5.473s-20.274,16.773-23.261,16.462S82.9,219.8,82.322,219.495s-2.513-4.866.42-7.067S107.121,207.645,112.63,215.028Z" transform="translate(-65.097 -152.444)" fill="#fefada"/>
          <path id="Trazado_485" data-name="Trazado 485" d="M89.776,249.26s-11.755-31.744-8.784-32.908c4.04-1.583,27.348-1.481,31.6-1.163,0,0,17.046-19.052,22.389-17.859s16.791,36.4,14.6,36.555S133.666,245,122.649,249.8C122.649,249.8,92.792,250.6,89.776,249.26Z" transform="translate(-65.056 -152.604)" fill="#6a8185"/>
          <path id="Trazado_486" data-name="Trazado 486" d="M144.031,238.206s-6.187-3.426-10.317-3.625-9.369.4-7.34,1.062,4.847,1.247,4.847,1.247-4.868.036-4.794.751,5.074,2.35,5.074,2.35-4.7-1.163-4.032.58,9.383,2.209,12.764,5.716S149.041,240.508,144.031,238.206Z" transform="translate(-67.928 -154.961)" fill="#e7bd9f"/>
          <path id="Trazado_487" data-name="Trazado 487" d="M141.481,200.544c-6.465-7.285-1.709-17.217-1.661-17.316l.422.206c-.048.1-4.665,9.752,1.59,16.8Z" transform="translate(-68.698 -151.716)" fill="#a34d5b"/>
          <path id="Trazado_488" data-name="Trazado 488" d="M136.559,229.466s-3.736,12.056,0,16.215,35.142-6.38,38.469-15.656-1.7-17.5-7.325-17.451S153.175,224.624,136.559,229.466Z" transform="translate(-68.496 -153.572)" fill="#c87d79"/>
          <path id="Trazado_489" data-name="Trazado 489" d="M146.866,247.554a22.888,22.888,0,0,1-5.392-.632l.11-.456c10.325,2.5,20.9-2.956,27.354-8.891,4.53-4.165,7.182-8.633,6.758-11.383-1.065-6.893-10.273-25.072-10.367-25.255l.418-.212c.38.748,9.336,18.429,10.412,25.4.449,2.9-2.261,7.531-6.9,11.8C163.833,242.905,155.53,247.554,146.866,247.554Z" transform="translate(-68.912 -152.822)" fill="#a34d5b"/>
          <path id="Trazado_490" data-name="Trazado 490" d="M151.726,222.987l-.336-.326c.87-.9,9.129-7.493,12.367-8.72l.166.438C160.735,215.587,152.586,222.1,151.726,222.987Z" transform="translate(-69.539 -153.658)" fill="#a34d5b"/>
          <path id="Trazado_491" data-name="Trazado 491" d="M86.381,215.317l-.085-.46c.708-.131,17.418-3.169,24.147.018l-.2.423C103.646,212.176,86.553,215.284,86.381,215.317Z" transform="translate(-65.422 -153.625)" fill="#fefada"/>
          <path id="Trazado_492" data-name="Trazado 492" d="M121.409,216.8s16.731-9.807,17.583-11.446c.3-.576,3.387,9.221,3.387,9.221s-15.793,8.79-16.743,8.918S121.877,218.646,121.409,216.8Z" transform="translate(-67.643 -153.114)" fill="#fefada"/>
          <path id="Trazado_493" data-name="Trazado 493" d="M143.416,246.819c-3.145-6.255-2.186-17.436-2.144-17.909l.467.042c-.01.114-.988,11.521,2.1,17.656Z" transform="translate(-68.888 -154.605)" fill="#a34d5b"/>
          <path id="Trazado_494" data-name="Trazado 494" d="M94.235,200.611c-3.344-1.287-12.968-.921-13.066-.917l-.018-.468c.4-.015,9.819-.373,13.252.948Z" transform="translate(-65.097 -152.724)" fill="#a34d5b"/>
          <path id="Trazado_495" data-name="Trazado 495" d="M82.728,187.662l-.411-.224a6.109,6.109,0,0,1,2.438-2.145l.222.412A5.787,5.787,0,0,0,82.728,187.662Z" transform="translate(-65.171 -151.846)" fill="#c87d79"/>
          <path id="Trazado_496" data-name="Trazado 496" d="M228.534,209.383c-9.538-4.554-25.937-6.929-37.545-2.366l-.171-.436c11.729-4.612,28.291-2.216,37.918,2.379Z" transform="translate(-72.032 -153.035)" fill="#515562"/>
          <path id="Trazado_497" data-name="Trazado 497" d="M268.987,232.9s-2.427,11.546.369,12.441,16.479-2.941,20.234-1.033,6.429,5.206,6.028.513-5.273-9.021-10.1-10.37S268.987,232.9,268.987,232.9Z" transform="translate(-76.914 -154.857)" fill="#44324e"/>
          <path id="Trazado_498" data-name="Trazado 498" d="M269.065,245.162s-1.014,6.867,1.784,7.763,12.981-1.909,16.735,0,10.462,5.369,10.062.675-5.274-9.021-10.1-10.37S269.065,245.162,269.065,245.162Z" transform="translate(-76.969 -155.49)" fill="#44324e"/>
          <path id="Trazado_499" data-name="Trazado 499" d="M185.175,207.966s-11.472,32.2-10.848,45.313c.242,5.077,20.467,3.341,27.141,3.008S187.651,213.391,185.175,207.966Z" transform="translate(-70.988 -153.28)" fill="#6a8185"/>
          <path id="Trazado_500" data-name="Trazado 500" d="M179.469,231.491c-1.405-1.163-.217-6.377.831-10.979.425-1.867.827-3.63.948-4.723.4-3.654,3.887-7.81,4.035-7.985l.358.3c-.036.042-3.54,4.222-3.927,7.734-.124,1.119-.51,2.813-.956,4.776-.917,4.024-2.173,9.535-.989,10.513Z" transform="translate(-71.274 -153.27)" fill="#515562"/>
          <path id="Trazado_501" data-name="Trazado 501" d="M84.767,166.857l-.231-.408c.238-.135,5.858-3.31,8.391-3.31,5.41,0,8.51-1.905,9.216-5.663l.46.085c-.752,4.012-4.008,6.046-9.676,6.046C90.516,163.608,84.825,166.824,84.767,166.857Z" transform="translate(-65.311 -150.087)" fill="#863a42"/>
          <path id="Trazado_502" data-name="Trazado 502" d="M83.181,165.164l-.4-.238c.126-.215,3.141-5.248,7.245-6.352a10.268,10.268,0,0,1,4-.2c1.622.162,2.6.262,3.662-1.637l.408.23c-1.209,2.167-2.494,2.036-4.118,1.874a9.777,9.777,0,0,0-3.831.189C86.225,160.081,83.211,165.113,83.181,165.164Z" transform="translate(-65.2 -150.04)" fill="#863a42"/>
          <path id="Trazado_503" data-name="Trazado 503" d="M84.852,176.471c-.064-.208-1.578-5.1-.767-6.806l.422.2c-.733,1.537.777,6.416.792,6.465Z" transform="translate(-65.267 -150.858)" fill="#863a42"/>
          <path id="Trazado_504" data-name="Trazado 504" d="M105.8,168.886a6.476,6.476,0,0,0-1.714-3.611l.3-.363a6.754,6.754,0,0,1,1.877,3.883Z" transform="translate(-66.547 -150.557)" fill="#863a42"/>
          <path id="Trazado_505" data-name="Trazado 505" d="M277.817,244.72a37.4,37.4,0,0,0-2.172-4.1l.4-.237a40.885,40.885,0,0,1,2.218,4.213Z" transform="translate(-77.397 -155.33)" fill="#fefada"/>
          <path id="Trazado_506" data-name="Trazado 506" d="M282.259,244.9l-.463-.067c.217-1.514-1.567-4.436-1.585-4.466l.4-.245C280.688,240.252,282.5,243.222,282.259,244.9Z" transform="translate(-77.686 -155.314)" fill="#fefada"/>
          <path id="Trazado_507" data-name="Trazado 507" d="M279.05,253.723a37.071,37.071,0,0,0-2.172-4.1l.4-.237a41.007,41.007,0,0,1,2.218,4.214Z" transform="translate(-77.475 -155.899)" fill="#fefada"/>
          <path id="Trazado_508" data-name="Trazado 508" d="M283.493,253.907l-.463-.066c.216-1.515-1.567-4.436-1.586-4.466l.4-.245C281.921,249.256,283.734,252.226,283.493,253.907Z" transform="translate(-77.764 -155.883)" fill="#fefada"/>
          <path id="Trazado_509" data-name="Trazado 509" d="M263.532,244.855c-.422-.009-42.548-.982-61.646-3.953-16.45-2.559-20.246-6.057-20.4-6.2l.324-.338c.037.035,3.9,3.552,20.148,6.08,19.069,2.967,61.162,3.938,61.585,3.947Z" transform="translate(-71.442 -154.949)" fill="#515562"/>
          <path id="Trazado_510" data-name="Trazado 510" d="M112.291,216.335c-8.823-3.3-27.416-1.1-27.6-1.08l-.056-.465c.188-.023,18.9-2.231,27.823,1.105Z" transform="translate(-65.317 -153.665)" fill="#d3d0b1"/>
          <path id="Trazado_511" data-name="Trazado 511" d="M116.866,211.707l-.438-.163c3.04-8.184,13.816-14.117,13.925-14.176l.224.412C130.469,197.838,119.845,203.688,116.866,211.707Z" transform="translate(-67.328 -152.61)" fill="#d3d0b1"/>
          <path id="Trazado_512" data-name="Trazado 512" d="M124.657,251.366c-.273,0-.65-.284-6.455-16.551-2.894-8.109-5.747-16.324-5.776-16.405l.442-.154c4.421,12.728,11.245,31.938,11.931,32.69l-.134.122.007.3Z" transform="translate(-67.075 -153.931)" fill="#515562"/>
          <path id="Trazado_513" data-name="Trazado 513" d="M129.838,249.6c-1.388-3.934-12.3-33.887-12.411-34.19l.44-.16c.111.3,11.024,30.257,12.413,34.195Z" transform="translate(-67.391 -153.741)" fill="#515562"/>
        </g>
        <g id="Grupo_316" data-name="Grupo 316" transform="translate(27.97 258.58)">
          <path id="Trazado_514" data-name="Trazado 514" d="M58.346,317.4s160.744,1.57,167.5,0,22.746-2.486,24.675.718,8.632,55.292-1.022,58.432S55.45,377.6,51.588,377.6s-1.448-53.393.483-56.011S52.072,318.449,58.346,317.4Z" transform="translate(-49.533 -315.97)" fill="#68818d"/>
          <path id="Trazado_515" data-name="Trazado 515" d="M103.657,332.893s-.385,25.1,2.305,28.806,115.653,3.293,119.5,2.469,1.536-32.1,1.536-32.1S103.272,328.778,103.657,332.893Z" transform="translate(-52.954 -316.909)" fill="#493558"/>
          <path id="Trazado_516" data-name="Trazado 516" d="M66.1,317.3l-.937,61.33s7.962.482,9.368.482.937-62.778.937-62.778Z" transform="translate(-50.521 -315.993)" fill="#493558"/>
          <path id="Trazado_517" data-name="Trazado 517" d="M84.6,317.275l-.937,59.484s7.962.468,9.368.468.937-60.889.937-60.889Z" transform="translate(-51.691 -315.993)" fill="#493558"/>
        </g>
        <g id="Grupo_317" data-name="Grupo 317" transform="translate(24.195 201.885)">
          <path id="Trazado_518" data-name="Trazado 518" d="M58.346,255.453s160.575.064,167.5,0c11.626-.108,23.749,1.468,25.677,4.576s7.63,49.75-2.024,52.8S55.45,313.841,51.588,313.841s-1.448-51.788.483-54.326S52.072,256.468,58.346,255.453Z" transform="translate(-45.758 -255.447)" fill="#493558"/>
          <path id="Trazado_519" data-name="Trazado 519" d="M50.336,266.838s170.49.468,172.364,3.747,4.215,33.255-4.215,36.065-165.806,3.747-170.022.937S44.247,267.775,50.336,266.838Z" transform="translate(-45.503 -256.168)" fill="#fefada"/>
          <path id="Trazado_520" data-name="Trazado 520" d="M165.075,278.016c-9.726,0-19.094-.336-26.914-.617-6.656-.239-11.913-.426-15.363-.344-18.985.463-71.6.932-72.133.937l0-.468c.529,0,53.145-.474,72.127-.937,3.462-.084,8.728.1,15.391.344,9.648.347,21.651.779,33.774.557,25.547-.466,50.6-.9,50.6-.9l.007.468s-25.055.435-50.6.9C169.656,278,167.355,278.016,165.075,278.016Z" transform="translate(-45.829 -256.783)" fill="#d3d0b1"/>
          <path id="Trazado_521" data-name="Trazado 521" d="M112.029,288.092c-23.36,0-63.335-.777-63.872-.788l.009-.468c.717.015,71.737,1.394,79.593.47,3.816-.45,24.035-1.2,45.44-2,22.743-.849,46.259-1.726,48.685-2.211l.092.459c-2.463.492-26,1.37-48.759,2.219-21.4.8-41.605,1.552-45.4,2C125.833,288,119.864,288.092,112.029,288.092Z" transform="translate(-45.671 -257.196)" fill="#d3d0b1"/>
          <path id="Trazado_522" data-name="Trazado 522" d="M94,295.745c-22.181,0-45.988-.407-46.346-.413l.007-.468c.539.01,54.1.926,75.4,0,18.419-.8,98.313-3.778,99.849-3.266l-.148.444c-1.68-.429-75.609,2.244-99.68,3.291C115.943,295.642,105.179,295.745,94,295.745Z" transform="translate(-45.639 -257.73)" fill="#d3d0b1"/>
          <path id="Trazado_523" data-name="Trazado 523" d="M93.978,304.075c-21.6,0-42.945-.3-43.319-.3l.007-.468c.66.01,66.234.921,83.818-.467,6.676-.527,19.811-.727,33.717-.939,23.342-.356,49.8-.759,54.736-2.793l.178.434c-5.02,2.066-31.523,2.47-54.906,2.826-13.9.213-27.025.411-33.688.938C126.921,303.9,110.378,304.075,93.978,304.075Z" transform="translate(-45.829 -258.208)" fill="#d3d0b1"/>
          <path id="Trazado_524" data-name="Trazado 524" d="M193.14,300.143s-16.862-22.014-14.988-22.951,31.85-3.747,31.381-.937S195.014,300.143,193.14,300.143Z" transform="translate(-53.882 -256.686)" fill="#6a8185"/>
          <path id="Trazado_525" data-name="Trazado 525" d="M166.14,317.143s-16.862-22.014-14.988-22.951,31.85-3.747,31.381-.937S168.014,317.143,166.14,317.143Z" transform="translate(-52.175 -257.762)" fill="#ca9661"/>
          <path id="Trazado_526" data-name="Trazado 526" d="M99.662,266.3s5.621,57.142,5.621,60.421,6.557-14.988,6.557-14.988,5.639,15.07,7.377,14.361,4.8-57.452,1.991-59.326S99.662,266.3,99.662,266.3Z" transform="translate(-48.928 -256.102)" fill="#b94d59"/>
        </g>
        <g id="Grupo_318" data-name="Grupo 318" transform="translate(338.32 122.648)">
          <path id="Trazado_527" data-name="Trazado 527" d="M438.588,179.711s21.8,162.376,24.177,169.3,3.458,33.915-12.82,34.425c-3.8.119-35.617,13.383-40.125-11.2C407.893,361.722,381.3,183.3,380.838,179.238s47.959-9.732,50.793-8S436.789,173.236,438.588,179.711Z" transform="translate(-380.834 -170.865)" fill="#ca9661"/>
          <path id="Trazado_528" data-name="Trazado 528" d="M405.448,348.616s50.614-10,54.327-8.411,5.564,24.309,6.573,33.346-4.774,20.68-20.013,22.826-34,4.738-36.384-16.484C408.174,364.026,405.448,348.616,405.448,348.616Z" transform="translate(-382.391 -181.56)" fill="#c37e59"/>
          <path id="Trazado_529" data-name="Trazado 529" d="M390.5,178.149s26.873,192.52,31.1,195.838,31.642-1.445,32.129-5.414c.993-8.082-25.6-193.087-28.573-196.348S388.288,171.8,390.5,178.149Z" transform="translate(-381.439 -170.861)" fill="#fefada"/>
          <path id="Trazado_530" data-name="Trazado 530" d="M429.52,376.282c-4.61-5.9-33.837-193.334-35.079-201.31l.463-.072c.3,1.952,30.449,195.289,34.985,201.094Z" transform="translate(-381.695 -171.117)" fill="#d3d0b1"/>
          <path id="Trazado_531" data-name="Trazado 531" d="M442.449,370.792c-.232-1.784-23.243-178.572-27.155-198.9l.46-.089c3.916,20.348,26.927,197.149,27.159,198.933Z" transform="translate(-383.014 -170.921)" fill="#d3d0b1"/>
          <path id="Trazado_532" data-name="Trazado 532" d="M450.887,373.579l-.468-.021c.476-10.444-22.93-199.309-23.167-201.215l.465-.058C427.953,174.192,451.364,363.1,450.887,373.579Z" transform="translate(-383.77 -170.951)" fill="#d3d0b1"/>
          <path id="Trazado_533" data-name="Trazado 533" d="M438.62,373.11c-.343-1.838-34.22-184-33.413-201.735l.468.022c-.8,17.679,33.062,199.79,33.4,201.628Z" transform="translate(-382.375 -170.894)" fill="#d3d0b1"/>
        </g>
        <g id="Grupo_319" data-name="Grupo 319" transform="translate(287.278 124.849)">
          <path id="Trazado_534" data-name="Trazado 534" d="M383.569,186.071s1,163.83,2.475,171-.879,34.08-17.088,32.518c-3.782-.364-37.029,8.749-38.377-16.21-.576-10.67-4.283-191.027-4.231-195.112s48.807-3.56,51.4-1.484S382.608,179.42,383.569,186.071Z" transform="translate(-326.346 -173.337)" fill="#6e6c7b"/>
          <path id="Trazado_535" data-name="Trazado 535" d="M329.239,349.48s51.474-3.488,54.956-1.442,1.138,23.712.99,32.8-6.068,21.014-21.456,21.206-34.12.281-32.323-21A116.862,116.862,0,0,0,329.239,349.48Z" transform="translate(-326.529 -184.227)" fill="#57495b"/>
          <path id="Trazado_536" data-name="Trazado 536" d="M336.083,178.243s2.2,194.374,5.967,198.2,31.569,2.586,32.557-1.289c2.011-7.89-.861-194.774-3.4-198.387S334.7,171.661,336.083,178.243Z" transform="translate(-326.96 -173.241)" fill="#fefada"/>
          <path id="Trazado_537" data-name="Trazado 537" d="M349.675,379.551c-3.823-6.439-9-196.067-9.222-204.136l.468-.013c.053,1.975,5.4,197.575,9.157,203.909Z" transform="translate(-327.239 -173.35)" fill="#d3d0b1"/>
          <path id="Trazado_538" data-name="Trazado 538" d="M363.2,375.748c0-1.8-.37-180.078-1.668-200.744l.467-.029c1.3,20.68,1.666,198.972,1.669,200.771Z" transform="translate(-328.571 -173.323)" fill="#d3d0b1"/>
          <path id="Trazado_539" data-name="Trazado 539" d="M371.038,379.584l-.461-.081c1.8-10.3,2.573-200.606,2.581-202.527l.468,0C373.619,178.9,372.843,369.247,371.038,379.584Z" transform="translate(-329.144 -173.449)" fill="#d3d0b1"/>
          <path id="Trazado_540" data-name="Trazado 540" d="M359.067,377.557c-.1-1.868-10.568-186.859-7.514-204.346l.461.081c-3.044,17.435,7.415,202.373,7.521,204.238Z" transform="translate(-327.905 -173.211)" fill="#d3d0b1"/>
        </g>
        <g id="Grupo_320" data-name="Grupo 320" transform="translate(224.43 124.817)">
          <path id="Trazado_541" data-name="Trazado 541" d="M323.551,181.82s1.427,170.045,3.22,177.166,3.071,24.016-.287,26.111-58.41,10.079-61.923-.08-4.839-205.23-4.913-209.314,56.536-2.448,59.346-.45S322.321,175.2,323.551,181.82Z" transform="translate(-259.28 -173.177)" fill="#493558"/>
          <path id="Trazado_542" data-name="Trazado 542" d="M259.5,189.338h61.538s.661,8.239,0,8.239-58.56.687-60.545.23S259.5,189.338,259.5,189.338Z" transform="translate(-259.255 -174.199)" fill="#b94d59"/>
          <path id="Trazado_543" data-name="Trazado 543" d="M259.5,205.026h61.538s.661,8.239,0,8.239-58.56.687-60.545.229S259.5,205.026,259.5,205.026Z" transform="translate(-259.255 -175.191)" fill="#b94d59"/>
          <path id="Trazado_544" data-name="Trazado 544" d="M278.6,231.077h31.12s.962,113.592.628,113.592S280.1,348.2,279.1,342.2,278.6,231.077,278.6,231.077Z" transform="translate(-260.471 -176.838)" fill="#b94d59"/>
        </g>
        <g id="Grupo_322" data-name="Grupo 322" transform="translate(192.471 0)">
          <path id="Trazado_545" data-name="Trazado 545" d="M241.941,116.068s4.636,9.157,16.239,16.885,25.186-8.443,25.186-8.443S246.887,112.532,241.941,116.068Z" transform="translate(-226.202 -44.707)" fill="#e7bd9f"/>
          <path id="Trazado_546" data-name="Trazado 546" d="M323.989,67.482s-2.9,10.907-1.746,14.616,14.813,4.715,19.283,10.173-8.171,54.972-8.25,58.411-48.325-2.8-54.285-5.684,10.247-52.9,16-57.371,11.391-.3,14.185-5.529a17.873,17.873,0,0,0,1.6-10.943Z" transform="translate(-228.463 -41.675)" fill="#e7bd9f"/>
          <g id="Grupo_321" data-name="Grupo 321" transform="translate(77.618)">
            <path id="Trazado_547" data-name="Trazado 547" d="M333.367,54.89s-5.286,23.293-16.838,19.426c-7.947-2.66-7-17.568-2.61-23.081S330.492,48.243,333.367,54.89Z" transform="translate(-308.161 -40.457)" fill="#e7bd9f"/>
            <ellipse id="Elipse_26" data-name="Elipse 26" cx="0.958" cy="0.742" rx="0.958" ry="0.742" transform="matrix(0.317, -0.948, 0.948, 0.317, 7.89, 20.72)" fill="#34263b"/>
            <ellipse id="Elipse_27" data-name="Elipse 27" cx="0.958" cy="0.742" rx="0.958" ry="0.742" transform="matrix(0.317, -0.948, 0.948, 0.317, 15.243, 23.177)" fill="#34263b"/>
            <path id="Trazado_548" data-name="Trazado 548" d="M329.9,66.446s2.6-3.4,3.74-1.156-2.307,6.227-3.933,5.655S328.605,67.756,329.9,66.446Z" transform="translate(-309.307 -41.488)" fill="#e7bd9f"/>
            <path id="Trazado_549" data-name="Trazado 549" d="M326.116,59.757a2.4,2.4,0,0,1,2.191,2.318C328.511,63.416,324.088,59.633,326.116,59.757Z" transform="translate(-309.11 -41.187)" fill="#34263b"/>
            <path id="Trazado_550" data-name="Trazado 550" d="M319.338,57.338a2.4,2.4,0,0,0-3.19.022C315.039,58.14,320.831,58.716,319.338,57.338Z" transform="translate(-308.504 -40.997)" fill="#34263b"/>
            <path id="Trazado_551" data-name="Trazado 551" d="M311.886,60.568s-.012-4.285-2.277-3.184-1.932,6.353-.291,6.882S312.127,62.4,311.886,60.568Z" transform="translate(-307.998 -41.025)" fill="#e7bd9f"/>
            <path id="Trazado_552" data-name="Trazado 552" d="M317.8,47.13s-2.2,9.1-6.642,11.091C311.156,58.221,303.531,47.623,317.8,47.13Z" transform="translate(-308.069 -40.388)" fill="#323044"/>
            <path id="Trazado_553" data-name="Trazado 553" d="M332.74,51.976s-3.715,8.593-1.36,12.856C331.38,64.832,343.845,60.946,332.74,51.976Z" transform="translate(-309.427 -40.695)" fill="#323044"/>
            <path id="Trazado_554" data-name="Trazado 554" d="M334.575,53.079s3.092-6.4-1.4-10.084-14.35,1.566-14.9-2.479c-.349-2.557-3.284,4.032.951,5.508,0,0-4.243-3.708-4.424-2.892C313.04,51.033,329.839,59.2,334.575,53.079Z" transform="translate(-308.42 -39.933)" fill="#323044"/>
            <path id="Trazado_555" data-name="Trazado 555" d="M323.01,50.909c-.186-.062-.375-.127-.567-.2-3.351-1.215-4.514-2.553-4.9-3.46a1.934,1.934,0,0,1-.1-1.465l.291.13-.145-.065.145.064a1.631,1.631,0,0,0,.107,1.226c.366.846,1.481,2.1,4.71,3.271a23.7,23.7,0,0,0,6.127,1.311c1.918.2,3.075.318,3.3,1.933l-.315.044c-.193-1.368-1.08-1.459-3.02-1.66A24.4,24.4,0,0,1,323.01,50.909Z" transform="translate(-308.589 -40.303)" fill="#493558"/>
            <path id="Trazado_556" data-name="Trazado 556" d="M333.705,52.043c0-.027-.031-2.659-4.284-4.646a6.2,6.2,0,0,0-4.321-.3,2.809,2.809,0,0,1-2.182-.067c-.595-.393-1-1.274-1.313-2.856l.312-.062c.292,1.473.666,2.315,1.177,2.652.493.327,1.133.192,1.941.021a6.483,6.483,0,0,1,4.521.319c4.455,2.081,4.469,4.821,4.468,4.938Z" transform="translate(-308.858 -40.198)" fill="#493558"/>
            <path id="Trazado_557" data-name="Trazado 557" d="M319.675,67.922a3.507,3.507,0,0,1-1.328-2.76l.468.015a3.5,3.5,0,0,0,.9,2.217,43.917,43.917,0,0,0,1.564-5.005l.452.121c-.915,3.416-1.534,5.231-1.84,5.393Z" transform="translate(-308.652 -41.353)" fill="#c87d79"/>
            <path id="Trazado_558" data-name="Trazado 558" d="M319.119,70.789a2.291,2.291,0,0,1-.548-.067c-2.016-.5-2.825-3.607-2.858-3.738l.453-.115c.007.029.774,2.969,2.518,3.4.971.24,2.094-.342,3.34-1.728l.348.313C321.216,70.14,320.123,70.789,319.119,70.789Z" transform="translate(-308.486 -41.637)" fill="#c87d79"/>
            <path id="Trazado_559" data-name="Trazado 559" d="M310.45,63.136,310,63c.829-2.722-.186-3.408-.2-3.414l.241-.4C310.1,59.216,311.4,60.021,310.45,63.136Z" transform="translate(-308.112 -41.151)" fill="#c87d79"/>
            <path id="Trazado_560" data-name="Trazado 560" d="M330.2,69.8l-.44-.16c1.114-3.062,2.635-2.922,2.7-2.916l-.053.466.026-.232-.022.233C332.414,67.2,331.178,67.118,330.2,69.8Z" transform="translate(-309.374 -41.627)" fill="#c87d79"/>
          </g>
          <path id="Trazado_561" data-name="Trazado 561" d="M347.921,235.8s-4.818,13.564-2.393,18.8,8.357,7.875,11.635,7.339-4.142-8.1-4.84-13.037S354.51,235.8,354.51,235.8Z" transform="translate(-232.71 -52.32)" fill="#44324e"/>
          <path id="Trazado_562" data-name="Trazado 562" d="M334.611,236.93s-4.818,13.563-2.393,18.8,8.357,7.874,11.635,7.338-4.141-8.1-4.839-13.037,2.185-13.1,2.185-13.1Z" transform="translate(-231.868 -52.391)" fill="#44324e"/>
          <path id="Trazado_563" data-name="Trazado 563" d="M301.949,169.567s6.591-18.01,24.65-13.753,23.8,77.136,14.531,83.51c-3.633,2.5-16.272.6-16.5-2.687C322.129,201.238,300.706,184.475,301.949,169.567Z" transform="translate(-229.994 -47.22)" fill="#ca9661"/>
          <path id="Trazado_564" data-name="Trazado 564" d="M319.559,156.7s29.448-4.209,42.615,8.862,3.92,69.419-7.339,74.386c-4.246,1.874-11.693-1.071-11.693-1.071C340.362,235.1,310.7,168.759,319.559,156.7Z" transform="translate(-231.007 -47.277)" fill="#ca9661"/>
          <path id="Trazado_565" data-name="Trazado 565" d="M344.385,238.924l-.441-.16c2.108-5.786,7.859-44.16,3.3-65.609-2.392-11.24-6.011-15.175-8.627-16.5a5.35,5.35,0,0,0-4.347-.379l-.195-.426a5.71,5.71,0,0,1,4.737.379c2.712,1.362,6.456,5.385,8.889,16.823C352.278,194.586,346.5,233.114,344.385,238.924Z" transform="translate(-232.028 -47.243)" fill="#a36e4c"/>
          <path id="Trazado_566" data-name="Trazado 566" d="M313.3,172.983s-30.645,1.369-35.752-2.749c-8.779-7.081,1.207-20,1.207-20l46.078,5.27S324.288,172.817,313.3,172.983Z" transform="translate(-228.225 -46.908)" fill="#ca9661"/>
          <path id="Trazado_567" data-name="Trazado 567" d="M305.794,85.279s.1,8.3,9.669,9.17c8.356.762,7.594-9.631,13.4-7.3s9.934.762,13.342,9.685-1.612,57.19-4.377,56.913-31.351-3.712-41.516,2.959c-8.465,5.555-24.316,10.293-22.988,3.2s4.712-59.924,9.563-67.5C285.977,87.566,303.374,85.5,305.794,85.279Z" transform="translate(-228.181 -42.801)" fill="#b94d59"/>
          <path id="Trazado_568" data-name="Trazado 568" d="M232.385,107.8s53.562-7.015,55.639-1.755,2.306,16.723,0,17.566-53.15,4.293-54.9,1.691S232.385,107.8,232.385,107.8Z" transform="translate(-225.579 -43.991)" fill="#ca9661"/>
          <path id="Trazado_569" data-name="Trazado 569" d="M230.838,91.231l57.126-.074c1.624,5.5,2.152,15.554-.3,15.7-16,.937-34.95,1.887-46.427,1.866-6.339-.012-10.4-.319-10.419-1.089C230.729,104.446,230.838,91.231,230.838,91.231Z" transform="translate(-225.496 -43.173)" fill="#c87d79"/>
          <path id="Trazado_570" data-name="Trazado 570" d="M229.433,73.008s57.207-4.634,58.839.78,1.008,15.28-1.361,15.929-41.061.156-56.214.511C227.56,90.3,229.433,73.008,229.433,73.008Z" transform="translate(-225.376 -41.908)" fill="#493558"/>
          <path id="Trazado_571" data-name="Trazado 571" d="M225.14,109.917s-.036-5.078.417-6.241c1.5-3.855,4.569-7.647,4.313-5.525s-.924,4.919-.924,4.919,2.094-4.4,2.711-4.025-.022,5.592-.022,5.592.938-4.748,2.234-3.406-1.969,4.715-2.217,11.363C231.47,117.463,226.147,116.011,225.14,109.917Z" transform="translate(-225.139 -43.576)" fill="#e7bd9f"/>
          <path id="Trazado_572" data-name="Trazado 572" d="M303.838,175.437a2.651,2.651,0,0,1-1.564-.358.956.956,0,0,1-.394-.737c-.171-2.674,9.968-5.85,11.125-6.2l.137.448c-3.045.93-10.92,3.772-10.8,5.725a.5.5,0,0,0,.21.393c.9.673,4.186-.061,7.368-.769a37.207,37.207,0,0,1,6.9-1.136h.077l0,.468h-.074a36.987,36.987,0,0,0-6.8,1.125A34.132,34.132,0,0,1,303.838,175.437Z" transform="translate(-229.992 -48.041)" fill="#a36e4c"/>
          <path id="Trazado_573" data-name="Trazado 573" d="M326.067,239.048l-.465-.06c.516-3.956.97-15.624-5.925-38.478-4.246-14.076-9.54-26.032-12.874-29.074-.61-.557-1.127-.792-1.533-.7-5.714,1.281-21.134-2-21.79-2.142l.1-.459c.158.035,15.972,3.4,21.589,2.144a2.3,2.3,0,0,1,1.95.812c3.389,3.093,8.738,15.136,13.007,29.285C322.431,208.016,327.626,227.083,326.067,239.048Z" transform="translate(-228.829 -48.041)" fill="#a36e4c"/>
          <path id="Trazado_574" data-name="Trazado 574" d="M333.712,102.247s9.941,8.026,12.828,15.633-15.351,26.981-23.159,27.936S273.527,124,273.235,122.048s.06-8.377,2.668-8.09c3.811.42,31.45,10.035,41.281,11.487C322.258,126.2,327.443,100.4,333.712,102.247Z" transform="translate(-228.176 -43.868)" fill="#e7bd9f"/>
          <path id="Trazado_575" data-name="Trazado 575" d="M321.719,115.367s22.272,4.719,26.674,10.426c2.187,2.836,5.9-9.876,5.591-20.2s-19.021-19.246-22.059-18.32S321.719,115.367,321.719,115.367Z" transform="translate(-231.247 -42.922)" fill="#b94d59"/>
          <path id="Trazado_576" data-name="Trazado 576" d="M327.955,111.752l-.465-.061c.062-.46,1.524-11.283,4.63-14.555s8.846-4.451,9.089-4.5l.091.459c-.057.012-5.84,1.2-8.84,4.362S327.97,111.641,327.955,111.752Z" transform="translate(-231.612 -43.266)" fill="#9b434c"/>
          <path id="Trazado_577" data-name="Trazado 577" d="M277.949,161.954l-.438-.161c.116-.32,3.079-7.846,22.085-8.844a210.314,210.314,0,0,1,24.588.333c5.941.346,10.232.6,12.894-.1l.119.452c-2.733.715-7.058.463-13.04.114a210.5,210.5,0,0,0-24.537-.333C280.97,154.4,277.978,161.88,277.949,161.954Z" transform="translate(-228.451 -47.066)" fill="#9b434c"/>
          <path id="Trazado_578" data-name="Trazado 578" d="M318.291,99.944c-5.323,0-13.484-10.965-13.83-11.434l.377-.278c.083.113,8.366,11.244,13.452,11.244h.064c3.352-.063,7.11-5.027,9.6-8.311,1.646-2.172,2.407-3.13,2.928-3.024l-.088.46c-.318.01-1.459,1.517-2.466,2.846-2.542,3.357-6.383,8.431-9.962,8.5Z" transform="translate(-230.156 -42.981)" fill="#9b434c"/>
          <path id="Trazado_579" data-name="Trazado 579" d="M350.065,123.778c-.141-.1-14.309-9.608-23.858-7.659l-.094-.459c9.749-1.98,24.073,7.633,24.215,7.73Z" transform="translate(-231.525 -44.705)" fill="#9b434c"/>
          <path id="Trazado_580" data-name="Trazado 580" d="M313.23,73.4s2.59,3.406,5.675,3.351,5.992-2.838,5.992-2.838a27.839,27.839,0,0,0-.385,2.86c-.015.826-4.089,4.034-8.548,4.025-1.852,0-2.931-3.391-2.842-3.864A9.126,9.126,0,0,0,313.23,73.4Z" transform="translate(-230.703 -42.05)" fill="#c87d79"/>
          <path id="Trazado_581" data-name="Trazado 581" d="M227.762,77.29s51.212-1.985,53.187,0,1.976,8.51,0,9.229-52.579,1.025-53.187,1.106S226.588,77.334,227.762,77.29Z" transform="translate(-225.262 -42.24)" fill="#fefada"/>
          <path id="Trazado_582" data-name="Trazado 582" d="M237.452,95.26s49.867-1.78,51.791,0,1.924,7.628,0,8.273-51.2.919-51.791.992S236.309,95.3,237.452,95.26Z" transform="translate(-225.876 -43.382)" fill="#fefada"/>
          <path id="Trazado_583" data-name="Trazado 583" d="M240.6,126.611l-.586-16.714s-2.754-.536-3.372,0-.614,16.469,0,16.521S238.892,126.612,240.6,126.611Z" transform="translate(-225.838 -44.343)" fill="#493558"/>
          <path id="Trazado_584" data-name="Trazado 584" d="M248.031,126.611l-.586-16.714s-2.753-.536-3.371,0-.614,16.469,0,16.521S246.319,126.612,248.031,126.611Z" transform="translate(-226.307 -44.343)" fill="#493558"/>
          <path id="Trazado_585" data-name="Trazado 585" d="M280.506,124.608l-.373-16.72s-2.747-.571-3.371-.043-.823,16.46-.211,16.52S278.794,124.587,280.506,124.608Z" transform="translate(-228.367 -44.214)" fill="#493558"/>
          <path id="Trazado_586" data-name="Trazado 586" d="M287.933,124.7l-.374-16.72s-2.747-.571-3.371-.043-.823,16.46-.211,16.52S286.221,124.682,287.933,124.7Z" transform="translate(-228.837 -44.22)" fill="#493558"/>
          <path id="Trazado_587" data-name="Trazado 587" d="M288.333,118.347s-12.282-4.1-16.357-4.807-9.347-.759-7.414.153,4.657,1.833,4.657,1.833-4.836-.564-4.851.156,4.747,2.956,4.747,2.956-5.513-2.117-5.066-.305,10.853,6.066,14.479,8.49C282.579,129.53,293.022,121.248,288.333,118.347Z" transform="translate(-227.598 -44.555)" fill="#e7bd9f"/>
          <path id="Trazado_588" data-name="Trazado 588" d="M338.225,253.908a19.485,19.485,0,0,1-4.112-.559l.115-.453c1.34.339,5.057,1.008,6.153.05l.307.353A3.9,3.9,0,0,1,338.225,253.908Z" transform="translate(-232.031 -53.401)" fill="#fefada"/>
          <path id="Trazado_589" data-name="Trazado 589" d="M339.259,256.543a9.984,9.984,0,0,1-2.791-.46l.146-.444c.031.009,2.968.957,4.425.024l.252.4A3.794,3.794,0,0,1,339.259,256.543Z" transform="translate(-232.18 -53.575)" fill="#fefada"/>
          <path id="Trazado_590" data-name="Trazado 590" d="M352.261,252.892a19.487,19.487,0,0,1-4.112-.559l.115-.453c1.34.339,5.058,1.008,6.153.051l.307.353A3.9,3.9,0,0,1,352.261,252.892Z" transform="translate(-232.919 -53.337)" fill="#fefada"/>
          <path id="Trazado_591" data-name="Trazado 591" d="M353.295,255.527a10.045,10.045,0,0,1-2.791-.459l.146-.445c.03.01,2.967.959,4.425.024l.252.4A3.794,3.794,0,0,1,353.295,255.527Z" transform="translate(-233.068 -53.51)" fill="#fefada"/>
          <path id="Trazado_592" data-name="Trazado 592" d="M360.444,240.879c-.409-.016-10.048-.415-13.257-2.375l.243-.4c3.108,1.9,12.934,2.3,13.032,2.306Z" transform="translate(-232.858 -52.466)" fill="#a36e4c"/>
          <path id="Trazado_593" data-name="Trazado 593" d="M338.378,238.337c-4.629,0-10.826-.127-12.609-.166l.01-.468c6.779.148,17.1.276,17.756.024l.216.415A34.96,34.96,0,0,1,338.378,238.337Z" transform="translate(-231.503 -52.44)" fill="#a36e4c"/>
          <path id="Trazado_594" data-name="Trazado 594" d="M227.006,80.659l-.022-.467c.136-.007,13.66-.625,19.839-.625,4.4,0,19.367-.155,28.309-.247,3.711-.038,6.341-.066,6.663-.066v.468c-.322,0-2.951.027-6.658.066-8.942.093-23.909.247-28.314.247C240.655,80.035,227.141,80.654,227.006,80.659Z" transform="translate(-225.256 -42.42)" fill="#d3d0b1"/>
          <path id="Trazado_595" data-name="Trazado 595" d="M246.128,85.671c-7.679,0-18.33-.259-18.472-.262l.011-.468c.191,0,19.1.465,24.649.156s28.953-2.321,29.189-2.342l.04.467c-.236.021-23.644,2.035-29.2,2.343C250.945,85.642,248.7,85.671,246.128,85.671Z" transform="translate(-225.298 -42.641)" fill="#d3d0b1"/>
          <path id="Trazado_596" data-name="Trazado 596" d="M250.64,99.6c-6.436,0-13.875-.271-13.987-.275l.017-.468c.17.007,16.9.617,21.82,0,4.953-.619,31.454-.935,31.721-.939l.006.468c-.267,0-26.742.319-31.668.935A77.245,77.245,0,0,1,250.64,99.6Z" transform="translate(-225.867 -43.6)" fill="#d3d0b1"/>
          <path id="Trazado_597" data-name="Trazado 597" d="M237.5,102.957l0-.468c.259,0,25.942-.165,29.933-.933,4.036-.776,22.227-.483,23-.472l-.007.468c-.189,0-18.912-.3-22.9.464C263.482,102.792,238.556,102.951,237.5,102.957Z" transform="translate(-225.921 -43.796)" fill="#d3d0b1"/>
          <path id="Trazado_598" data-name="Trazado 598" d="M272.662,79.312s.312,14.832.468,16.081,3.122-5.465,3.122-5.465l3.435,5.777L280.313,79S273.13,78.687,272.662,79.312Z" transform="translate(-228.145 -42.399)" fill="#b94d59"/>
        </g>
        <g id="Grupo_323" data-name="Grupo 323" transform="translate(50.571 183.891)">
          <path id="Trazado_599" data-name="Trazado 599" d="M249.749,248.2s-10.727-4.555-15.1,10.587-4.192,21.367,2.706,23.534,8.193-3.481,13.584-1.361,14.9,3.061,16.443-3.454S264.271,241.107,249.749,248.2Z" transform="translate(-83.654 -236.927)" fill="#b94d59"/>
          <path id="Trazado_600" data-name="Trazado 600" d="M256.289,258.024s-2.422,22.908,1.46,26.328,19.6-1.773,23.777,4.814,2.93,55.5,2.93,55.5H218.183s1.119-56.352,4.56-58.814,19.574,3.465,20.416-6.2c.4-4.627.839-17.712.839-17.712Z" transform="translate(-82.799 -237.616)" fill="#e7bd9f"/>
          <path id="Trazado_601" data-name="Trazado 601" d="M245.211,276.185s6.984,5.534,12.036-2.983c0,0-.114,5.153.052,5.973s-4.961,5.265-5.758,5.265c-2.119,0-6.5-5.032-6.5-5.032Z" transform="translate(-84.497 -238.576)" fill="#c87d79"/>
          <path id="Trazado_602" data-name="Trazado 602" d="M237.518,287.068s4.006,13.557,11.224,14.611,8.99-15.082,11.054-14.611,13.257-5.1,18.269,2.853,4.574,70.271,4.574,70.271H218.183s1.241-58.679,2.9-65.511S233.751,286.157,237.518,287.068Z" transform="translate(-82.799 -239.361)" fill="#7f6873"/>
          <path id="Trazado_603" data-name="Trazado 603" d="M260.337,255.329s1.067,23.861-11.1,23.189c-8.367-.463-11.4-15.089-8.625-21.567S255.806,249.679,260.337,255.329Z" transform="translate(-84.154 -237.207)" fill="#e7bd9f"/>
          <ellipse id="Elipse_28" data-name="Elipse 28" cx="0.958" cy="0.742" rx="0.958" ry="0.742" transform="translate(160.695 30.629) rotate(-86.867)" fill="#44324e"/>
          <ellipse id="Elipse_29" data-name="Elipse 29" cx="0.958" cy="0.742" rx="0.958" ry="0.742" transform="translate(168.869 30.629) rotate(-86.867)" fill="#44324e"/>
          <path id="Trazado_604" data-name="Trazado 604" d="M259.929,267.545s1.608-3.971,3.3-2.1-.577,6.614-2.3,6.494S259.022,269.152,259.929,267.545Z" transform="translate(-85.405 -238.054)" fill="#e7bd9f"/>
          <path id="Trazado_605" data-name="Trazado 605" d="M254.433,262.156a2.4,2.4,0,0,1,2.727,1.656C257.71,265.051,252.444,262.573,254.433,262.156Z" transform="translate(-85.063 -237.875)" fill="#b94d59"/>
          <path id="Trazado_606" data-name="Trazado 606" d="M247.024,262.421a2.406,2.406,0,0,0-3.071.866C243.09,264.333,248.828,263.356,247.024,262.421Z" transform="translate(-84.423 -237.879)" fill="#b94d59"/>
          <path id="Trazado_607" data-name="Trazado 607" d="M240.972,266.672s-1.145-4.127-3.039-2.466-.182,6.637,1.54,6.713S241.688,268.372,240.972,266.672Z" transform="translate(-83.995 -237.982)" fill="#e7bd9f"/>
          <path id="Trazado_608" data-name="Trazado 608" d="M250.9,271.949l-.094,0a1.8,1.8,0,0,1-1.918-1.281l.456-.11c.18.748.812.891,1.423.921a51.349,51.349,0,0,0-.313-5.87l.467-.042c.361,3.941.423,6.062.185,6.305Z" transform="translate(-84.74 -238.093)" fill="#c87d79"/>
          <path id="Trazado_609" data-name="Trazado 609" d="M250,274.732c-2.048,0-3.622-2.731-3.688-2.849l.408-.23c.014.026,1.5,2.611,3.28,2.611h.047c1-.025,1.93-.883,2.765-2.55l.419.21c-.92,1.833-1.987,2.778-3.173,2.808Z" transform="translate(-84.578 -238.478)" fill="#c87d79"/>
          <path id="Trazado_610" data-name="Trazado 610" d="M240.223,269.568l-.468-.012c.081-2.846-1.081-3.237-1.093-3.241l.126-.452C238.849,265.88,240.314,266.313,240.223,269.568Z" transform="translate(-84.094 -238.112)" fill="#c87d79"/>
          <path id="Trazado_611" data-name="Trazado 611" d="M261.078,270.729l-.466-.038c.264-3.246,1.768-3.517,1.831-3.527l.076.462C262.507,267.629,261.31,267.891,261.078,270.729Z" transform="translate(-85.482 -238.194)" fill="#c87d79"/>
          <path id="Trazado_612" data-name="Trazado 612" d="M237.8,262.081s1.21,1.571,4.1.178c7.288-3.515,8.782-11.477,8.782-11.477s.706,5.5,1.758,7.377,6.178,5.443,7.362,5.121,4.321-7.167-1.814-11.94-7.694-2.915-11.306-1.444S234.876,257.1,237.8,262.081Z" transform="translate(-84 -237)" fill="#b94d59"/>
          <circle id="Elipse_30" data-name="Elipse 30" cx="6.835" cy="6.835" r="6.835" transform="translate(160.318)" fill="#b94d59"/>
          <path id="Trazado_613" data-name="Trazado 613" d="M249.77,302s-6.074-16.4-10.044-14.287-7.2,14.05-3.945,16.161S249.77,302,249.77,302Z" transform="translate(-83.827 -239.482)" fill="#fefada"/>
          <path id="Trazado_614" data-name="Trazado 614" d="M252.1,302s6.075-16.4,10.045-14.287,7.2,14.05,3.945,16.161S252.1,302,252.1,302Z" transform="translate(-84.944 -239.482)" fill="#fefada"/>
          <path id="Trazado_615" data-name="Trazado 615" d="M267,286.256s-1.748,54.192,1.337,60.16,17.7,3.4,19.354-1.292-.862-47.663-1.983-50.938S280.776,283.423,267,286.256Z" transform="translate(-85.855 -239.362)" fill="#ca9661"/>
          <path id="Trazado_616" data-name="Trazado 616" d="M237.592,286.256s1.748,54.192-1.337,60.16-17.7,3.4-19.354-1.292.862-47.663,1.983-50.938S223.812,283.423,237.592,286.256Z" transform="translate(-82.683 -239.362)" fill="#ca9661"/>
          <path id="Trazado_617" data-name="Trazado 617" d="M181.941,370.293s-8.028-36.18,14.763-36.846,72.491,40.58,56.521,55.416S183.056,398.547,181.941,370.293Z" transform="translate(-80.42 -242.386)" fill="#6a8185"/>
          <path id="Trazado_618" data-name="Trazado 618" d="M320.308,370.287s4.49-36.265-18.3-36.93-78.086,40.664-62.116,55.5S319.194,398.541,320.308,370.287Z" transform="translate(-83.991 -242.38)" fill="#6a8185"/>
          <path id="Trazado_619" data-name="Trazado 619" d="M80.574,396.182h164.8s-15.779-55.689-63.991-55.308S113.008,386,77.068,361.36C77.068,361.36,67.426,384.488,80.574,396.182Z" transform="translate(-73.659 -242.856)" fill="#fefada"/>
          <path id="Trazado_620" data-name="Trazado 620" d="M407.833,396.182h-164.8s15.779-55.689,63.991-55.308S375.4,386,411.34,361.36C411.34,361.36,420.982,384.488,407.833,396.182Z" transform="translate(-84.37 -242.856)" fill="#fefada"/>
          <path id="Trazado_621" data-name="Trazado 621" d="M234.791,285.65s-.011-6.185-1.245-10.133-1.976-9.167-.819-7.37,2.427,4.377,2.427,4.377-1.192-4.72-.481-4.829,3.552,4.319,3.552,4.319-2.308-4.255-.453-4.049,11,11.573,5.842,22C241.455,294.334,238.28,289.92,234.791,285.65Z" transform="translate(-83.682 -238.228)" fill="#dc9a8e"/>
          <path id="Trazado_622" data-name="Trazado 622" d="M231.891,283.739s8.889,1.012,11.527,5.792-20.709,50.443-31.387,50.711-16.221-8.162-17.9-10.036S222.617,279.9,231.891,283.739Z" transform="translate(-81.274 -239.229)" fill="#ca9661"/>
          <path id="Trazado_623" data-name="Trazado 623" d="M265.385,285.65s.011-6.185,1.245-10.133,1.975-9.167.819-7.37-2.427,4.377-2.427,4.377,1.192-4.72.481-4.829-3.552,4.319-3.552,4.319,2.308-4.255.453-4.049-10.915,13.543-5.842,22C259.069,294.144,261.9,289.92,265.385,285.65Z" transform="translate(-85.13 -238.228)" fill="#dc9a8e"/>
          <path id="Trazado_624" data-name="Trazado 624" d="M265.292,283.739s-8.889,1.012-11.527,5.792,20.709,50.443,31.387,50.711,16.221-8.162,17.9-10.036S274.566,279.9,265.292,283.739Z" transform="translate(-85.036 -239.229)" fill="#ca9661"/>
          <path id="Trazado_625" data-name="Trazado 625" d="M229.2,286.256s-4.424,38.2-7.509,44.167-25.906,4.611-27.565-.083,15.245-32.879,16.366-36.154S215.423,283.423,229.2,286.256Z" transform="translate(-81.27 -239.362)" fill="#ca9661"/>
          <path id="Trazado_626" data-name="Trazado 626" d="M272.885,286.262s4.424,38.2,7.509,44.167,22.221,4.611,23.88-.083-14.5-32.615-15.622-35.89S285.26,283.661,272.885,286.262Z" transform="translate(-86.258 -239.368)" fill="#ca9661"/>
          <path id="Trazado_627" data-name="Trazado 627" d="M298.154,320.334c-7.324-17.623-21.18-32.9-25.323-33.823l.1-.457c4.77,1.066,18.733,17.446,25.653,34.1Z" transform="translate(-86.255 -239.389)" fill="#a36e4c"/>
          <path id="Trazado_628" data-name="Trazado 628" d="M275.758,335.02c-.078-.131-7.8-13.118-9.44-14.944l.348-.313c1.675,1.859,9.176,14.481,9.5,15.017Z" transform="translate(-85.843 -241.521)" fill="#a36e4c"/>
          <path id="Trazado_629" data-name="Trazado 629" d="M233.746,273.372l-.164-.439c.171-.064,4.193-1.543,5.756-.762l-.211.419C237.981,272.014,234.854,272.958,233.746,273.372Z" transform="translate(-83.773 -238.497)" fill="#c87d79"/>
          <path id="Trazado_630" data-name="Trazado 630" d="M243.994,297.019c-2.452-3.855-17.592-10.169-17.745-10.233l.179-.432c.63.261,15.43,6.436,17.961,10.415Z" transform="translate(-83.309 -239.408)" fill="#a36e4c"/>
          <path id="Trazado_631" data-name="Trazado 631" d="M199.7,320.254l-.43-.185c3.863-9.032,21.264-28.7,21.44-28.9l.35.311C220.886,291.677,203.535,311.292,199.7,320.254Z" transform="translate(-81.603 -239.712)" fill="#a36e4c"/>
          <path id="Trazado_632" data-name="Trazado 632" d="M222.507,336.195l-.349-.311c.131-.147,13.121-14.78,15.3-24.28l.456.1C235.708,321.326,222.639,336.048,222.507,336.195Z" transform="translate(-83.05 -241.005)" fill="#a36e4c"/>
          <rect id="Rectngulo_157" data-name="Rectngulo 157" width="319.042" height="16.707" transform="translate(6.915 153.327)" fill="#c87d79"/>
          <path id="Trazado_633" data-name="Trazado 633" d="M209.181,341.959c-4.677,0-10.332-1.688-13.437-8.788a.319.319,0,0,1,.041-.353c.235-.264.828-.1,3.308.627,4.351,1.282,12.45,3.67,21.568,3.695v.468c-9.186-.024-17.325-2.424-21.7-3.713a27.306,27.306,0,0,0-2.7-.724c5.763,12.807,20.271,7.028,20.417,6.969l.178.434A22.747,22.747,0,0,1,209.181,341.959Z" transform="translate(-81.378 -242.339)" fill="#a36e4c"/>
          <path id="Trazado_634" data-name="Trazado 634" d="M255.148,295.878l-.236-.4c.5-.3,12.388-7.215,16.861-6.784l-.048.467C267.422,288.729,255.27,295.807,255.148,295.878Z" transform="translate(-85.122 -239.554)" fill="#a36e4c"/>
          <path id="Trazado_635" data-name="Trazado 635" d="M287.59,338.614a23.845,23.845,0,0,1-7.669-1.254l.169-.437c.15.057,15.018,5.609,22.965-7.421l.4.244A17.713,17.713,0,0,1,287.59,338.614Z" transform="translate(-86.703 -242.137)" fill="#a36e4c"/>
          <path id="Trazado_636" data-name="Trazado 636" d="M245.727,270.746a3.352,3.352,0,1,1,3.352-3.352A3.355,3.355,0,0,1,245.727,270.746Zm0-6.235a2.883,2.883,0,1,0,2.883,2.883A2.887,2.887,0,0,0,245.727,264.511Z" transform="translate(-84.329 -237.997)" fill="#fefada"/>
          <path id="Trazado_637" data-name="Trazado 637" d="M254.812,270.746a3.352,3.352,0,1,1,3.351-3.352A3.355,3.355,0,0,1,254.812,270.746Zm0-6.235a2.883,2.883,0,1,0,2.882,2.883A2.886,2.886,0,0,0,254.812,264.511Z" transform="translate(-84.903 -237.997)" fill="#fefada"/>
          <rect id="Rectngulo_158" data-name="Rectngulo 158" width="2.781" height="0.468" transform="translate(164.372 28.786)" fill="#fefada"/>
          <rect id="Rectngulo_159" data-name="Rectngulo 159" width="0.469" height="3.714" transform="translate(155.339 26.246) rotate(-56.611)" fill="#fefada"/>
          <path id="Trazado_638" data-name="Trazado 638" d="M258.442,266.352l-.167-.437,3.155-1.206.167.437Z" transform="translate(-85.334 -238.039)" fill="#fefada"/>
          <path id="Trazado_639" data-name="Trazado 639" d="M235.784,397.074c-12.632-27.244-24.291-40-38.987-42.639-14.116-2.541-30.394,4.211-52.923,13.549-5.417,2.244-11.018,4.567-17.078,6.964-23.428,9.268-39.186,10.761-46.836,4.436-5.92-4.9-4.482-12.879-4.467-12.96l.46.088c-.014.077-1.4,7.8,4.311,12.514,5.162,4.265,17.4,6.943,46.36-4.513,6.056-2.4,11.656-4.718,17.071-6.962,22.6-9.369,38.937-16.138,53.185-13.576,14.864,2.673,26.625,15.5,39.329,42.9Z" transform="translate(-73.765 -243.65)" fill="#d3d0b1"/>
          <path id="Trazado_640" data-name="Trazado 640" d="M228.143,399.115c-.185-.245-18.907-24.609-49.023-22.109-10.139.838-23.256,4.536-37.142,8.449-28.229,7.958-57.421,16.183-67.709,2.468l.375-.282c10.1,13.46,39.129,5.278,67.208-2.637,13.908-3.92,27.046-7.622,37.231-8.465,30.385-2.52,49.249,22.047,49.436,22.295Z" transform="translate(-73.698 -245.1)" fill="#d3d0b1"/>
          <path id="Trazado_641" data-name="Trazado 641" d="M144.253,399.532l-.162-.438c15.165-5.6,36.968-11.417,54.7-7.357,10.651,2.439,14.716,7.224,14.885,7.428l-.361.3c-.04-.05-4.162-4.886-14.68-7.281C188.914,389.967,171.585,389.443,144.253,399.532Z" transform="translate(-78.113 -245.987)" fill="#d3d0b1"/>
          <path id="Trazado_642" data-name="Trazado 642" d="M253.67,397.074l-.424-.2c12.7-27.4,24.464-40.23,39.329-42.9,14.242-2.567,30.581,4.206,53.184,13.576,5.415,2.244,11.014,4.566,17.071,6.962,15.987,6.324,37.007,12.241,46.361,4.513,5.709-4.717,4.324-12.437,4.31-12.514l.461-.088c.015.081,1.453,8.063-4.468,12.96-7.65,6.326-23.409,4.832-46.836-4.436-6.06-2.4-11.661-4.718-17.077-6.964-22.531-9.339-38.812-16.087-52.923-13.549C277.961,357.078,266.3,369.831,253.67,397.074Z" transform="translate(-85.016 -243.65)" fill="#d3d0b1"/>
          <path id="Trazado_643" data-name="Trazado 643" d="M261.758,399.115l-.374-.281c.187-.248,19.053-24.812,49.436-22.295,10.185.842,23.322,4.544,37.231,8.466,28.078,7.913,57.113,16.1,67.207,2.636l.375.282c-10.289,13.716-39.479,5.489-67.709-2.468-13.887-3.913-27-7.61-37.142-8.449C280.659,374.517,261.943,398.869,261.758,399.115Z" transform="translate(-85.531 -245.1)" fill="#d3d0b1"/>
          <path id="Trazado_644" data-name="Trazado 644" d="M351.362,399.533c-15.105-5.576-36.811-11.375-54.434-7.34-10.5,2.4-14.588,7.221-14.628,7.269l-.361-.3c.168-.2,4.234-4.988,14.885-7.428,9.787-2.239,27.226-2.786,54.7,7.357Z" transform="translate(-86.831 -245.987)" fill="#d3d0b1"/>
          <path id="Trazado_645" data-name="Trazado 645" d="M241.315,262.957l-.079-.461c.414-.071,10.131-1.85,9.46-12.4l.467-.03c.364,5.732-2.335,8.933-4.665,10.611A13.676,13.676,0,0,1,241.315,262.957Z" transform="translate(-84.257 -237.113)" fill="#b94d59"/>
          <path id="Trazado_646" data-name="Trazado 646" d="M246.7,247.856a3.567,3.567,0,0,1-2.7-2.493c-.643-3.025,3.721-7.044,3.907-7.213l.315.347c-.043.039-4.351,4.007-3.764,6.77.2.963,1.011,1.685,2.393,2.144Z" transform="translate(-84.427 -236.359)" fill="#b94d59"/>
          <path id="Trazado_647" data-name="Trazado 647" d="M256.388,249.163l-.11-.455c.024-.006,2.431-.607,3.122-2.477.488-1.319.032-2.965-1.357-4.894l.38-.274c1.487,2.065,1.963,3.859,1.415,5.332C259.057,248.5,256.5,249.138,256.388,249.163Z" transform="translate(-85.208 -236.544)" fill="#b94d59"/>
          <path id="Trazado_648" data-name="Trazado 648" d="M232.611,278.429a15.164,15.164,0,0,1-2.054-10.045,9.7,9.7,0,0,1,2.626-5.266c1.028-1.176,1.77-2.026,1.154-4.219-.742-2.644,1.349-6.729,3.711-9,1.76-1.692,3.549-2.358,5.036-1.875l-.144.445c-1.315-.423-2.937.2-4.567,1.768-2.6,2.5-4.205,6.324-3.585,8.535.685,2.437-.171,3.415-1.252,4.654a9.286,9.286,0,0,0-2.518,5.037,14.674,14.674,0,0,0,1.982,9.7Z" transform="translate(-83.569 -236.974)" fill="#b94d59"/>
          <path id="Trazado_649" data-name="Trazado 649" d="M242.654,260.108l-.107-.455a8.048,8.048,0,0,0,6.043-7.681c.073-1.331-.221-2-.393-2.059-.064-.02-.185.055-.337.268-1.753,2.455-9.544,9.015-9.875,9.294l-.3-.358c.081-.068,8.076-6.8,9.8-9.208.35-.49.665-.509.873-.437.611.215.764,1.446.705,2.526A8.506,8.506,0,0,1,242.654,260.108Z" transform="translate(-84.032 -237.073)" fill="#934048"/>
          <path id="Trazado_650" data-name="Trazado 650" d="M251.455,246.179c-1.844-1.712-1.129-4.891-1.1-5.026l.455.107c-.007.03-.684,3.049.959,4.576Z" transform="translate(-84.823 -236.549)" fill="#934048"/>
          <path id="Trazado_651" data-name="Trazado 651" d="M252.851,246.181a2.322,2.322,0,0,1-.322-.021l-.329-.053.162-.291a20.943,20.943,0,0,0,2.019-5.9l.463.075a21.319,21.319,0,0,1-1.893,5.714,2.141,2.141,0,0,0,1.328-.5,3.353,3.353,0,0,0,.842-2.72l.468-.014a3.776,3.776,0,0,1-1.005,3.089A2.624,2.624,0,0,1,252.851,246.181Z" transform="translate(-84.95 -236.471)" fill="#934048"/>
          <path id="Trazado_652" data-name="Trazado 652" d="M260.225,260.515c-.214-.311-5.218-7.661-6.372-10.344l.43-.186c1.137,2.643,6.276,10.189,6.328,10.265Z" transform="translate(-85.055 -237.108)" fill="#934048"/>
          <path id="Trazado_653" data-name="Trazado 653" d="M264.136,265.075c-.343-7-4.891-12.8-4.937-12.854l.365-.29c.048.058,4.688,5.977,5.04,13.121Z" transform="translate(-85.393 -237.231)" fill="#934048"/>
          <path id="Trazado_654" data-name="Trazado 654" d="M268.353,265.288c-.047-5.653-1.637-9.035-2.963-10.877a8.392,8.392,0,0,0-2.888-2.666l.193-.427c.245.111,6.035,2.839,6.126,13.967Z" transform="translate(-85.602 -237.192)" fill="#b94d59"/>
          <path id="Trazado_655" data-name="Trazado 655" d="M265.964,273.288c-1.055-1.463-4.845-.691-4.883-.683l-.095-.459c.168-.033,4.127-.838,5.359.867Z" transform="translate(-85.506 -238.496)" fill="#c87d79"/>
        </g>
      </g>
    </g>
  </g>
</svg>
