<svg xmlns="http://www.w3.org/2000/svg" width="436.701" height="444.41" viewBox="0 0 436.701 444.41">
  <g id="Grupo_409" data-name="Grupo 409" transform="translate(-6803.067 6940.285)">
    <path id="Trazado_685" data-name="Trazado 685" d="M280.493,119.5c.957,0,4.471-.293,5.428-.839,2.392-1.085,5.266-4.343,7.659-5.97A97.716,97.716,0,0,1,307.939,104c13.882-7.6,28.245-14.121,44.038-16.837,12.925-2.712,24.889-4.343,36.379-10.859-13.878,7.062-27.282,15.748-41.163,22.807-10.057,5.435-18.673,12.494-28.724,17.925-14.744,8.073-31.423,12-43.559,21.18-4.784,3.255-4.784,11.965-7.658,15.223" transform="translate(6832.315 -6848.119)" fill="none" stroke="#000" stroke-miterlimit="10" stroke-width="3"/>
    <path id="Trazado_686" data-name="Trazado 686" d="M521.053,165.25c11.18,13.09,25.061,89.389,25.061,117.624,0,0-12.15-12.029-21.776,0,0-29.32-7.9-66.262-11.729-79.291-2.878-10.859-3.831-17.918-11.493-25.52-11.483-10.859-17.7-10.041-37.093-14.933-20.641-5.209-41.871-6.058-62.747-9.555C379.965,150,358.9,144.8,337.862,139.609c-11.938-2.945-23.879-5.89-35.87-8.521-17.049-3.743-34.159-7.123-51.278-10.381-8.535-1.624-17.052-3.369-25.52-5.388-11.442-2.733-22.834-5.772-34.125-9.232-3.868-1.183-7.729-2.412-11.614-3.518" transform="translate(6624.296 -6785.874)" fill="none" stroke="#000" stroke-miterlimit="10" stroke-width="5"/>
    <path id="Trazado_687" data-name="Trazado 687" d="M179.455,115.919c24.886-1.085,47.865-1.085,71.8-9.771,36.193-13.144,77.017-9.138,114.4-6.533,11.617.815,23.232,1.776,34.883,1.978,17.881.307,36.4-5.162,54.112-2.739a82.838,82.838,0,0,1,52.943,29.957c9.424,11.84,13.986,24.32,13.986,40.331.01,13.413-8.936,28.235-10.657,41.19" transform="translate(6624.296 -6799.223)" fill="none" stroke="#000" stroke-miterlimit="10" stroke-width="3"/>
    <path id="Trazado_688" data-name="Trazado 688" d="M325.543,209.951a571.326,571.326,0,0,1-47.387-61.908c-7.658-11.405-16.274-22.81-24.411-33.673-8.144-11.4-14.842-23.353-22.019-34.751-5.748-9.235-10.536-20.1-16.281-28.784h-.475C217.845,65.5,223.111,80.7,227.9,94.277c4.306,12.494,4.784,24.98,5.741,38.016.478,6.516,1.439,12.49,7.662,14.118,6.7,2.173,11.486,1.631,17.709,6.52a221.693,221.693,0,0,1,25.85,27.7c3.831,5.428,17.949,20.775,12.682,27.834" transform="translate(6708.446 -6908.457)" fill="none" stroke="#000" stroke-miterlimit="10" stroke-width="5"/>
    <path id="Trazado_689" data-name="Trazado 689" d="M319.464,178.453c-5.263-4.346-12.443-7.062-18.184-10.324a166.013,166.013,0,0,1-24.414-18.464,285.781,285.781,0,0,1-24.893-25.523c-9.094-10.32-20.1-20.634-27.763-32.585-6.22-10.317-13.4-19.007-18.188-30.408,2.871,10.314,9.572,18.461,11.968,28.778,2.389,11.409,5.263,20.095,11.965,28.242,15.32,19.556,63.185,64.493,88.793,65.851" transform="translate(6687.24 -6884.015)" fill="none" stroke="#000" stroke-miterlimit="10" stroke-width="5"/>
    <path id="Trazado_690" data-name="Trazado 690" d="M292.461,234.251c-.478-4.886-5.5-13.814-7.9-17.618-1.914-3.255-4.784-5.974-5.741-9.232-1.435-4.343-.96-8.686-1.914-13.033-2.871-19.006-7.183-38.013-10.536-57.565-4.306-23.353-11.965-46.706-22.976-67.34-4.784-9.778-11.008-18.467-14.357-28.784,10.047,10.859,15.314,27.7,23.454,40.186,8.615,13.036,12.443,27.7,15.8,43.448,2.871,13.578,6.22,25.526,11.968,38.559,6.223,12.49,14.36,23.35,13.4,38.559-.482,7.6.468,22.848-.01,30.452" transform="translate(6741.771 -6932.518)" fill="none" stroke="#000" stroke-miterlimit="10" stroke-width="3"/>
    <path id="Trazado_691" data-name="Trazado 691" d="M248.072,261.653c6.227-35.843,16.274-71.127,24.893-106.428,5.745-23.35,8.137-46.7,13.4-70.056,1.435-5.97,3.828-12.49,5.263-19.006,1.442-7.059,2.4-14.121,4.309-21.18,1.439-4.346,4.906-9.165,8.14-15.748,1.435,19.549-3.831,40.729-5.266,60.824-1.914,26.065-8.137,51.595-9.572,77.66-.957,13.572-1.917,27.154-2.4,40.732-.479,11.944-5.745,17.918-12.925,26.608-6.22,7.6-14.626,16.294-18.936,25.526" transform="translate(6786.874 -6959.63)" fill="none" stroke="#000" stroke-miterlimit="10" stroke-width="3"/>
    <path id="Trazado_692" data-name="Trazado 692" d="M265.678,198.506c0-21.726,2.867-43.1,2.867-64.823,0-14.663-2.392-28.784-4.306-42.905-1.917-10.859-1.917-21.722-2.871-32.582-.96-7.062-3.356-13.578-4.309-20.634,0-3.258.954-7.062-1.439-9.778-.957,14.663-.478,29.327-.478,43.99,0,7.059,0,13.575-1.914,20.634-1.435,5.97-3.353,12.49-2.4,18.464a146.973,146.973,0,0,0,5.448,20.978,121.311,121.311,0,0,1,4.788,19.007c1.435,10.32-.478,19.552-3.352,29.327-1.914,5.431-.175,11.611-2.574,16.5-2.392,4.34-6.8,9.219-8.235,14.107" transform="translate(6784.113 -6963.068)" fill="none" stroke="#000" stroke-miterlimit="10" stroke-width="3"/>
    <path id="Trazado_693" data-name="Trazado 693" d="M262.917,208.9c11.968-22.807,28.525-42.359,44.32-61.366a482.645,482.645,0,0,0,30.156-40.183c7.187-10.866,14.364-22.807,23.457-32.043C370.9,65.533,377.6,54.944,386.219,43c3.828-5.428,10.054-14.394,16.274-16.018-6.22,12.487-14.357,22.807-22.022,34.212-9.094,13.578-15.789,29.327-24.408,43.444-5.745,9.774-12.443,18.467-17.713,28.242-4.788,9.232-9.572,19.007-14.838,28.242-8.616,15.2-17.231,27.7-21.062,45.614C299.1,221.4,292.4,236.6,279.956,243.118c-9.1,4.346-17.868,10.014-21.7,20.873" transform="translate(6810.999 -6964.978)" fill="none" stroke="#000" stroke-miterlimit="10" stroke-width="3"/>
    <path id="Trazado_694" data-name="Trazado 694" d="M297.243,126.5c2.392,0,3.352-2.177,4.788-3.807,2.871-2.712,6.7-3.8,9.572-7.059,3.831-3.8,7.18-9.229,11.011-13.575C334.1,90.114,348.939,85.225,360.907,73.82c4.784-4.886,10.533-9.232,14.839-14.663,2.871-3.8,4.309-7.6,8.137-9.774-22.976,31.5-50.261,57.565-75.153,86.9-8.134,9.232-11.486,17.372-14.357,29.327a46.948,46.948,0,0,1-14.36,24.977c-7.183,6.52-14.364,11.405-15.317,22.807v-.539" transform="translate(6826.259 -6911.895)" fill="none" stroke="#000" stroke-miterlimit="10" stroke-width="3"/>
    <path id="Trazado_695" data-name="Trazado 695" d="M282.763,95.781c19.145-4.882,40.5-5.324,59.162,1.193,8.615,2.719,16.274,7.059,24.414,10.866,6.7,2.712,12.925,4.886,18.666,9.774,7.662,5.97,14.839,11.4,19.148,21.18-19.623-11.948-39.253-22.807-61.75-22.271-10.529.546-17.713,2.719-27.288,7.608-6.695,2.716-14.357,2.716-21.537,2.167-6.7-1.082-19.623-9.748-26.328-10.3" transform="translate(6832.315 -6810.686)" fill="none" stroke="#000" stroke-miterlimit="10" stroke-width="3"/>
    <path id="Trazado_696" data-name="Trazado 696" d="M277.461,147.776c0-9.785,2.224-19.124,2.224-28.906" transform="translate(6856.506 -6747.253)" fill="none" stroke="#000" stroke-miterlimit="10" stroke-width="1"/>
    <path id="Trazado_697" data-name="Trazado 697" d="M291.074,137.378c-4-12.9-9.781-21.348-18.232-31.574" transform="translate(6845.563 -6778.211)" fill="none" stroke="#000" stroke-miterlimit="10" stroke-width="1"/>
    <path id="Trazado_698" data-name="Trazado 698" d="M292.44,114.226C283.548,107.11,273.76,100,261.755,100" transform="translate(6819.293 -6791.97)" fill="none" stroke="#000" stroke-miterlimit="10" stroke-width="1"/>
    <path id="Trazado_699" data-name="Trazado 699" d="M302.444,151.577c-2.669-8.45-4.448-18.235-12.453-24.458-3.555-2.668-8.447-3.558-12.895-5.337-3.555-1.779-7.116-4-11.119-4.892" transform="translate(6829.299 -6751.945)" fill="none" stroke="#000" stroke-miterlimit="10" stroke-width="1"/>
    <path id="Trazado_700" data-name="Trazado 700" d="M311.628,127.751c-22.679-6.668-46.248-8.892-68.482-16.008" transform="translate(6775.202 -6764.14)" fill="none" stroke="#000" stroke-miterlimit="10" stroke-width="1"/>
    <path id="Trazado_701" data-name="Trazado 701" d="M287.828,151.756c.445-12.008-6.223-27.127-15.118-35.129" transform="translate(6845.25 -6752.568)" fill="none" stroke="#000" stroke-miterlimit="10" stroke-width="1"/>
    <path id="Trazado_702" data-name="Trazado 702" d="M348.1,140.144c-12.9-8.9-26.682-13.787-40.911-19.569-13.343-4.889-26.237-8.892-40.469-11.115-3.558-.89-7.557-.89-11.56-1.334-5.782-.889-11.119-2.669-16.9-3.113" transform="translate(6763.633 -6780.088)" fill="none" stroke="#000" stroke-miterlimit="10" stroke-width="1"/>
    <path id="Trazado_703" data-name="Trazado 703" d="M288.092,164.364a147.128,147.128,0,0,0-2.224-24.458c-.445-6.671-3.558-12.005-5.782-17.787-1.331-4.448-4.889-7.561-7.113-11.564" transform="translate(6845.875 -6766.955)" fill="none" stroke="#000" stroke-miterlimit="10" stroke-width="1"/>
    <path id="Trazado_704" data-name="Trazado 704" d="M307.415,123.434a92.2,92.2,0,0,0-28.906-17.787c-8-3.113-15.563-4-24.013-5.782" transform="translate(6802.094 -6792.283)" fill="none" stroke="#000" stroke-miterlimit="10" stroke-width="1"/>
    <path id="Trazado_705" data-name="Trazado 705" d="M319.357,140.938c-.886-1.779-5.782-4.448-7.557-5.337a80.468,80.468,0,0,0-16.456-8c-12.45-5.782-25.789-6.227-39.132-9.785" transform="translate(6806.16 -6749.756)" fill="none" stroke="#000" stroke-miterlimit="10" stroke-width="1"/>
    <path id="Trazado_706" data-name="Trazado 706" d="M322.225,135.831c-17.342-2.22-34.239-7.557-51.14-10.226-7.561-1.334-14.229-4.892-21.79-7.116-10.674-3.113-21.345-5.778-32.019-9.781" transform="translate(6713.91 -6771.331)" fill="none" stroke="#000" stroke-miterlimit="10" stroke-width="1"/>
    <path id="Trazado_707" data-name="Trazado 707" d="M181.378,103.164c20.459,0,46.248,4.892,68.041,9.34" transform="translate(6628.852 -6784.467)" fill="none" stroke="#000" stroke-miterlimit="10" stroke-width="1"/>
    <path id="Trazado_708" data-name="Trazado 708" d="M181.378,108.425c5.782,0,11.564,1.334,17.79.89a114.243,114.243,0,0,0,17.787-2.669,153.591,153.591,0,0,1,20.011-2.224c7.561-.445,14.232-3.555,21.79-3.555,8.45,0,16.456-.445,24.9.441" transform="translate(6628.852 -6790.172)" fill="none" stroke="#000" stroke-miterlimit="10" stroke-width="1"/>
    <path id="Trazado_709" data-name="Trazado 709" d="M189.3,103.56c11.564,0,22.679,1.334,34.687,2.669,7.557.89,15.563,2.224,23.124,3.558,7.116,1.334,13.784,4.444,20.455,6.671" transform="translate(6647.615 -6783.528)" fill="none" stroke="#000" stroke-miterlimit="10" stroke-width="1"/>
    <path id="Trazado_710" data-name="Trazado 710" d="M189.3,105.827c8.006,0,15.566-1.779,23.127-2.665,9.781-.893,20.011-.448,30.237-.448" transform="translate(6647.615 -6785.795)" fill="none" stroke="#000" stroke-miterlimit="10" stroke-width="1"/>
    <path id="Trazado_711" data-name="Trazado 711" d="M277.593,147.876c0-5.115,1.557-10.452,2.891-15.566.664-2.22,1.112-4.889,1.776-7.335.445-1.779,1.115-3.113,1.115-5.115" transform="translate(6856.819 -6744.908)" fill="none" stroke="#000" stroke-miterlimit="10" stroke-width="1"/>
    <path id="Trazado_712" data-name="Trazado 712" d="M279.309,121.5c.222-1.112.441-2,.667-2.891" transform="translate(6860.885 -6747.879)" fill="none" stroke="#000" stroke-miterlimit="10" stroke-width="1"/>
    <path id="Trazado_713" data-name="Trazado 713" d="M285.293,137.8a93.718,93.718,0,0,0-2.224-15.563c-1.112-4.448-4.447-8.228-6-12.675" transform="translate(6855.568 -6769.3)" fill="none" stroke="#000" stroke-miterlimit="10" stroke-width="1"/>
    <path id="Trazado_714" data-name="Trazado 714" d="M293.715,142.944c-.445-5.559-4.225-11.338-6.671-16.23-1.334-3.113-3.555-5.782-5.337-8.673-2.443-4-6.449-8.9-10.448-11.115" transform="translate(6841.81 -6775.553)" fill="none" stroke="#000" stroke-miterlimit="10" stroke-width="1"/>
    <path id="Trazado_715" data-name="Trazado 715" d="M291.318,136.924a51.693,51.693,0,0,0-9.562-14.229,67.231,67.231,0,0,0-6.894-6.894c-1.779-1.557-4.225-3.113-5.782-5.115" transform="translate(6836.649 -6766.642)" fill="none" stroke="#000" stroke-miterlimit="10" stroke-width="1"/>
    <path id="Trazado_716" data-name="Trazado 716" d="M284.974,117.548c-4.225-3.339-8.45-4.9-13.343-6.675-2.446-.886-4.444-2.443-6.894-3.332-2-.667-3.78-.667-5.556-2" transform="translate(6813.197 -6778.837)" fill="none" stroke="#000" stroke-miterlimit="10" stroke-width="1"/>
    <path id="Trazado_717" data-name="Trazado 717" d="M284.123,124.951c-2.224,0-5.337-3.336-7.338-4.448-2.891-1.779-6-3.113-8.892-4.67" transform="translate(6833.836 -6754.447)" fill="none" stroke="#000" stroke-miterlimit="10" stroke-width="1"/>
    <path id="Trazado_718" data-name="Trazado 718" d="M299.693,123.668c-8.45-2.891-17.123-5.115-25.573-7.783-7.78-2.446-15.118-4.448-23.12-4.67" transform="translate(6793.809 -6765.391)" fill="none" stroke="#000" stroke-miterlimit="10" stroke-width="1"/>
    <path id="Trazado_719" data-name="Trazado 719" d="M284.854,134.151c-2.224-2.224-4-4.448-6.449-6.671-1.776-1.557-4.889-3.113-6.223-5.111" transform="translate(6843.999 -6738.966)" fill="none" stroke="#000" stroke-miterlimit="10" stroke-width="1"/>
    <path id="Trazado_720" data-name="Trazado 720" d="M282.744,127.675c-4.892-3.336-11.116-6.894-16.9-8.673" transform="translate(6828.989 -6746.941)" fill="none" stroke="#000" stroke-miterlimit="10" stroke-width="1"/>
    <path id="Trazado_721" data-name="Trazado 721" d="M301.845,127.945c-5.111-1.779-9.781-3.336-14.9-4.667-3.777-.893-7.557-2-11.115-2.891a101.683,101.683,0,0,0-14.229-3.336c-2.224-.448-4.448-.667-6.671-1.112-2.669-.222-5.115-1.334-7.561-1.557" transform="translate(6785.208 -6757.885)" fill="none" stroke="#000" stroke-miterlimit="10" stroke-width="1"/>
    <path id="Trazado_722" data-name="Trazado 722" d="M280.893,122.565a68.021,68.021,0,0,1,6.449,22.679c.445,3.339,2,6.23,2.888,9.562,1.112,3.336.445,7.338,2,10.674" transform="translate(6864.638 -6738.499)" fill="none" stroke="#000" stroke-miterlimit="10" stroke-width="1"/>
    <path id="Trazado_723" data-name="Trazado 723" d="M280.364,123.688c3.113,7.113,4.451,13.784,5.563,21.122.886,4.222,1.776,8.225,2.443,12.672,1.112,5.782,1.112,12.005,2.446,18.009.889,4.67,2.668,9.34,3.558,14.01,1.557,7.557,3.336,15.118,4.67,22.9" transform="translate(6863.385 -6735.838)" fill="none" stroke="#000" stroke-miterlimit="10" stroke-width="1"/>
    <path id="Trazado_724" data-name="Trazado 724" d="M279.9,125.337" transform="translate(6862.29 -6731.931)" fill="none" stroke="#000" stroke-miterlimit="10" stroke-width="1"/>
    <path id="Trazado_725" data-name="Trazado 725" d="M279.844,124.413c-.222,4.892,3.332,9.34,4,14.232.445,2.891,0,5.337.889,8.225a25.429,25.429,0,0,1,1.338,8.228" transform="translate(6862.129 -6734.12)" fill="none" stroke="#000" stroke-miterlimit="10" stroke-width="1"/>
    <path id="Trazado_726" data-name="Trazado 726" d="M279.177,126c1.331,6,2.443,12.005,4.67,17.787,1.112,2.446,2.443,5.115,2.665,8.006" transform="translate(6860.572 -6730.367)" fill="none" stroke="#000" stroke-miterlimit="10" stroke-width="1"/>
    <path id="Trazado_727" data-name="Trazado 727" d="M281.685,135.1a82.967,82.967,0,0,0,2.668,19.566c3.11,12.45,3.777,24.9,3.777,37.8" transform="translate(6866.515 -6708.79)" fill="none" stroke="#000" stroke-miterlimit="10" stroke-width="1"/>
    <path id="Trazado_728" data-name="Trazado 728" d="M278.648,128.916c0-1.112,0,.445.226.664a34.674,34.674,0,0,0,1.331,5.115c.671,2,1.338,4.67,2.669,6.227" transform="translate(6859.319 -6724.391)" fill="none" stroke="#000" stroke-miterlimit="10" stroke-width="1"/>
    <path id="Trazado_729" data-name="Trazado 729" d="M280.232,133.322a34.24,34.24,0,0,1,2.227,12.453" transform="translate(6863.072 -6713.012)" fill="none" stroke="#000" stroke-miterlimit="10" stroke-width="1"/>
    <path id="Trazado_730" data-name="Trazado 730" d="M216.134,53.823c-.226-.445.222.445.445.667q1.329,2,2.669,4c1.557,2.446,2.669,5.115,4.225,7.561,2.443,4,3.777,8.447,6.223,12.45" transform="translate(6711.054 -6901.663)" fill="none" stroke="#000" stroke-miterlimit="10" stroke-width="1"/>
    <path id="Trazado_731" data-name="Trazado 731" d="M220.445,61.788c2.891,8.45,7.116,15.118,12.008,22.457,5.334,7.561,10.893,15.118,16.9,22.234a212.906,212.906,0,0,1,13.562,17.342" transform="translate(6721.416 -6882.501)" fill="none" stroke="#000" stroke-miterlimit="10" stroke-width="1"/>
    <path id="Trazado_732" data-name="Trazado 732" d="M215.76,53.935c3.113,3.558,4.667,8.9,6.446,13.12a79.1,79.1,0,0,1,4.225,10,38.939,38.939,0,0,0,3.78,9.562c1.334,2,3.558,4.225,3.558,6.671" transform="translate(6710.315 -6901.107)" fill="none" stroke="#000" stroke-miterlimit="10" stroke-width="1"/>
    <path id="Trazado_733" data-name="Trazado 733" d="M221.435,66.474A160.5,160.5,0,0,1,234.774,87.6c1.557,3.113,3.336,6.446,5.115,9.559,2.891,5.337,6.671,9.785,10.229,14.673" transform="translate(6723.761 -6871.398)" fill="none" stroke="#000" stroke-miterlimit="10" stroke-width="1"/>
    <path id="Trazado_734" data-name="Trazado 734" d="M218.135,60.271c2.446,5.556,3.78,12,6.671,17.561,1.557,3.339,3.113,6.671,3.336,10.229a23.3,23.3,0,0,0,.222,5.559c.222,1.779,1.112,3.558,1.557,5.337,1.112,3.558,1.557,7.335,2.891,10.893a31.588,31.588,0,0,0,9.559,13.343" transform="translate(6715.942 -6886.095)" fill="none" stroke="#000" stroke-miterlimit="10" stroke-width="1"/>
    <path id="Trazado_735" data-name="Trazado 735" d="M222.161,69.245a108.209,108.209,0,0,0,6.449,14.677c2,3.555,2.443,7.557,4.444,10.893a68.364,68.364,0,0,0,9.118,12.008c3.78,3.78,8.673,6.668,12.008,10.893a160.939,160.939,0,0,0,12.227,12.453c3.558,3.555,6.227,7.557,9.336,11.338" transform="translate(6725.481 -6864.833)" fill="none" stroke="#000" stroke-miterlimit="10" stroke-width="1"/>
    <path id="Trazado_736" data-name="Trazado 736" d="M209.623,68.783c3.777,5.559,6.89,11.786,10.226,17.79a60.992,60.992,0,0,0,4.67,6.668,44.47,44.47,0,0,0,4.225,4.892" transform="translate(6695.774 -6865.927)" fill="none" stroke="#000" stroke-miterlimit="10" stroke-width="1"/>
    <path id="Trazado_737" data-name="Trazado 737" d="M216.815,79.54c6.449,7.78,13.565,14.451,20.681,21.564" transform="translate(6712.815 -6840.44)" fill="none" stroke="#000" stroke-miterlimit="10" stroke-width="1"/>
    <path id="Trazado_738" data-name="Trazado 738" d="M213.846,76.9c2.891,3.113,4.892,8,8.228,10.671" transform="translate(6705.78 -6846.695)" fill="none" stroke="#000" stroke-miterlimit="10" stroke-width="1"/>
    <path id="Trazado_739" data-name="Trazado 739" d="M216.749,78.088c.893.89,1.779,2,2.669,2.891" transform="translate(6712.659 -6843.88)" fill="none" stroke="#000" stroke-miterlimit="10" stroke-width="1"/>
    <path id="Trazado_740" data-name="Trazado 740" d="M249.263,113.556a133.02,133.02,0,0,1-1.334-16.23c0-3.113-.889-6.227-.889-9.34" transform="translate(6784.426 -6820.429)" fill="none" stroke="#000" stroke-miterlimit="10" stroke-width="1"/>
    <path id="Trazado_741" data-name="Trazado 741" d="M248.109,92.231a50.128,50.128,0,0,0-1.334-8.006" transform="translate(6783.801 -6829.34)" fill="none" stroke="#000" stroke-miterlimit="10" stroke-width="1"/>
    <path id="Trazado_742" data-name="Trazado 742" d="M250.2,90.025c-.222-1.557-1.557-2.891-2.22-4.225-1.112-1.776-2-3.558-3.117-5.337" transform="translate(6779.266 -6838.253)" fill="none" stroke="#000" stroke-miterlimit="10" stroke-width="1"/>
    <path id="Trazado_743" data-name="Trazado 743" d="M253.17,111.919v.889c0-4.444-2.224-8.669-3.78-12.672-.889-2.446-2.443-4.67-3.113-7.338a28.166,28.166,0,0,0-.886-3.558" transform="translate(6780.519 -6817.458)" fill="none" stroke="#000" stroke-miterlimit="10" stroke-width="1"/>
    <path id="Trazado_744" data-name="Trazado 744" d="M248.25,108c-.89-4.889-1.776-9.781-2.446-14.9-.441-4.448,0-9.34-2-13.562" transform="translate(6776.766 -6840.44)" fill="none" stroke="#000" stroke-miterlimit="10" stroke-width="1"/>
    <path id="Trazado_745" data-name="Trazado 745" d="M248.752,98.791c-1.115-4.889-2-10-3.561-14.9" transform="translate(6780.047 -6830.122)" fill="none" stroke="#000" stroke-miterlimit="10" stroke-width="1"/>
    <path id="Trazado_746" data-name="Trazado 746" d="M244.619,84.319c-1.112-2.891-1.334-5.782-2-8.673" transform="translate(6773.951 -6849.667)" fill="none" stroke="#000" stroke-miterlimit="10" stroke-width="1"/>
    <path id="Trazado_747" data-name="Trazado 747" d="M250.509,33.155c0-.222.222-.445.222-.667-2.224,11.119.222,22.9.222,34.02,0,3.558.445,7.113.445,10.671,0,4.448-.667,8.45-.889,12.9-.222,6.227-.445,12.672,1.779,18.9" transform="translate(6790.963 -6951.923)" fill="none" stroke="#000" stroke-miterlimit="10" stroke-width="1"/>
    <path id="Trazado_748" data-name="Trazado 748" d="M250.075,33.478c0,4,.89,8.006.89,12.227,0,2.227-.222,4.67,0,6.894s.886,4.225,1.112,6.227c.445,7.338,1.779,14.9,1.779,22.234,0,3.113.889,6,1.334,9.117" transform="translate(6791.62 -6949.577)" fill="none" stroke="#000" stroke-miterlimit="10" stroke-width="1"/>
    <path id="Trazado_749" data-name="Trazado 749" d="M251.593,51.032c.222,5.782,1.112,11.56,1.112,17.342V81.936" transform="translate(6795.216 -6907.986)" fill="none" stroke="#000" stroke-miterlimit="10" stroke-width="1"/>
    <path id="Trazado_750" data-name="Trazado 750" d="M270.313,31.489V30.377c-1.112,3.558-2.891,6.446-3.558,10-.89,3.336-1.334,6.894-2,10.229-.667,2.891-.89,5.556-1.334,8.447-.441,2.224-1.334,4.892-1.334,7.338" transform="translate(6820.075 -6956.925)" fill="none" stroke="#000" stroke-miterlimit="10" stroke-width="1"/>
    <path id="Trazado_751" data-name="Trazado 751" d="M266.138,44.234c-1.557,6.894-2.22,13.787-3.332,20.681-1.112,5.778-2.45,11.56-3.558,17.342" transform="translate(6813.354 -6924.092)" fill="none" stroke="#000" stroke-miterlimit="10" stroke-width="1"/>
    <path id="Trazado_752" data-name="Trazado 752" d="M259.05,56.9" transform="translate(6812.884 -6894.07)" fill="none" stroke="#000" stroke-miterlimit="10" stroke-width="1"/>
    <path id="Trazado_753" data-name="Trazado 753" d="M261.629,62.58a199.152,199.152,0,0,1-2.443,19.788c-.89,4.892-1.112,10.452-2.446,15.341" transform="translate(6807.411 -6880.625)" fill="none" stroke="#000" stroke-miterlimit="10" stroke-width="1"/>
    <path id="Trazado_754" data-name="Trazado 754" d="M264.793,41.6a44.271,44.271,0,0,0-2.443,13.339" transform="translate(6820.703 -6930.345)" fill="none" stroke="#000" stroke-miterlimit="10" stroke-width="1"/>
    <path id="Trazado_755" data-name="Trazado 755" d="M267.188,49.976c-4.451,18.9-6.008,38.242-7.119,57.586-.664,7.783-.664,15.789-.886,23.572" transform="translate(6813.197 -6910.488)" fill="none" stroke="#000" stroke-miterlimit="10" stroke-width="1"/>
    <path id="Trazado_756" data-name="Trazado 756" d="M279.179,76.438c-.889,6.894-.445,13.784-2,20.455-1.112,4.892-2.446,10.452-4.67,14.9-2,4-5.337,7.335-7.116,11.338-1.779,3.78-5.115,6.449-7.338,10.007-1.334,2.224-3.332,3.78-4.889,6a34.486,34.486,0,0,0-2.891,8.006" transform="translate(6792.089 -6847.79)" fill="none" stroke="#000" stroke-miterlimit="10" stroke-width="1"/>
    <path id="Trazado_757" data-name="Trazado 757" d="M270.694,74.326C268.47,85,266.024,95,262.021,105.233c-1.557,4.448-4,8-5.111,12.676-1.557,6.89-2.446,14.006-4.448,20.678-1.557,5.115-2.891,9.559-3.113,14.9" transform="translate(6789.899 -6852.794)" fill="none" stroke="#000" stroke-miterlimit="10" stroke-width="1"/>
    <path id="Trazado_758" data-name="Trazado 758" d="M271.107,78.352c-2.224,7.335-3.113,14.9-6.668,21.79-1.782,3.555-4.225,7.116-5.563,10.893a79.288,79.288,0,0,0-3.777,14.232c-1.112,5.782-4.225,11.115-4.892,17.12" transform="translate(6791.932 -6843.255)" fill="none" stroke="#000" stroke-miterlimit="10" stroke-width="1"/>
    <path id="Trazado_759" data-name="Trazado 759" d="M259.458,145.188c-.219-2.891,1.557-5.782,2.894-8.228a48.313,48.313,0,0,1,4.444-8.225c4.67-6.227,9.562-12.008,14.006-18.232,3.339-4.9,7.119-9.34,10.674-14.01,4.448-6,8.006-12.676,13.339-17.79A50.885,50.885,0,0,0,312.6,68.256c1.779-2.669,2.891-6.227,5.337-8.447" transform="translate(6813.807 -6887.19)" fill="none" stroke="#000" stroke-miterlimit="10" stroke-width="1"/>
    <path id="Trazado_760" data-name="Trazado 760" d="M251.923,108.384a15.726,15.726,0,0,1,2.668-4c1.112-1.334,1.557-2.891,2.443-4.225,1.782-2.446,4.448-4.222,6.227-6.89" transform="translate(6795.998 -6807.918)" fill="none" stroke="#000" stroke-miterlimit="10" stroke-width="1"/>
    <path id="Trazado_761" data-name="Trazado 761" d="M256.344,95.716c1.779-1.557,3.336-3.336,4.892-4.892" transform="translate(6806.473 -6813.705)" fill="none" stroke="#000" stroke-miterlimit="10" stroke-width="1"/>
    <path id="Trazado_762" data-name="Trazado 762" d="M258.72,137.637c6.223-7.78,10.226-16.675,14.007-26.015,3.336-8.9,7.78-18.232,14.232-25.57,4.892-5.334,8.892-11.56,14.006-16.675" transform="translate(6812.103 -6864.52)" fill="none" stroke="#000" stroke-miterlimit="10" stroke-width="1"/>
    <path id="Trazado_763" data-name="Trazado 763" d="M254.3,103.075c1.557-3.113,4.892-5.115,6.449-8.225" transform="translate(6801.625 -6804.166)" fill="none" stroke="#000" stroke-miterlimit="10" stroke-width="1"/>
    <path id="Trazado_764" data-name="Trazado 764" d="M257.532,126.511c3.777-3.558,6.671-7.783,10-12.008,2.669-3.332,5.782-6.671,7.78-10.448,1.115-2,1.782-4.448,2.894-6.449,1.557-2.446,2.668-4.67,4-7.116,2.45-4.225,5.782-8.006,8.45-12" transform="translate(6809.288 -6842.942)" fill="none" stroke="#000" stroke-miterlimit="10" stroke-width="1"/>
    <path id="Trazado_765" data-name="Trazado 765" d="M256.987,104.711c-.226.222-.226.445-.445.667a37.234,37.234,0,0,1,4-6.227c1.338-1.779,2.672-4.222,4.225-5.556" transform="translate(6806.942 -6807.137)" fill="none" stroke="#000" stroke-miterlimit="10" stroke-width="1"/>
    <path id="Trazado_766" data-name="Trazado 766" d="M259.907,148.1c3.336-4.67,7.338-8.673,10.674-13.343,2.668-3.78,4-7.557,5.782-11.783.89-2.224,2.446-4,3.777-6.227a91.774,91.774,0,0,1,5.118-8.892c3.332-5.337,5.334-11.564,8.892-16.9,2.446-4,5.337-7.783,6.89-12.45.893-3.113.67-6.671,1.56-9.785" transform="translate(6814.915 -6866.083)" fill="none" stroke="#000" stroke-miterlimit="10" stroke-width="1"/>
    <path id="Trazado_767" data-name="Trazado 767" d="M262.745,97.152a53.479,53.479,0,0,1,4.67-5.337c1.334-1.334,3.78-2.446,4.892-4.225" transform="translate(6821.639 -6821.367)" fill="none" stroke="#000" stroke-miterlimit="10" stroke-width="1"/>
    <path id="Trazado_768" data-name="Trazado 768" d="M266.572,106.973A150.919,150.919,0,0,0,274.8,92.522c1.334-2.669,2-5.556,3.336-8.228,1.334-2.22,3.558-4.222,4.448-6.668" transform="translate(6830.707 -6844.975)" fill="none" stroke="#000" stroke-miterlimit="10" stroke-width="1"/>
    <path id="Trazado_769" data-name="Trazado 769" d="M266.44,86.543c1.115-1.557,2.227-3.336,3.339-4.892" transform="translate(6830.394 -6835.438)" fill="none" stroke="#000" stroke-miterlimit="10" stroke-width="1"/>
    <path id="Trazado_770" data-name="Trazado 770" d="M299.961,58.621c-2.224,1.776-3.777,4.667-6,6.446-1.779,1.779-4.225,2.891-6,4.67" transform="translate(6881.366 -6890.005)" fill="none" stroke="#000" stroke-miterlimit="10" stroke-width="1"/>
    <path id="Trazado_771" data-name="Trazado 771" d="M288.789,63.7l-4,4" transform="translate(6873.862 -6877.966)" fill="none" stroke="#000" stroke-miterlimit="10" stroke-width="1"/>
    <path id="Trazado_772" data-name="Trazado 772" d="M302.553,67.2c-3.332,2.891-6.668,5.337-9.781,8.45-2.227,2.446-5.115,4-7.561,6.449-4.447,4-9.785,8.228-11.115,14.451" transform="translate(6848.534 -6869.68)" fill="none" stroke="#000" stroke-miterlimit="10" stroke-width="1"/>
    <path id="Trazado_773" data-name="Trazado 773" d="M281.857,73.006c-1.779,2.669-4,4.892-5.782,7.561" transform="translate(6853.223 -6855.921)" fill="none" stroke="#000" stroke-miterlimit="10" stroke-width="1"/>
    <path id="Trazado_774" data-name="Trazado 774" d="M279.564,77.626c-2.446,4.448-5.337,8.9-7.12,13.562" transform="translate(6844.622 -6844.975)" fill="none" stroke="#000" stroke-miterlimit="10" stroke-width="1"/>
    <path id="Trazado_775" data-name="Trazado 775" d="M260.1,105.909c2.227-6,6.452-8.673,12.008-11.786" transform="translate(6815.384 -6805.888)" fill="none" stroke="#000" stroke-miterlimit="10" stroke-width="1"/>
    <path id="Trazado_776" data-name="Trazado 776" d="M262.547,99.234c.667-.89,1.112-1.779,1.779-2.669" transform="translate(6821.17 -6800.102)" fill="none" stroke="#000" stroke-miterlimit="10" stroke-width="1"/>
    <path id="Trazado_777" data-name="Trazado 777" d="M339.206,79.494c-1.557-.222-2.888.886-4.225,1.553-2,1.115-4.225,2-6.223,2.891a92.416,92.416,0,0,1-12.008,5.115,26.854,26.854,0,0,0-5.556,1.779c-2.224,1.112-4.451,1.334-6.671,2-1.779.667-3.113,1.779-5.115,2.224a11.562,11.562,0,0,0-6.89,3.113c-4.448,3.558-10.674,4.225-15.122,7.561" transform="translate(6856.35 -6840.617)" fill="none" stroke="#000" stroke-miterlimit="10" stroke-width="1"/>
    <path id="Trazado_778" data-name="Trazado 778" d="M333.385,80.133a89.777,89.777,0,0,1-10.452,5.115c-4,1.557-7.558,3.78-11.338,5.559-3.555,1.557-7.558,2.669-10.893,4.67a28.11,28.11,0,0,1-5.782,2.891c-1.557.667-3.336.667-4.892,1.557-3.777,1.557-7.335,3.558-11.116,5.334" transform="translate(6859.947 -6839.035)" fill="none" stroke="#000" stroke-miterlimit="10" stroke-width="1"/>
    <path id="Trazado_779" data-name="Trazado 779" d="M265.883,103.928c-.664-1.334,1.112-5.559,1.782-7.561" transform="translate(6828.728 -6800.571)" fill="none" stroke="#000" stroke-miterlimit="10" stroke-width="1"/>
    <path id="Trazado_780" data-name="Trazado 780" d="M268.156,99.98c1.557-2.669,3.558-3.555,6.008-5.111,1.776-1.112,3.555-3.113,5.556-3.78" transform="translate(6834.46 -6813.079)" fill="none" stroke="#000" stroke-miterlimit="10" stroke-width="1"/>
    <path id="Trazado_781" data-name="Trazado 781" d="M319.78,115.734h.445c-2-1.112-3.78-3.78-5.337-5.559-2-2.224-4-3.558-6.227-5.559a76.023,76.023,0,0,0-7.113-4.222" transform="translate(6913.577 -6791.032)" fill="none" stroke="#000" stroke-miterlimit="10" stroke-width="1"/>
    <path id="Trazado_782" data-name="Trazado 782" d="M311.117,103.647c-6-2-13.343-4.67-18.676-8.006" transform="translate(6892 -6802.292)" fill="none" stroke="#000" stroke-miterlimit="10" stroke-width="1"/>
    <path id="Trazado_783" data-name="Trazado 783" d="M317.395,113.053c-3.332-2.446-6.446-5.337-9.562-8.006-1.557-1.334-3.558-3.113-5.559-3.336" transform="translate(6915.295 -6787.907)" fill="none" stroke="#000" stroke-miterlimit="10" stroke-width="1"/>
    <path id="Trazado_784" data-name="Trazado 784" d="M300.492,100.789" transform="translate(6911.075 -6790.094)" fill="none" stroke="#000" stroke-miterlimit="10" stroke-width="1"/>
    <path id="Trazado_785" data-name="Trazado 785" d="M315.932,107.225c-1.779-.222-2.894-1.779-4.448-2.669a24.012,24.012,0,0,0-5.334-2.669c-2-.667-4.006-1.112-6.008-1.779-2.224-.89-4-2-6.449-2.224" transform="translate(6894.968 -6796.975)" fill="none" stroke="#000" stroke-miterlimit="10" stroke-width="1"/>
    <path id="Trazado_786" data-name="Trazado 786" d="M268.024,111.25c1.334,0,3.113-7.338,3.784-8.9,1.553-4,6-5.334,9.781-6.668,7.557-2.669,16.23-1.779,23.788-.671" transform="translate(6834.147 -6806.336)" fill="none" stroke="#000" stroke-miterlimit="10" stroke-width="1"/>
    <path id="Trazado_787" data-name="Trazado 787" d="M269.147,108.334a14.8,14.8,0,0,1,2.887-8.228c1.334-1.779,3.558-2.446,5.115-4" transform="translate(6836.808 -6801.197)" fill="none" stroke="#000" stroke-miterlimit="10" stroke-width="1"/>
    <path id="Trazado_788" data-name="Trazado 788" d="M273.567,96.848c4.9-2,10.007-2,15.344-2" transform="translate(6847.28 -6804.166)" fill="none" stroke="#000" stroke-miterlimit="10" stroke-width="1"/>
    <path id="Trazado_789" data-name="Trazado 789" d="M269.278,107.526c5.782-6.449,14.451-8.45,22.679-10.229,11.786-2.446,23.124-1.334,34.91,2" transform="translate(6837.118 -6801.5)" fill="none" stroke="#000" stroke-miterlimit="10" stroke-width="1"/>
    <path id="Trazado_790" data-name="Trazado 790" d="M270.077,103.594c-.222-2,3.558-2.446,4.892-2.891,1.553-.667,3.11-2,5.115-2.224" transform="translate(6838.988 -6795.567)" fill="none" stroke="#000" stroke-miterlimit="10" stroke-width="1"/>
    <path id="Trazado_791" data-name="Trazado 791" d="M274.756,98.775c4.67-.445,9.781-.89,14.451-.89" transform="translate(6850.097 -6796.975)" fill="none" stroke="#000" stroke-miterlimit="10" stroke-width="1"/>
    <path id="Trazado_792" data-name="Trazado 792" d="M270,101.47c3.781.445,7.339,0,11.119.222,2.443.222,4.67,1.109,7.335,1.109,6.671,0,16.234,1.115,21.79-3.332" transform="translate(6838.838 -6793.221)" fill="none" stroke="#000" stroke-miterlimit="10" stroke-width="1"/>
    <path id="Trazado_793" data-name="Trazado 793" d="M276.009,99.559c3.117-.222,6.227-.222,9.34-.222" transform="translate(6853.066 -6793.534)" fill="none" stroke="#000" stroke-miterlimit="10" stroke-width="1"/>
  </g>
</svg>
